<svg id="Layer_1" data-name="Layer 1" xmlns="http://www.w3.org/2000/svg" viewBox="0 0 283 84.84"><defs><style>.cls-1{fill:#e38d5a;}.cls-2{fill:#f04c45;}.cls-3{fill:#fcb85d;}.cls-4{fill:#593b31;}.cls-5{fill:#a25325;}.cls-6{fill:#934e26;}.cls-7{fill:#ed6861;}.cls-8{fill:#fedec5;}.cls-9{fill:#cc2890;}.cls-10{fill:#e6a5ca;}.cls-11{fill:#c65630;}.cls-12{fill:#922f22;}.cls-13{fill:#f5d29c;}.cls-14{fill:#00783e;}.cls-15{fill:#4a0d14;}.cls-16{fill:#78c147;}.cls-17{fill:#e22234;}.cls-18{fill:#e68d24;}.cls-19{fill:#00aeef;}.cls-20{fill:#1568b2;}.cls-21{fill:#f7c09b;}.cls-22{fill:#ee437f;}.cls-23{fill:#b82c83;}.cls-24{fill:#140d13;}.cls-25{fill:#f6ae83;}.cls-26{fill:#da4c9a;}.cls-27{fill:#f496b8;}.cls-28{fill:#fbdae3;}.cls-29{fill:#0ea74b;}.cls-30{fill:none;}.cls-31{fill:#ed1075;}</style></defs><title>logo</title><path class="cls-1" d="M225.21,48.21a6.94,6.94,0,0,1-4.71-1.29l0-.16a2.6,2.6,0,0,0-.42-1.36c-.41-.49-.27-.9-.62-.86s-.2.93,0,1.15a3.83,3.83,0,0,0-2-1c-.41.06-.21.41.31.59a3.39,3.39,0,0,1,1,.59,5.33,5.33,0,0,0-1.7-.63c-.46,0-.35.46.08.54a7.67,7.67,0,0,1,1.45.69,3.78,3.78,0,0,0-1.38-.38c-.62,0-.51.46-.08.5a7.35,7.35,0,0,1,1.43.48,3.35,3.35,0,0,0-1.49,0c-.56.21-.26.56.52.45a3.05,3.05,0,0,1,1.69.18.69.69,0,0,0,.32,0,9,9,0,0,0,5.81,2.08S226.1,49.23,225.21,48.21Z"/><path class="cls-2" d="M223.79,47.9a9.11,9.11,0,0,0-.17,3.17,18.77,18.77,0,0,0,4.24-.39l-.38-3.62A13.36,13.36,0,0,1,223.79,47.9Z"/><path class="cls-3" d="M236.4,53.29s-.75.8-4.75,1.65-4.37.33-4.37.33l-.47-8,2.78-1.22,2.95.07Z"/><path class="cls-2" d="M232,47.13a2,2,0,1,1-2.38-1.49A2,2,0,0,1,232,47.13Z"/><path class="cls-1" d="M231.61,46.86a1.66,1.66,0,1,1-2-1.22A1.63,1.63,0,0,1,231.61,46.86Z"/><path class="cls-4" d="M234.62,41.05c.59.45.54.87-.14,1.15.49.54.36.93-.36,1.06.38.62.18,1-.55,1,.26.68,0,1-.71.83.12.71-.2,1-.86.68,0,.72-.38.91-1,.5-.16.71-.56.83-1.08.31-.31.67-.74.7-1.16.09-.45.59-.87.54-1.15-.14-.54.49-.93.36-1.06-.36-.62.38-1,.18-1-.54-.68.25-1,0-.83-.72-.71.12-1-.2-.67-.86-.73,0-.92-.38-.51-1-.71-.16-.83-.56-.31-1.08-.67-.31-.7-.73-.09-1.15-.59-.45-.54-.88.14-1.15-.49-.55-.36-.94.36-1.07-.38-.62-.18-1,.54-.95-.25-.68,0-1,.72-.83-.12-.72.2-1,.86-.68,0-.73.38-.92,1-.51.16-.71.56-.82,1.08-.31.31-.67.73-.7,1.15-.09.45-.59.88-.54,1.15.14.55-.49.94-.36,1.07.36.62-.38,1-.18,1,.55.68-.26,1,0,.83.71.71-.12,1,.2.67.87.73,0,.92.37.51,1,.71.16.83.55.31,1.08C235.2,40.2,235.23,40.63,234.62,41.05Z"/><path class="cls-1" d="M224.66,43A1.71,1.71,0,0,1,223,44.69,1.71,1.71,0,1,1,224.66,43Z"/><path class="cls-1" d="M236.07,42.68A1.71,1.71,0,1,1,234.33,41,1.7,1.7,0,0,1,236.07,42.68Z"/><path class="cls-5" d="M223,44a1,1,0,1,1,1-1,1,1,0,0,1-1,1Z"/><path class="cls-5" d="M234.39,43.66a.94.94,0,1,1,0-1.87.94.94,0,0,1,0,1.87Z"/><path class="cls-1" d="M234.22,42.63a5.39,5.39,0,1,1-5.5-5.07A5.29,5.29,0,0,1,234.22,42.63Z"/><path class="cls-5" d="M226.48,42.34c0,.37-.18.68-.43.68s-.45-.29-.45-.67.18-.68.42-.68S226.47,42,226.48,42.34Z"/><path class="cls-5" d="M232,42.21c0,.37-.18.68-.43.69s-.45-.3-.46-.67.18-.69.43-.69S232,41.83,232,42.21Z"/><path class="cls-5" d="M228,43.84a5.41,5.41,0,0,0,1.38-.07C228.86,44.75,228,43.84,228,43.84Z"/><path class="cls-6" d="M225.55,44.7s4.44,1.35,6.77-.25C232.23,47.58,226.61,48.78,225.55,44.7Z"/><path class="cls-7" d="M229.28,46.2a1.73,1.73,0,0,0-2.17.36,3.18,3.18,0,0,0,1.82.49,3.69,3.69,0,0,0,2.06-.69A1.66,1.66,0,0,0,229.28,46.2Z"/><path class="cls-4" d="M232.78,38.26c0,.55-1.75,1-3.87.91s-3.83-.53-3.82-1.08,1.75-1,3.87-.91S232.79,37.71,232.78,38.26Z"/><path class="cls-8" d="M142.81,18.29l-1,1.82c-.74.16-4.58,0-7.39-5.67-.79,1-2.51.21-3.64-.47s-.66-1.15-.22-.92a7.58,7.58,0,0,0,1.74.34s-.54-.29-1.6-.81-.84-1.28-.24-1a14,14,0,0,1,1.34.58,6.14,6.14,0,0,0,1,.39,14.91,14.91,0,0,1-2.34-1.68c-.72-.73-.1-1.19.51-.6s2.33,1.67,2.35,1.43-1.62-1.25-2.1-1.84,0-1,.52-.42a9,9,0,0,0,2.56,1.78c.34,0-.19-.78-.06-1.1s.31-1,.83-.53,0,.6.48,1.51a2.24,2.24,0,0,1-.09,1.65C139,18.38,142.81,18.29,142.81,18.29Z"/><path class="cls-9" d="M145.86,18.86a17.06,17.06,0,0,1-4.55-1.53c-1.08,1.12-2,4.82-2,4.82a50,50,0,0,0,7.13,1.69C148.23,23.91,145.86,18.86,145.86,18.86Z"/><path class="cls-8" d="M157.38,18.1l1,1.82c.74.16,4.58,0,7.39-5.67.79,1,2.5.21,3.64-.47s.65-1.14.22-.92a7.74,7.74,0,0,1-1.74.35s.54-.29,1.6-.82.84-1.28.24-1-.88.33-1.34.58a5.63,5.63,0,0,1-1,.4,14.52,14.52,0,0,0,2.34-1.69c.71-.73.1-1.18-.51-.59s-2.34,1.66-2.35,1.43,1.62-1.26,2.1-1.85,0-1-.52-.42A8.89,8.89,0,0,1,165.94,11c-.34,0,.18-.78.05-1.1s-.3-1-.83-.53,0,.61-.47,1.51a2.22,2.22,0,0,0,.09,1.66C161.24,18.19,157.38,18.1,157.38,18.1Z"/><path class="cls-9" d="M154.32,18.67a16.57,16.57,0,0,0,4.55-1.53c1.09,1.13,2,4.82,2,4.82a49.75,49.75,0,0,1-7.12,1.69C152,23.72,154.32,18.67,154.32,18.67Z"/><path class="cls-10" d="M149.44,20a8.26,8.26,0,0,0,4.88-1.28l.15,0L156,30.16s-.3-3.32-6.35-4.48c-2.89-.55-5.62-1-5.62-1l1.52-5.94A8.29,8.29,0,0,0,149.44,20Z"/><path class="cls-9" d="M146.63,19.66a3.05,3.05,0,1,0,3.2-2.79A3,3,0,0,0,146.63,19.66Z"/><path class="cls-8" d="M147.22,19.14a2.49,2.49,0,1,0,2.61-2.27A2.45,2.45,0,0,0,147.22,19.14Z"/><path class="cls-8" d="M156.58,11.44a2.57,2.57,0,1,0,2.16-2.92A2.56,2.56,0,0,0,156.58,11.44Z"/><path class="cls-8" d="M139.58,14a2.56,2.56,0,1,0,2.15-2.93A2.56,2.56,0,0,0,139.58,14Z"/><path class="cls-1" d="M159.34,12.5a1.46,1.46,0,1,0-1.66-1.23,1.46,1.46,0,0,0,1.66,1.23Z"/><path class="cls-1" d="M142.33,15a1.42,1.42,0,1,0-1.61-1.19A1.43,1.43,0,0,0,142.33,15Z"/><path class="cls-8" d="M142.31,13.46A8.12,8.12,0,0,0,158.36,11a8.12,8.12,0,0,0-16.05,2.43Z"/><path class="cls-1" d="M145.48,15s6.21,1.55,9.31-.81C154.88,18.52,147.24,20.56,145.48,15Z"/><path class="cls-11" d="M150.73,16.83a2.4,2.4,0,0,0-3,.65,4.34,4.34,0,0,0,2.54.54,5.18,5.18,0,0,0,2.8-1.08A2.31,2.31,0,0,0,150.73,16.83Z"/><path class="cls-1" d="M153.72,11c.09.56.45,1,.81.91s.6-.56.51-1.11-.45-1-.81-.92S153.64,10.45,153.72,11Z"/><path class="cls-1" d="M145.5,12.25c.08.56.45,1,.81.91s.59-.55.51-1.11-.45-1-.81-.91S145.42,11.69,145.5,12.25Z"/><path class="cls-12" d="M142.12,13.63a9.9,9.9,0,0,0-1.35-5.11c2.44-4.94,7.22-8.08,16-7.24-4.5.5-5.24,1.31-5.24,1.31s5.53-1.1,8,1.46c-3.83-1.4-5.25,0-5.25,0l3.64,2.38.47,4.25a6.18,6.18,0,0,0-3.74-4.18c-2.17,2.22-11.67,3.83-11.67,3.83C142.54,11.71,142.12,13.63,142.12,13.63Z"/><path class="cls-1" d="M151.92,13.63a8.14,8.14,0,0,1-2.07.25C150.81,15.2,151.92,13.63,151.92,13.63Z"/><rect class="cls-2" x="93.02" y="27.76" width="9.7" height="7.78" transform="translate(8.04 -18.46) rotate(11.23)"/><path class="cls-13" d="M105.56,21.93A8.53,8.53,0,0,0,111,19.45l-.07-.19a3.06,3.06,0,0,1,.24-1.72c.39-.67.14-1.13.57-1.16s.42,1.08.21,1.38a4.65,4.65,0,0,1,2.17-1.61c.51,0,.35.44-.25.76a4.65,4.65,0,0,0-1.1.91,6.87,6.87,0,0,1,1.93-1.1c.57,0,.52.49,0,.67a9.37,9.37,0,0,0-1.61,1.12,4.78,4.78,0,0,1,1.58-.73c.75-.13.7.46.2.59a9.5,9.5,0,0,0-1.63.86,4.09,4.09,0,0,1,1.8-.29c.72.15.42.63-.54.65a3.89,3.89,0,0,0-2,.55.84.84,0,0,1-.38.11,11,11,0,0,1-6.6,3.64S104.69,23.33,105.56,21.93Z"/><path class="cls-14" d="M107.21,21.28a11.14,11.14,0,0,1,.83,3.79,23.81,23.81,0,0,1-5.18.37L102.59,21S106,21.62,107.21,21.28Z"/><path class="cls-13" d="M93.35,19.15a8.45,8.45,0,0,1-4.14-4.29l.13-.15A3.15,3.15,0,0,0,89.75,13c-.12-.76.27-1.1-.11-1.28s-.79.85-.7,1.21a4.72,4.72,0,0,0-1.44-2.3c-.46-.2-.48.29,0,.8a4.35,4.35,0,0,1,.69,1.24A6.73,6.73,0,0,0,86.75,11c-.51-.25-.66.27-.26.62a9,9,0,0,1,1.09,1.62A4.75,4.75,0,0,0,86.38,12c-.65-.39-.82.17-.4.48a9.35,9.35,0,0,1,1.2,1.39,4.09,4.09,0,0,0-1.57-.92c-.72-.13-.62.43.27.8A3.73,3.73,0,0,1,87.53,15a1,1,0,0,0,.33.24A11,11,0,0,0,92.67,21S93.65,20.78,93.35,19.15Z"/><path class="cls-15" d="M94.84,15.2a1.23,1.23,0,1,1-.52-1.69A1.25,1.25,0,0,1,94.84,15.2Z"/><path class="cls-15" d="M93,15.31a1.26,1.26,0,0,1-1.68.56A1.26,1.26,0,1,1,93,15.31Z"/><path class="cls-15" d="M91,14.64c0,.7-1.31,1.26-2,1.27s-.73-2.52,0-2.53S91,13.94,91,14.64Z"/><path class="cls-14" d="M92.05,18a11.11,11.11,0,0,0-2.15,3.23,24.27,24.27,0,0,0,4.69,2.23l1.86-4S93.07,18.71,92.05,18Z"/><path class="cls-16" d="M103.66,30.17s-1,.59-5.91-.26-4.48-2-4.48-2l2.39-8.63,3.71-.12,3.44,1.32Z"/><path class="cls-2" d="M100.43,26.76a2.06,2.06,0,0,1-4.05-.7c.19-1.11,1.08-2.25,2.3-1.25C100.35,25.1,100.62,25.64,100.43,26.76Z"/><path class="cls-17" d="M97,26.23a2,2,0,0,1,.93-1.41,1.46,1.46,0,0,0-1.36,1.35,1.8,1.8,0,0,0,1.25,1.91A1.93,1.93,0,0,1,97,26.23Z"/><path class="cls-14" d="M98.68,24.81a2.3,2.3,0,0,0-1.41-1.43C96.77,24.52,98.68,24.81,98.68,24.81Z"/><path class="cls-14" d="M98.58,24.8a1.89,1.89,0,0,0,2.2-.26C100,23.57,98.58,24.8,98.58,24.8Z"/><path class="cls-14" d="M101.68,21.44c-.22,1.3-1.52,2.64-2.68.9-1.71,1.17-2.42-.44-2.19-1.73a2.47,2.47,0,0,1,4.87.83Z"/><path class="cls-13" d="M101.31,20.94C101.13,22,99,22.27,99,22.27s-1.86-1-1.68-2a2,2,0,0,1,4,.69Z"/><path class="cls-15" d="M108.77,18.23c-2,3.21-6.73,3.9-10.47,1.53s-5.11-6.91-3.07-10.13S102,5.73,105.7,8.11,110.81,15,108.77,18.23Z"/><path class="cls-15" d="M106.64,21.92a1.23,1.23,0,1,1-.53-1.69A1.25,1.25,0,0,1,106.64,21.92Z"/><path class="cls-15" d="M107.9,23.7a1.23,1.23,0,1,1-.53-1.69A1.25,1.25,0,0,1,107.9,23.7Z"/><path class="cls-15" d="M109,25.27c-.64-.23-2-1.22-1.76-1.88s2-.73,2.61-.51S109.68,25.5,109,25.27Z"/><path class="cls-13" d="M96.94,12.67a2,2,0,1,1-.62-2.79A2,2,0,0,1,96.94,12.67Z"/><path class="cls-13" d="M108.35,19.91a2,2,0,1,1-.62-2.78A2,2,0,0,1,108.35,19.91Z"/><path class="cls-18" d="M94.62,12.55a1.14,1.14,0,1,1,1.59-.35,1.16,1.16,0,0,1-1.59.35Z"/><path class="cls-18" d="M106.05,19.77a1.11,1.11,0,1,1,1.53-.34,1.12,1.12,0,0,1-1.53.34Z"/><path class="cls-13" d="M106.56,18.65A6.38,6.38,0,1,1,104.48,10,6.26,6.26,0,0,1,106.56,18.65Z"/><path class="cls-18" d="M99.6,15.72a6.14,6.14,0,0,0,1.41.84C99.89,17.2,99.6,15.72,99.6,15.72Z"/><path class="cls-18" d="M96.66,15s3.49,4.25,6.83,4.21C101.35,22.21,95,19.69,96.66,15Z"/><path class="cls-11" d="M99.35,18.91A2,2,0,0,0,97,17.84a3.69,3.69,0,0,0,1.48,1.67,4.37,4.37,0,0,0,2.48.69A2,2,0,0,0,99.35,18.91Z"/><path class="cls-18" d="M98.74,13.54c-.07.11-.32.07-.57-.09s-.38-.36-.32-.47.33-.07.57.08S98.81,13.43,98.74,13.54Z"/><path class="cls-18" d="M104.25,17c0,.09-.3,0-.54-.11s-.4-.36-.34-.45.3,0,.55.12S104.31,17,104.25,17Z"/><path class="cls-15" d="M104.65,9.69a6.35,6.35,0,0,0-7.29.26,28.54,28.54,0,0,0,3.48,3.19l2.55-3-2.17,3.31c.46.34,1,.68,1.46,1L104.52,11l-1.24,3.83a17.32,17.32,0,0,0,4.17,1.88A6.34,6.34,0,0,0,104.65,9.69Z"/><path class="cls-8" d="M51.71,9a5.45,5.45,0,0,0-2,1.45,12.93,12.93,0,0,1,1.39-2c.51-.47.2-1.2-.6-.58a6.28,6.28,0,0,0-1.42,1.85,12.19,12.19,0,0,1,1.21-2.34c.48-.52.2-1.2-.44-.79A9.09,9.09,0,0,0,48.31,9,5.83,5.83,0,0,1,49,7.28c.5-.75.41-1.4-.18-1.07s-1.3,2-1.56,3.28C47.37,9,46.68,7.68,46.19,8s.09.7,0,1.74a4.29,4.29,0,0,0,.8,2.2l.19.19a11.94,11.94,0,0,1-1.72,3.44A13,13,0,0,0,42.33,15c.32.27.59,1.64,1.21,2.22.19-.25,3,.66,3.18.38a18.18,18.18,0,0,0,2.35-5.22,1.12,1.12,0,0,0,.39-.36,5.09,5.09,0,0,1,2-1.91C52.59,9.46,52.65,8.69,51.71,9Z"/><path class="cls-19" d="M43.56,14.81a2.22,2.22,0,0,0,1,0s.1,3.2-.21,3.33c-.51-.2-.81-.29-.81-.29a3.22,3.22,0,0,1-4.07,0l-.65-4.25S42.63,12.11,43.56,14.81Z"/><path class="cls-20" d="M44.59,14.83s.1,3.2-.21,3.33c-.51-.2-.81-.29-.81-.29l0,0c-.07-1,0-2.67,0-3.09A2.11,2.11,0,0,0,44.59,14.83Z"/><path class="cls-8" d="M17.68,16.72a5.42,5.42,0,0,1,2.38.51A12.77,12.77,0,0,0,18,16c-.67-.21-.68-1,.3-.78a6.33,6.33,0,0,1,2.06,1.09,11.9,11.9,0,0,0-2.07-1.61c-.65-.28-.68-1,.07-.9a8.86,8.86,0,0,1,2.49,1.61,5.77,5.77,0,0,0-1.4-1.3c-.77-.47-.95-1.1-.28-1s2,1.27,2.78,2.33c-.26-.42-.18-1.91.39-1.84s.2.67.68,1.59a4.32,4.32,0,0,1,.19,2.34l-.1.25a12.31,12.31,0,0,0,3,2.41,13,13,0,0,1,2.65-1.85c-.19.38.14,1.74-.18,2.53-.28-.16-2.46,1.85-2.73,1.67a18.25,18.25,0,0,1-4.31-3.77,1.14,1.14,0,0,1-.51-.17,5.11,5.11,0,0,0-2.62-.89C17.08,17.53,16.71,16.86,17.68,16.72Z"/><path class="cls-19" d="M27.52,18.64a2.07,2.07,0,0,1-.92.44s1.24,3,1.57,3c.38-.4.62-.61.62-.61a3.21,3.21,0,0,0,3.71-1.65l-1.17-4.14S27.24,15.8,27.52,18.64Z"/><path class="cls-19" d="M40,21.69l3.26,3.84s-1.2,2-5.52,1.92c-4.13-.07-5.53.61-5.53.61l.35-5.47-1.46-7.36,3.76-1.49,3.69-.68Z"/><path class="cls-20" d="M39.93,17.75l0,0a11.35,11.35,0,0,1-1.07-4.82,1.49,1.49,0,0,0-.24-.14q-.18.15-.36.33l-.48.09c.47,1.32,1.57,4,1.11,5.76a13.36,13.36,0,0,0-5.63,1,31.38,31.38,0,0,1-1.22-4.73l-1,.56s2,3.47,1.35,6.49l.06.32-2.19,4.85s2.18-.89,7.71-.68a7.46,7.46,0,0,0,6.39-3L41,21.3Z"/><path class="cls-20" d="M38.05,15.22c.25,1.41-.82,2.39-2.45,1.94a1.63,1.63,0,0,1-2.85-1,2.69,2.69,0,0,1,5.3-.93Z"/><path class="cls-8" d="M37.33,14.49c.21,1.15-1.76,2.61-1.76,2.61s-2.36-.69-2.57-1.85a2.2,2.2,0,0,1,4.33-.76Z"/><path class="cls-8" d="M27.64,11A2.2,2.2,0,1,1,24.93,9.5,2.2,2.2,0,0,1,27.64,11Z"/><path class="cls-8" d="M41.82,7.08a2.2,2.2,0,1,1-2.71-1.53A2.18,2.18,0,0,1,41.82,7.08Z"/><path class="cls-21" d="M25.86,12.82a1.25,1.25,0,1,1,.87-1.54,1.25,1.25,0,0,1-.87,1.54Z"/><path class="cls-21" d="M40,8.83a1.21,1.21,0,1,1,.84-1.49A1.21,1.21,0,0,1,40,8.83Z"/><path class="cls-8" d="M39.5,7.6a7,7,0,0,1-13.4,3.73A7,7,0,0,1,39.5,7.6Z"/><path class="cls-1" d="M32.05,11.1a6.81,6.81,0,0,0,1.71-.53C33.47,11.94,32.05,11.1,32.05,11.1Z"/><path class="cls-1" d="M29.3,12.94s6,.27,8.4-2.46C38.58,14.41,31.94,17.7,29.3,12.94Z"/><path class="cls-11" d="M34.45,13.62a2.23,2.23,0,0,0-2.6,1.15,4.06,4.06,0,0,0,2.42,0,4.83,4.83,0,0,0,2.37-1.51A2.16,2.16,0,0,0,34.45,13.62Z"/><path class="cls-22" d="M26.39,11.92a11.5,11.5,0,0,1,2.7-6.48c3.13,3.34,6-.43,10.62,2.23-.64-1.1-1.13-2-1.13-2a2.4,2.4,0,0,1,3.1,1.18c1,2-2,3-2,3a16.36,16.36,0,0,1-1.19,3.43c.45.64,5.38-2.33,6.51-4.48C43.07,4,33.59-3.08,28.72,1.45c-3.65.09-9.16,10.39-3.56,15.64,2.21,1.55,4.12-1.73,4.12-1.73a7.94,7.94,0,0,1-2.2-2.06c-1.56.61-3.26.41-3.61-1.58s1.77-2.26,2.34-2.2A7.33,7.33,0,0,0,26.39,11.92Z"/><path class="cls-1" d="M29.72,9.68c.13.47,0,.92-.31,1s-.66-.22-.79-.69,0-.91.31-1S29.59,9.22,29.72,9.68Z"/><path class="cls-1" d="M36.58,7.77c.13.47,0,.92-.31,1s-.66-.22-.79-.69,0-.91.31-1S36.45,7.31,36.58,7.77Z"/><path class="cls-22" d="M31.06,4.63s-3.43.09-2.14,2.55,3.2,2.54,2.23,4C32.45,9.43,32,7.86,30,6.8S31.06,4.63,31.06,4.63Z"/><path class="cls-20" d="M26.6,19.08s1.24,3,1.57,3c.38-.4.62-.61.62-.61l.06,0a29.33,29.33,0,0,0-1.34-2.79A2.05,2.05,0,0,1,26.6,19.08Z"/><path class="cls-23" d="M267.21,31.59s.35,1.9-2.42-.17-.11-4.62-.11-4.62a20.27,20.27,0,0,1,2.19,1.71C266.82,28.64,267.21,31.59,267.21,31.59Z"/><path class="cls-24" d="M272.59,18s4.8,2,3.62,7.05c-.33-4-2.18-4.73-2.18-4.73s3,2.63.91,7.5c.09-4.66-5.56-7.6-5.56-7.6Z"/><path class="cls-25" d="M245.07,20.7a5.57,5.57,0,0,1,3.09-1c-.44,0-1.51-.77-1.19-1.17s.6.16,1.52.25a3.26,3.26,0,0,1,1.57.76,13.23,13.23,0,0,1,8.48-1.39s.74.95-.79,2.21a10.08,10.08,0,0,0-7,.71,1.61,1.61,0,0,1-.69.85,4.57,4.57,0,0,0-1.93,1.54c-.69.92-1.37.87-1,.07A5,5,0,0,1,248.66,22a11.05,11.05,0,0,0-2,1c-.48.4-1.08,0-.43-.6a5.49,5.49,0,0,1,1.81-1,11.25,11.25,0,0,0-2.21.78c-.52.36-1.08,0-.64-.48a8,8,0,0,1,2.41-1.1A5.27,5.27,0,0,0,246,21C245.27,21.34,244.71,21.17,245.07,20.7Z"/><path class="cls-26" d="M263.06,17.37l.72,4c-2.91-2.12-11.32-.27-11.32-.27s-1.6-1.31-1-2.87C254.92,17,263.06,17.37,263.06,17.37Z"/><path class="cls-23" d="M253.67,24.44s-.81,1.46,2.34,1.95.47-2.22.47-2.22Z"/><path class="cls-27" d="M254.32,26.57s2.42-2.05,6.73,0,3.25,4.63,3.25,4.63L268,20.78l-2.43-2.35-4.26-1.12Z"/><path class="cls-28" d="M260.58,25.42c-.6-.29-1.26-1.12-.47-1.69,1-.7.83.81.85,1.29.32-.46,1.93-1.12,2-.12.07.65-1,1.11-1.49,1a.88.88,0,0,1,.94,1.05c-.19,1.14-1.13,0-1.35-.35-.26.49-.74,1.37-1.47,1s.44-1.08.81-1.34c-.24-.09-1-.22-1.16-.46-.43-.75.88-.58,1.21-.53Z"/><path class="cls-27" d="M260.52,25.57a.47.47,0,1,0,.6-.28A.47.47,0,0,0,260.52,25.57Z"/><path class="cls-28" d="M264.11,25.35c-.3-.15-.64-.57-.24-.86s.42.41.43.65c.17-.23,1-.56,1-.06,0,.33-.5.56-.75.49a.45.45,0,0,1,.48.53c-.1.57-.57,0-.68-.18-.13.25-.38.69-.74.51s.22-.54.4-.67c-.12,0-.51-.11-.58-.23-.21-.38.44-.29.61-.27Z"/><path class="cls-27" d="M264.08,25.42a.24.24,0,1,0,.45.17.24.24,0,0,0-.14-.31A.24.24,0,0,0,264.08,25.42Z"/><path class="cls-26" d="M262.59,17.18s-4.18,5.21-5.13,9.3a6.15,6.15,0,0,0-3.79-2s7.31-7,8.22-7.47S262.59,17.18,262.59,17.18Z"/><path class="cls-26" d="M268.66,20.54a7.27,7.27,0,0,1,.92,1.53c-1,2.36-2.27,5.36-2,7.53s-.48,2.59-.48,2.59a3.51,3.51,0,0,0-3.39-2.83c2.42-3.45,4.36-9.75,4.36-9.75Z"/><path class="cls-25" d="M275.32,24.48a12.32,12.32,0,0,0,2.26-.61c.32-.89.68-1.7,1.2-1.91s.56-.68,1-.66-.2,1.12-.6,1.48c-.09.45.55.28.79.06s1.94-1.19,2.15-.95-.9,1.29-1.88,1.78c1.64-.61,2.46-1.29,2.72-1s-2,1.62-2,1.62,1.7-.81,1.87-.39-2,1.26-2,1.26,1.4-.5,1.57-.1-2.15.85-2.91.8a3.76,3.76,0,0,1-1.41-.39l-2.54.66Z"/><path class="cls-26" d="M269.45,21.77s1.09,3.13,6.2,2a4.93,4.93,0,0,1,.66,2.59s-5.61,1.22-8-1.15C267.85,22.5,269.45,21.77,269.45,21.77Z"/><path class="cls-26" d="M261.77,19c-.68,1.42-.36,3.62,2,2.75.84,2.33,2.64,1.26,3.33-.16A3,3,0,0,0,261.77,19Z"/><path class="cls-25" d="M262.49,18.79c-.56,1.16,1.3,2.9,1.3,2.9s2.47.37,3-.78a2.41,2.41,0,0,0-4.33-2.12Z"/><path class="cls-25" d="M271.81,15.36a2.41,2.41,0,1,0,3.1-1.41A2.4,2.4,0,0,0,271.81,15.36Z"/><path class="cls-25" d="M257.87,10a2.41,2.41,0,1,0,3.1-1.4A2.41,2.41,0,0,0,257.87,10Z"/><path class="cls-5" d="M273.58,17.49a1.37,1.37,0,0,0,1-2.56,1.37,1.37,0,1,0-1,2.56Z"/><path class="cls-5" d="M259.65,12.12a1.33,1.33,0,1,0-.77-1.7,1.32,1.32,0,0,0,.77,1.7Z"/><path class="cls-25" d="M260.35,10.83a7.63,7.63,0,0,0,14.27,5.36,7.63,7.63,0,0,0-14.27-5.36Z"/><path class="cls-5" d="M262.39,14.26s4.58,4.17,8.31,3.57C268.81,21.55,261.35,19.78,262.39,14.26Z"/><path class="cls-7" d="M266,18.2a2.33,2.33,0,0,0-2.83-.81A4.22,4.22,0,0,0,265.12,19a5,5,0,0,0,2.88.36A2.23,2.23,0,0,0,266,18.2Z"/><path class="cls-5" d="M268.15,15.37a7.73,7.73,0,0,1-1.82-.74C266.52,16.16,268.15,15.37,268.15,15.37Z"/><path class="cls-5" d="M270.41,14.41a.64.64,0,1,0,1.17.44.71.71,0,0,0-.31-1A.72.72,0,0,0,270.41,14.41Z"/><path class="cls-5" d="M264.46,12a.69.69,0,0,0,.32.93.78.78,0,1,0-.32-.93Z"/><path class="cls-24" d="M271.59,5.64c3.07,1.15,7.29,7.29,1.06,13.52,1.73-3.54-.84-9.52-.84-9.52s-.71,1-10.48.22C260.66,11,260,12.43,260,12.43S261.33,1.76,271.59,5.64Z"/><path class="cls-29" d="M24.15,39.57a26.15,26.15,0,0,1-2.85,12.2c-2.1,4-4.7,5.94-7.77,5.94q-2.59,0-5.31-4.11v8.09A6,6,0,0,0,9,64.28a5.9,5.9,0,0,1,.82,2.41A2.68,2.68,0,0,1,9.54,68c-.88,1.9-2.61,2.84-5.18,2.84C2.25,70.79,1,70,.44,68.52a4.57,4.57,0,0,1-.25-1.46A6.11,6.11,0,0,1,.6,65.2a6.29,6.29,0,0,0,.41-2v-36a3.94,3.94,0,0,0-.5-1.68A3.71,3.71,0,0,1,0,24a2.63,2.63,0,0,1,.25-1.07Q1,21.11,4.93,21.11c1.64,0,2.74.34,3.29,1a1.43,1.43,0,0,1,.31.95,5,5,0,0,1-.31,1.39,8,8,0,0,0-.38,1.45c1.94-2.78,4.21-4.17,6.83-4.17q5.24,0,7.64,5.94A32.44,32.44,0,0,1,24.15,39.57Zm-8,0a67.67,67.67,0,0,0-.25-7.65c-.42-2.74-1.48-4.11-3.16-4.11-1,0-1.85,1.32-2.62,4A27.4,27.4,0,0,0,9,39.57a22.72,22.72,0,0,0,1.26,6.82c.84,2.78,1.69,4.18,2.53,4.18q1.52,0,2.53-3.86A27.88,27.88,0,0,0,16.18,39.57Z"/><path class="cls-29" d="M52.28,50.38a10.47,10.47,0,0,1-3.42,5.12c-.29.46-1.45,1.07-3.47,1.83a14.44,14.44,0,0,1-6,1.14q-4.74-.31-7.46-5.44A25,25,0,0,1,29.46,41.4a29.16,29.16,0,0,1,2.78-13.09q3.09-6.19,8.28-6.95a16.67,16.67,0,0,1,2-.13q7.52,0,8.28,9.23.38,4.24-3.35,9.23A21.33,21.33,0,0,1,37,47.4a20.63,20.63,0,0,0,1.08,3.29,2.67,2.67,0,0,0,2.4,1.58,5.53,5.53,0,0,0,3.1-1.14,6.13,6.13,0,0,0,1.89-1.83c.17-.08.34-.56.51-1.42A2.55,2.55,0,0,1,47.35,46a2,2,0,0,1,.88-.19,4.12,4.12,0,0,1,2.94,1.49A3.38,3.38,0,0,1,52.28,50.38ZM42.35,28.12c-1.68,0-3.05,1.21-4.11,3.61a19.49,19.49,0,0,0-1.7,9.48A11.3,11.3,0,0,0,42,36.78c1.68-2.31,2.52-4.38,2.52-6.19C44.56,29,43.83,28.12,42.35,28.12Z"/><path class="cls-29" d="M79.65,50.38a10.47,10.47,0,0,1-3.42,5.12c-.29.46-1.45,1.07-3.47,1.83a14.44,14.44,0,0,1-6,1.14Q62,58.16,59.29,53A25,25,0,0,1,56.83,41.4a29.16,29.16,0,0,1,2.78-13.09q3.09-6.19,8.28-6.95a16.67,16.67,0,0,1,2-.13q7.52,0,8.28,9.23.38,4.24-3.35,9.23A21.33,21.33,0,0,1,64.41,47.4a21.76,21.76,0,0,0,1.08,3.29,2.67,2.67,0,0,0,2.4,1.58A5.53,5.53,0,0,0,71,51.13a6,6,0,0,0,1.89-1.83c.17-.08.34-.56.51-1.42A2.55,2.55,0,0,1,74.72,46a2,2,0,0,1,.88-.19,4.12,4.12,0,0,1,2.94,1.49A3.38,3.38,0,0,1,79.65,50.38ZM69.72,28.12c-1.68,0-3,1.21-4.11,3.61a19.49,19.49,0,0,0-1.7,9.48,11.3,11.3,0,0,0,5.5-4.43c1.68-2.31,2.53-4.38,2.53-6.19C71.94,29,71.2,28.12,69.72,28.12Z"/><path class="cls-29" d="M114.41,52.08a5.34,5.34,0,0,1,.07.89c0,2.53-1.42,4.23-4.24,5.12a5,5,0,0,1-1.45.25,2.78,2.78,0,0,1-2.09-1.07,14.31,14.31,0,0,0-1.77-1.77l-11.38-8v5.31a3.94,3.94,0,0,0,.35,1.42,3.94,3.94,0,0,1,.35,1.3,2.18,2.18,0,0,1-.7,1.45A6,6,0,0,1,89,58.66c-1.89,0-3.12-.63-3.66-1.9a3.39,3.39,0,0,1-.26-1.83,18.4,18.4,0,0,0,.26-2.22V11.12a18.56,18.56,0,0,1,.25-3.41c.38-.93,1.54-1.39,3.48-1.39,2.52,0,4.15.46,4.86,1.39a2.66,2.66,0,0,1,.57,1.64A8.06,8.06,0,0,1,94,11.5a7.84,7.84,0,0,0-.48,2.28q-.12,3.66,0,20.67,3.54-3.42,9.11-8.92a16.58,16.58,0,0,0,2-2.71,3.34,3.34,0,0,1,2.08-1.52,2.69,2.69,0,0,1,.89-.13,6.51,6.51,0,0,1,3.76,1.39,3.83,3.83,0,0,1,1.93,3A3.48,3.48,0,0,1,112,27.68c-.84.85-1.68,1.65-2.53,2.4L99,41l11.25,8.09a23.21,23.21,0,0,0,2.53,1A2.51,2.51,0,0,1,114.41,52.08Z"/><path class="cls-29" d="M129.84,38.05a1.8,1.8,0,0,1-1.2.44,9,9,0,0,1-1.46-.25,3.6,3.6,0,0,0-1.77-.06l-6.82,1.64a11.52,11.52,0,0,0-2,.76,5,5,0,0,1-1.77.44,3.52,3.52,0,0,1-2.78-1.45,4.68,4.68,0,0,1-1.21-3,3.23,3.23,0,0,1,.76-2.15,4,4,0,0,1,2-.25,12.08,12.08,0,0,0,3-.25l7.21-1.9a21.91,21.91,0,0,1,3.48-.76,2.8,2.8,0,0,1,1.45.38q2,1.14,2,4.17A2.82,2.82,0,0,1,129.84,38.05Z"/><path class="cls-29" d="M160.69,54.36c-.64,2.06-2.19,3.1-4.68,3.1a3.93,3.93,0,0,1-2-.45,4.13,4.13,0,0,1-1.4-2.78,40.38,40.38,0,0,0-1.51-5.62q-.2,3.47-3.79,7c-2.41,2.38-4.83,3.58-7.27,3.58q-4.62,0-6.39-6.14A16,16,0,0,1,133,48.8q0-5.88,6-10.06,4.94-2.9,9.93-5.75a9,9,0,0,0,.25-2.08c0-1.31-.36-2.08-1.07-2.31a6.24,6.24,0,0,0-1.84-.35,3,3,0,0,0-2.18.85l-1.61,1.62a8.58,8.58,0,0,0-2,2.34,3,3,0,0,1-2.08,1.58,3.55,3.55,0,0,1-3-1.14,4.27,4.27,0,0,1-1.32-3.1,3.38,3.38,0,0,1,.5-1.83A12.61,12.61,0,0,1,139,24.4a21.11,21.11,0,0,1,11.07-2.66,5.79,5.79,0,0,1,5.81,4.05c.68,1.81,1.18,5.2,1.52,10.17a111.8,111.8,0,0,0,1.39,13.21,5,5,0,0,0,1.08,2.09,3.89,3.89,0,0,1,.94,2.21A3.41,3.41,0,0,1,160.69,54.36Zm-11-15.55c-1.27.67-2.52,1.37-3.76,2.08a13.93,13.93,0,0,0-3.45,2.85c-1.52,1.73-2.27,3.2-2.27,4.42a5.55,5.55,0,0,0,1.13,3.16,1.76,1.76,0,0,0,1.39.89q1.65,0,3.58-3.67A42.94,42.94,0,0,0,149.69,38.81Z"/><path class="cls-29" d="M182.31,38.05a1.8,1.8,0,0,1-1.21.44,8.93,8.93,0,0,1-1.45-.25,3.6,3.6,0,0,0-1.77-.06l-6.83,1.64a11.85,11.85,0,0,0-2,.76,4.93,4.93,0,0,1-1.77.44,3.53,3.53,0,0,1-2.78-1.45,4.72,4.72,0,0,1-1.2-3,3.18,3.18,0,0,1,.76-2.15,4,4,0,0,1,2-.25,12.08,12.08,0,0,0,3-.25l7.21-1.9a21.66,21.66,0,0,1,3.47-.76,2.81,2.81,0,0,1,1.46.38c1.3.76,2,2.15,2,4.17A2.85,2.85,0,0,1,182.31,38.05Z"/><path class="cls-29" d="M211,40a32.16,32.16,0,0,1-1.83,11.82q-2.4,5.94-7.65,5.94c-2.61,0-4.89-1.37-6.82-4.11a7.83,7.83,0,0,0,.37,1.45,5.18,5.18,0,0,1,.32,1.39,1.21,1.21,0,0,1-.32.89c-.54.67-1.64,1-3.28,1-2.62,0-4.17-.57-4.68-1.71a2.59,2.59,0,0,1-.25-1.07,3.67,3.67,0,0,1,.5-1.61,3.8,3.8,0,0,0,.51-1.68v-36a6.29,6.29,0,0,0-.41-2,5.82,5.82,0,0,1-.41-1.87,4.56,4.56,0,0,1,.25-1.45q.75-2.28,3.92-2.28,3.85,0,5.18,2.85a2.8,2.8,0,0,1,.32,1.26,6.06,6.06,0,0,1-.82,2.41,6,6,0,0,0-.83,2.59v8.15q2.73-4.17,5.31-4.17,4.62,0,7.78,6A26.08,26.08,0,0,1,211,40Zm-8.34,0a33,33,0,0,0-.7-7.15q-.89-3.85-2.33-3.85-1.27,0-2.53,4.17A22.52,22.52,0,0,0,195.83,40,26.34,26.34,0,0,0,197,47.59q1.2,4.11,2.66,4.11,3.09,0,3.09-7.14V42.22C202.68,41.17,202.66,40.41,202.66,40Z"/><path class="cls-29" d="M236.1,24.4q4.23,4.29,4.23,14.47a28.27,28.27,0,0,1-3,13.47q-3.35,6.25-9.23,6.25c-3.87,0-6.87-1.87-9-5.62q-2.79-4.94-2.78-12.52a31.66,31.66,0,0,1,2.15-12q2.26-5.69,5.81-6.7a14.09,14.09,0,0,1,3.79-.51A10.67,10.67,0,0,1,236.1,24.4Zm-7.21,3q-2.08-.2-3.6,3.92A23.1,23.1,0,0,0,224,39.19a47.22,47.22,0,0,0,.51,8.4c.59,2.95,1.81,4.58,3.66,4.87q1.77.26,3.29-4.87A37.05,37.05,0,0,0,232.88,37Q232.88,27.82,228.89,27.43Z"/><path class="cls-29" d="M265.43,24.4q4.23,4.29,4.23,14.47a28.27,28.27,0,0,1-3,13.47q-3.35,6.25-9.23,6.25c-3.87,0-6.87-1.87-9-5.62Q245.7,48,245.71,40.45a31.66,31.66,0,0,1,2.15-12q2.26-5.69,5.81-6.7a14.09,14.09,0,0,1,3.79-.51A10.67,10.67,0,0,1,265.43,24.4Zm-7.21,3q-2.09-.2-3.6,3.92a23.1,23.1,0,0,0-1.33,7.84,47.22,47.22,0,0,0,.51,8.4c.59,2.95,1.81,4.58,3.66,4.87q1.77.26,3.29-4.87A37.05,37.05,0,0,0,262.21,37Q262.21,27.82,258.22,27.43Z"/><polygon class="cls-30" points="224.27 48.05 220.73 48.01 220.73 34.01 224.05 34.05 224.27 48.05"/><path class="cls-31" d="M25.17,59.52a2.67,2.67,0,0,1,.39,1.53c0,1.51-.82,3.84-2.47,7-1.71,3.31-3.12,5-4.21,5a.67.67,0,0,1-.62-.47A12.37,12.37,0,0,0,18.18,74c0,1,.06,2.23.18,3.59a2.11,2.11,0,0,0,.13.59,2.24,2.24,0,0,1,.13.63c0,.33-.22.61-.67.83a2,2,0,0,1-.84.16,3.45,3.45,0,0,1-1.61-.39,1.61,1.61,0,0,1-1-1.1c0-.12,0-.22,0-.31a1.07,1.07,0,0,1,.27-.71c.18-.22.27-.36.27-.43L14.57,60a1.37,1.37,0,0,0-.08-.31,1.37,1.37,0,0,1-.08-.37c0-.31.22-.55.68-.72a2.86,2.86,0,0,1,1.09-.21c.12,0,.6,0,1.45.15A10.1,10.1,0,0,0,19.18,58a6.6,6.6,0,0,1,2.46-.56A4.24,4.24,0,0,1,25.17,59.52Zm-3.87,1a3.11,3.11,0,0,0-1.6.66A8.59,8.59,0,0,0,18,62.74l.1,6a10.35,10.35,0,0,0,2.48-3.44,9.57,9.57,0,0,0,1.34-3.94C21.92,60.82,21.72,60.56,21.3,60.56Z"/><path class="cls-31" d="M35,76.45a4.26,4.26,0,0,1-1.41,2.1,3.56,3.56,0,0,1-1.43.76,5.75,5.75,0,0,1-2.47.46,3.67,3.67,0,0,1-3.06-2.23,10.25,10.25,0,0,1-1-4.79,11.93,11.93,0,0,1,1.15-5.38,4.6,4.6,0,0,1,3.4-2.86,7.65,7.65,0,0,1,.81-.05c2.06,0,3.2,1.27,3.4,3.8A5.59,5.59,0,0,1,33,72.05a8.73,8.73,0,0,1-4.27,3.17,9.76,9.76,0,0,0,.44,1.36,1.13,1.13,0,0,0,1,.65,2.33,2.33,0,0,0,1.28-.47,2.46,2.46,0,0,0,.78-.76c.06,0,.13-.22.2-.58a1.07,1.07,0,0,1,.55-.77.8.8,0,0,1,.36-.08,1.69,1.69,0,0,1,1.21.62A1.4,1.4,0,0,1,35,76.45ZM31,67.29c-.7,0-1.26.5-1.69,1.49a8,8,0,0,0-.71,3.9,4.68,4.68,0,0,0,2.27-1.82,4.58,4.58,0,0,0,1-2.55C31.86,67.63,31.55,67.29,31,67.29Z"/><path class="cls-31" d="M47.74,79c-.21.47-.85.7-1.92.7a1.75,1.75,0,0,1-1.36-.41.54.54,0,0,1-.13-.37,2.35,2.35,0,0,1,.13-.57,3.42,3.42,0,0,0,.16-.6,3.41,3.41,0,0,1-2.81,1.69c-1.44,0-2.48-.81-3.14-2.44a13,13,0,0,1-.76-4.86,10.76,10.76,0,0,1,1.17-5c.87-1.65,1.94-2.47,3.2-2.47.71,0,1.44.57,2.18,1.71V63A2.54,2.54,0,0,0,44.13,62a2.35,2.35,0,0,1-.34-1,1.08,1.08,0,0,1,.13-.52,2.11,2.11,0,0,1,2.13-1.17c.87,0,1.41.31,1.61.93a1.91,1.91,0,0,1,.11.6,2.57,2.57,0,0,1-.17.77,2.61,2.61,0,0,0-.17.82V77.23a1.57,1.57,0,0,0,.21.69,1.46,1.46,0,0,1,.21.66A1.1,1.1,0,0,1,47.74,79Zm-3.59-6.86a9.71,9.71,0,0,0-.49-2.81c-.37-1.15-.72-1.72-1.07-1.72s-.72.53-1,1.59a13.78,13.78,0,0,0-.28,2.94q0,.28,0,.93v1c0,2,.42,2.94,1.27,2.94.4,0,.77-.56,1.1-1.69A11,11,0,0,0,44.15,72.16Z"/><path class="cls-31" d="M55.18,66a2.87,2.87,0,0,1-.41,1.13,3,3,0,0,0-.4,1.26v7.65a5.7,5.7,0,0,0,.29,1.47,5.44,5.44,0,0,1,.28,1.31.86.86,0,0,1-.41.78,2.55,2.55,0,0,1-1.41.41,1.51,1.51,0,0,1-1.4-.67c-.36-.56-.55-2.21-.55-5,0-.66,0-1.68,0-3.08s0-2.41,0-3a6.23,6.23,0,0,0-.08-1,7.18,7.18,0,0,1-.07-.85A2,2,0,0,1,51.72,65a1.36,1.36,0,0,1,1-.26,4.5,4.5,0,0,1,1.4.22,1.73,1.73,0,0,1,.9.51A1,1,0,0,1,55.18,66Zm-.34-6.34a.37.37,0,0,1,.08.26,3.37,3.37,0,0,1-.16.8c-.12.47-.2.79-.23,1a4.47,4.47,0,0,0,0,1.15.72.72,0,0,1-.33.71,1.65,1.65,0,0,1-.81.17A3.87,3.87,0,0,1,52,63.45c-.59-.25-.89-.57-.89-1a1.17,1.17,0,0,1,.16-.5,2.11,2.11,0,0,0,.18-.54,5.44,5.44,0,0,0,0-1,.93.93,0,0,1,.26-.88,2.56,2.56,0,0,1,1.48-.31A2.25,2.25,0,0,1,54.84,59.68Z"/><path class="cls-31" d="M69.32,78.08a1.78,1.78,0,0,1-1.92,1.28,1.62,1.62,0,0,1-.83-.18A1.74,1.74,0,0,1,66,78a15.17,15.17,0,0,0-.62-2.31,4.55,4.55,0,0,1-1.56,2.9,4.32,4.32,0,0,1-3,1.47c-1.27,0-2.14-.84-2.63-2.53a6.7,6.7,0,0,1-.26-1.76,5,5,0,0,1,2.47-4.14c1.36-.8,2.72-1.58,4.09-2.36a4.37,4.37,0,0,0,.1-.86c0-.54-.15-.86-.44-1a2.42,2.42,0,0,0-.76-.14,1.18,1.18,0,0,0-.89.35l-.67.66a3.83,3.83,0,0,0-.8,1,1.23,1.23,0,0,1-.86.65A1.42,1.42,0,0,1,59,69.5a1.71,1.71,0,0,1-.55-1.27,1.37,1.37,0,0,1,.21-.75,5.29,5.29,0,0,1,1.79-1.72A8.71,8.71,0,0,1,65,64.67a2.39,2.39,0,0,1,2.4,1.66A17.88,17.88,0,0,1,68,70.52,48.18,48.18,0,0,0,68.54,76a2.17,2.17,0,0,0,.44.86,1.61,1.61,0,0,1,.39.91A1.12,1.12,0,0,1,69.32,78.08ZM64.8,71.69c-.52.28-1,.56-1.55.86a5.71,5.71,0,0,0-1.42,1.17,3,3,0,0,0-.93,1.82,2.26,2.26,0,0,0,.47,1.3.71.71,0,0,0,.57.36c.45,0,.94-.5,1.47-1.51A17.49,17.49,0,0,0,64.8,71.69Z"/><path class="cls-31" d="M80.42,67.37a1.92,1.92,0,0,1-.65-.17A2.15,2.15,0,0,0,79.1,67a1,1,0,0,0-.37.08l-1,.5V76.5a2.5,2.5,0,0,0,.53,1.27A1.73,1.73,0,0,1,78.73,79a1.37,1.37,0,0,1-.76.91,2.84,2.84,0,0,1-1.37.34,1.9,1.9,0,0,1-1.9-1.22,10,10,0,0,1-.18-2.32c0-.86,0-2.22,0-4,0-2.08,0-3.4,0-4a2.43,2.43,0,0,0-.52.36,1.14,1.14,0,0,1-.73.29,2.42,2.42,0,0,1-.73-.15c-1.21-.42-1.82-.84-1.82-1.28a.88.88,0,0,1,.08-.33.76.76,0,0,1,.68-.47,4.63,4.63,0,0,0,.91-.18,23.35,23.35,0,0,0,2.18-1.12V63.58a2.39,2.39,0,0,0-.14-.69,2.11,2.11,0,0,1-.14-.64.78.78,0,0,1,.13-.44,2.05,2.05,0,0,1,1.82-1,1.93,1.93,0,0,1,1.87,1,1.61,1.61,0,0,1,.21.67,1,1,0,0,1-.32.65,1,1,0,0,0-.31.63V65a4.4,4.4,0,0,0,1-.7,1.32,1.32,0,0,1,.76-.36.76.76,0,0,1,.28,0,1.92,1.92,0,0,1,1.64,2,1.64,1.64,0,0,1-.3.94A.88.88,0,0,1,80.42,67.37Z"/><path class="cls-31" d="M94.44,65.92q-.1.54-1,.75a2.6,2.6,0,0,0-1.33.6l-4.24,4.89v4a2.36,2.36,0,0,0,.33,1.16,2,2,0,0,1,.32.89,1.69,1.69,0,0,1-.18.7,1.75,1.75,0,0,1-1.79,1,1.89,1.89,0,0,1-1.48-.6,1.34,1.34,0,0,1-.37-1c0-.14,0-.37.05-.68a6.14,6.14,0,0,0,.06-.75V67.11a1.18,1.18,0,0,0-.21-.57A1.12,1.12,0,0,1,84.4,66a.82.82,0,0,1,.1-.36c.23-.42.93-.62,2.11-.62.92,0,1.44.21,1.56.65a1.65,1.65,0,0,1,.08.44.51.51,0,0,1-.21.44.42.42,0,0,0-.21.31l0,.94,2.24-2.37c.26-.29.53-.59.82-.88a1.58,1.58,0,0,1,1-.5,2.87,2.87,0,0,1,1.7.39,1.39,1.39,0,0,1,.82,1.23A2.46,2.46,0,0,1,94.44,65.92Z"/><path class="cls-31" d="M101.2,66a2.87,2.87,0,0,1-.41,1.13,2.85,2.85,0,0,0-.4,1.26v7.65a5.7,5.7,0,0,0,.29,1.47,5.44,5.44,0,0,1,.28,1.31.86.86,0,0,1-.41.78,2.57,2.57,0,0,1-1.41.41,1.5,1.5,0,0,1-1.4-.67c-.37-.56-.55-2.21-.55-5,0-.66,0-1.68,0-3.08s0-2.41,0-3a7.86,7.86,0,0,0-.08-1,7.79,7.79,0,0,1-.08-.85A2,2,0,0,1,97.74,65a1.36,1.36,0,0,1,1-.26,4.5,4.5,0,0,1,1.4.22,1.73,1.73,0,0,1,.9.51A1,1,0,0,1,101.2,66Zm-.34-6.34a.37.37,0,0,1,.08.26,4,4,0,0,1-.16.8c-.12.47-.2.79-.23,1a4.47,4.47,0,0,0,0,1.15.72.72,0,0,1-.33.71,1.66,1.66,0,0,1-.82.17A4,4,0,0,1,98,63.45c-.59-.25-.88-.57-.88-1a1.17,1.17,0,0,1,.16-.5,2.11,2.11,0,0,0,.18-.54,5.44,5.44,0,0,0,0-1,.93.93,0,0,1,.26-.88,2.54,2.54,0,0,1,1.48-.31A2.25,2.25,0,0,1,100.86,59.68Z"/><path class="cls-31" d="M112.87,74.86a2.1,2.1,0,0,1-.49,1.17,6.91,6.91,0,0,0-.94,1.3c-1.09,1.66-2.22,2.5-3.38,2.5a3.53,3.53,0,0,1-3.2-2.08,10.18,10.18,0,0,1-1-4.79,12.36,12.36,0,0,1,1.25-5.74q1.37-2.72,3.56-2.71a3.17,3.17,0,0,1,2.78,1.9,7.17,7.17,0,0,1,.88,3.51,4.88,4.88,0,0,1-.07.91c-.13.59-.62.88-1.49.88a2.08,2.08,0,0,1-1.56-.57,2.2,2.2,0,0,1-.26-1.32c0-.18,0-.43,0-.76v-.75q0-1.17-.42-1.17c-.29,0-.6.85-.93,2.56a25.44,25.44,0,0,0-.5,4.8c0,1.73.26,2.6.78,2.6.68,0,1.18-.55,1.51-1.64a1.59,1.59,0,0,0,.24-.94.9.9,0,0,1,.31-.82,1.74,1.74,0,0,1,.91-.19,2.56,2.56,0,0,1,1.35.34A1.08,1.08,0,0,1,112.87,74.86Z"/><path class="cls-31" d="M133.9,61.24a1.24,1.24,0,0,1-1.22.54,6.9,6.9,0,0,0-1.43.08c-.64.28-1.38.59-2.23.94-.06,1.31-.08,2.76-.08,4.34q0,4.81.28,9.85a2.43,2.43,0,0,0,.28,1,2.37,2.37,0,0,1,.27.85,1,1,0,0,1-.23.62,2,2,0,0,1-1.72.78,3.64,3.64,0,0,1-1.88-.53,1.94,1.94,0,0,1-1-1.26,1.06,1.06,0,0,1,.4-.89,1.4,1.4,0,0,0,.48-.93q-.18-5.17-.18-9c0-1.56,0-2.81.08-3.75L125,64a2,2,0,0,1-.75.19,1.17,1.17,0,0,1-.76-.29,13.49,13.49,0,0,1-1-.94,1.44,1.44,0,0,1-.41-1,1.7,1.7,0,0,1,0-.42c0-.24,1.32-.74,3.79-1.48a44.61,44.61,0,0,0,4.32-1.43,1.94,1.94,0,0,0,.64-.47,1.33,1.33,0,0,1,.76-.42,2.33,2.33,0,0,1,1.51.76,2.55,2.55,0,0,1,1,1.9A1.63,1.63,0,0,1,133.9,61.24Z"/><path class="cls-31" d="M146.64,77a4.59,4.59,0,0,1,.16.83,1,1,0,0,1-.64.9,2.7,2.7,0,0,1-1.36.35,1.34,1.34,0,0,1-1.43-.83,1.57,1.57,0,0,1-.13-.57,1.22,1.22,0,0,1,.3-.73,1.22,1.22,0,0,0,.3-.73,19,19,0,0,0,.31-3.9c0-2.94-.21-4.45-.63-4.52s-.81.44-1.5,1.48a16.32,16.32,0,0,0-1.82,3.67,10.26,10.26,0,0,0-.73,4.21.71.71,0,0,0-.08.31,1.62,1.62,0,0,0,.21.66,1.73,1.73,0,0,1,.21.69.76.76,0,0,1-.19.5c-.46.67-.93,1-1.4,1s-.95-.38-1.4-1.14c-.26-.45-.39-3.05-.39-7.78q0-2.59.13-11.83,0-.15,0-.48c0-.22,0-.38,0-.51a1.05,1.05,0,0,1,.16-.46,1.24,1.24,0,0,1,1.22-.55,2.78,2.78,0,0,1,1.52.44c.46.3.64.64.54,1a.73.73,0,0,1-.25.37.56.56,0,0,0-.22.41V68.2c1-2.21,2.44-3.39,4.37-3.53q1.56-.11,2.49,2.34a15.41,15.41,0,0,1,.86,5.48A16.81,16.81,0,0,1,146.64,77Z"/><path class="cls-31" d="M159.8,76.45a4.3,4.3,0,0,1-1.4,2.1,3.72,3.72,0,0,1-1.44.76,5.73,5.73,0,0,1-2.46.46,3.69,3.69,0,0,1-3.07-2.23,10.25,10.25,0,0,1-1-4.79,11.93,11.93,0,0,1,1.15-5.38,4.62,4.62,0,0,1,3.4-2.86,7.65,7.65,0,0,1,.81-.05c2.06,0,3.2,1.27,3.4,3.8a5.59,5.59,0,0,1-1.37,3.79,8.73,8.73,0,0,1-4.27,3.17,8.21,8.21,0,0,0,.45,1.36,1.1,1.1,0,0,0,1,.65,2.3,2.3,0,0,0,1.28-.47A2.46,2.46,0,0,0,157,76c.07,0,.14-.22.21-.58a1,1,0,0,1,.54-.77.86.86,0,0,1,.36-.08,1.69,1.69,0,0,1,1.21.62A1.37,1.37,0,0,1,159.8,76.45Zm-4.08-9.16c-.7,0-1.26.5-1.69,1.49a8,8,0,0,0-.7,3.9,4.71,4.71,0,0,0,2.26-1.82,4.58,4.58,0,0,0,1-2.55C156.63,67.63,156.32,67.29,155.72,67.29Z"/><path class="cls-31" d="M172.75,65.92q-.1.54-1,.75a2.6,2.6,0,0,0-1.33.6l-4.24,4.89v4a2.36,2.36,0,0,0,.33,1.16,2,2,0,0,1,.32.89,1.69,1.69,0,0,1-.18.7,1.75,1.75,0,0,1-1.79,1,1.89,1.89,0,0,1-1.48-.6,1.34,1.34,0,0,1-.37-1c0-.14,0-.37,0-.68a6.14,6.14,0,0,0,.06-.75V67.11a1.18,1.18,0,0,0-.21-.57,1.12,1.12,0,0,1-.21-.55.82.82,0,0,1,.1-.36c.23-.42.93-.62,2.11-.62.92,0,1.44.21,1.56.65a1.65,1.65,0,0,1,.08.44.51.51,0,0,1-.21.44.42.42,0,0,0-.21.31l.05.94,2.24-2.37c.26-.29.53-.59.82-.88a1.58,1.58,0,0,1,1-.5,2.87,2.87,0,0,1,1.7.39,1.39,1.39,0,0,1,.82,1.23A2.46,2.46,0,0,1,172.75,65.92Z"/><path class="cls-31" d="M185.41,78.08a1.79,1.79,0,0,1-1.93,1.28,1.24,1.24,0,0,1-1.4-1.33,18,18,0,0,0-.62-2.31,4.64,4.64,0,0,1-1.56,2.9,4.32,4.32,0,0,1-3,1.47c-1.27,0-2.15-.84-2.63-2.53A6.7,6.7,0,0,1,174,75.8a5,5,0,0,1,2.47-4.14c1.35-.8,2.71-1.58,4.08-2.36a3.76,3.76,0,0,0,.11-.86c0-.54-.15-.86-.45-1a2.32,2.32,0,0,0-.75-.14,1.21,1.21,0,0,0-.9.35l-.66.66a3.61,3.61,0,0,0-.81,1,1.22,1.22,0,0,1-.85.65A1.44,1.44,0,0,1,175,69.5a1.73,1.73,0,0,1-.54-1.27,1.37,1.37,0,0,1,.21-.75,5.11,5.11,0,0,1,1.79-1.72A8.69,8.69,0,0,1,181,64.67a2.37,2.37,0,0,1,2.39,1.66,17.2,17.2,0,0,1,.63,4.19,43.82,43.82,0,0,0,.57,5.43,2,2,0,0,0,.44.86,1.61,1.61,0,0,1,.39.91A1.49,1.49,0,0,1,185.41,78.08Zm-4.53-6.39c-.52.28-1,.56-1.54.86a5.53,5.53,0,0,0-1.42,1.17,3.05,3.05,0,0,0-.94,1.82,2.33,2.33,0,0,0,.47,1.3.73.73,0,0,0,.57.36c.45,0,.94-.5,1.47-1.51A17.49,17.49,0,0,0,180.88,71.69Z"/><path class="cls-31" d="M198.33,72a10.76,10.76,0,0,1-1.17,5c-.87,1.63-1.93,2.44-3.2,2.44-.71,0-1.44-.56-2.18-1.69V81.1a2.44,2.44,0,0,0,.34,1.07,2.45,2.45,0,0,1,.33,1,1.08,1.08,0,0,1-.13.52,2.11,2.11,0,0,1-2.13,1.17c-.87,0-1.4-.31-1.61-.93a1.89,1.89,0,0,1-.1-.6,2.5,2.5,0,0,1,.16-.77,2.35,2.35,0,0,0,.17-.82V66.93a1.67,1.67,0,0,0-.2-.69,1.54,1.54,0,0,1-.21-.66,1,1,0,0,1,.1-.44c.21-.49.85-.73,1.92-.73a1.75,1.75,0,0,1,1.36.41.65.65,0,0,1,.13.39,2.3,2.3,0,0,1-.13.58,3.61,3.61,0,0,0-.16.59,3.41,3.41,0,0,1,2.81-1.71,3.31,3.31,0,0,1,3.15,2.44A13.51,13.51,0,0,1,198.33,72Zm-3.28,0a28.31,28.31,0,0,0-.1-3.15c-.17-1.12-.61-1.69-1.3-1.69-.4,0-.76.55-1.08,1.63a11.26,11.26,0,0,0-.48,3.21,9.27,9.27,0,0,0,.52,2.81c.35,1.14.69,1.71,1,1.71s.76-.52,1-1.58A11.61,11.61,0,0,0,195.05,72Z"/><path class="cls-31" d="M212,66.23a1.71,1.71,0,0,1-.25,1.12c-.4.66-.61,1-.63,1.06-.73,1.74-1.85,4.53-3.38,8.37a21.45,21.45,0,0,0-1.3,5,4.48,4.48,0,0,0,0,.91,1.39,1.39,0,0,1-.19.86,1.46,1.46,0,0,1-1.24.54A1.85,1.85,0,0,1,203.06,83a1.47,1.47,0,0,1-.1-.5,1.09,1.09,0,0,1,.21-.58,2,2,0,0,0,.25-.54l.63-3.25L200.3,67.32c-.05-.14-.19-.42-.41-.86a1.79,1.79,0,0,1-.23-.8,1.18,1.18,0,0,1,.05-.37c.17-.62.76-.93,1.76-.93a3,3,0,0,1,1.49.31,1.71,1.71,0,0,1,.75,1.38c.09,1.07.15,1.67.18,1.79l1.72,5.41,2.65-6.71q0-.08.24-1.14a1.19,1.19,0,0,1,.54-.89,1.16,1.16,0,0,1,.6-.15,2.51,2.51,0,0,1,1.51.56A1.92,1.92,0,0,1,212,66.23Z"/><path class="cls-31" d="M231.61,75.17a1.6,1.6,0,0,1,.15.7,2.18,2.18,0,0,1-.4,1.25,2,2,0,0,1-.93.8,4.72,4.72,0,0,1-1.53.19,5.51,5.51,0,0,0-1.43.13,2.46,2.46,0,0,0-1,.81,2.84,2.84,0,0,1-1.71.72,2,2,0,0,1-1.54-.52,3.09,3.09,0,0,1-1.07-1.53,1.4,1.4,0,0,1,0-.34,1.21,1.21,0,0,1,.38-.75,1,1,0,0,0,.35-.73l-1.09-15.76a1.41,1.41,0,0,0-.27-.48,1.12,1.12,0,0,1-.28-.63,1,1,0,0,1,.39-.71,2.31,2.31,0,0,1,1.56-.49,3.92,3.92,0,0,1,1.65.36,1.89,1.89,0,0,1,1,.86,1.37,1.37,0,0,1,.13.5.65.65,0,0,1-.24.46.58.58,0,0,0-.21.45l.94,14.35,1.56-.63,1-.45a2.17,2.17,0,0,1,.84-.22C230.44,73.51,231,74.06,231.61,75.17Z"/><path class="cls-31" d="M243.57,75.17a1.6,1.6,0,0,1,.15.7,2.18,2.18,0,0,1-.4,1.25,2,2,0,0,1-.93.8,4.72,4.72,0,0,1-1.53.19,5.51,5.51,0,0,0-1.43.13,2.46,2.46,0,0,0-1,.81,2.84,2.84,0,0,1-1.71.72,2,2,0,0,1-1.54-.52,3.09,3.09,0,0,1-1.07-1.53,1.4,1.4,0,0,1,0-.34,1.21,1.21,0,0,1,.38-.75,1,1,0,0,0,.35-.73l-1.09-15.76a1.41,1.41,0,0,0-.27-.48,1.12,1.12,0,0,1-.28-.63,1,1,0,0,1,.39-.71,2.31,2.31,0,0,1,1.56-.49,3.92,3.92,0,0,1,1.65.36,1.89,1.89,0,0,1,1,.86,1.37,1.37,0,0,1,.13.5.65.65,0,0,1-.24.46.58.58,0,0,0-.21.45l.94,14.35,1.56-.63,1-.45a2.17,2.17,0,0,1,.84-.22C242.4,73.51,243,74.06,243.57,75.17Z"/><path class="cls-31" d="M256.21,73.69q-2.47,6.16-4.94,6.19c-2,0-3.45-1-4.37-3.1a15.83,15.83,0,0,1-1.1-6.26,25.31,25.31,0,0,1,1.15-8q1.35-4.19,3.67-4.44l.65,0A3.69,3.69,0,0,1,254.59,60a15.08,15.08,0,0,1,1.46,4.63,7.83,7.83,0,0,1,.44,1.56,1.46,1.46,0,0,1-1.07,1.33,1.27,1.27,0,0,1-.54.1,3.56,3.56,0,0,1-1.67-.49c-.71-.38-1.06-.8-1.06-1.25a6.67,6.67,0,0,1,.36-1,7.33,7.33,0,0,0-.41-2.17c-.25-.69-.52-1.07-.83-1.14-.49-.12-.91.85-1.28,2.89a38.79,38.79,0,0,0-.57,5.62,21.06,21.06,0,0,0,.26,4.29c.26,1.5.65,2.31,1.17,2.41.31.06.68-.33,1.12-1.17a12.58,12.58,0,0,0,1-2.7,2.15,2.15,0,0,1,0-.49c0-1,.62-1.54,1.87-1.54a4.76,4.76,0,0,1,.83.08c.85.17,1.27.6,1.27,1.27A1.88,1.88,0,0,1,256.21,73.69Z"/><path class="cls-30" d="M225.81,51a3.71,3.71,0,0,0,1.28,1.11,3.47,3.47,0,0,0,1,.36c1,.13,1.85-.92,2.7-3.12.13-.34.25-.7.38-1.1.07-.21.14-.42.21-.65s.05-.21.08-.32c.14-.49.26-1,.38-1.48s.19-.83.27-1.24a36.25,36.25,0,0,0,.65-5.29c0-.74.08-1.47.08-2.23,0-.27,0-.54,0-.8q-.17-8.43-4-8.8c-1.39-.13-2.59,1.18-3.6,3.91A23.12,23.12,0,0,0,224,37.63c0,.51-.06,1-.06,1.53s0,.92,0,1.36c0,1.89.08,3.48.19,4.76a19.07,19.07,0,0,0,.31,2.29l.06.27A8.27,8.27,0,0,0,225.81,51Z"/><path class="cls-30" d="M218.64,47a7.52,7.52,0,0,0-1.43-.47.43.43,0,0,1-.33-.18c.05.25.09.49.14.73l.13-.06A3.25,3.25,0,0,1,218.64,47Z"/><path class="cls-30" d="M236.1,24.37a10.67,10.67,0,0,0-8-3.16,14.09,14.09,0,0,0-3.79.51q-3.54,1-5.81,6.7a31.62,31.62,0,0,0-2.15,12,33.11,33.11,0,0,0,.48,5.82c0-.11.14-.22.43-.21a3.86,3.86,0,0,1,1.38.37,7.67,7.67,0,0,0-1.45-.69c-.43-.08-.54-.5-.08-.54a5.33,5.33,0,0,1,1.7.63,3.64,3.64,0,0,0-1-.59c-.52-.17-.72-.52-.31-.58a3.8,3.8,0,0,1,2,1c-.21-.21-.36-1.11,0-1.14s.21.37.62.85a2.62,2.62,0,0,1,.42,1.36l0,.16a7.11,7.11,0,0,0,3.24,1.28c0-.1,0-.19,0-.3a2.73,2.73,0,0,0,.74,0l-.06-.27a19.07,19.07,0,0,1-.31-2.29,5.73,5.73,0,0,1-.39-.83,1.56,1.56,0,0,1-.77.21,1.7,1.7,0,0,1-.22-3.39.93.93,0,0,1,.42-.5c-.59-.45-.54-.87.14-1.15-.49-.54-.36-.93.36-1.06-.34-.54-.2-.87.32-.93a23.12,23.12,0,0,1,1.27-6.31c1-2.73,2.21-4,3.6-3.91q3.81.36,4,8.8c.19.1.26.34.18.74.71-.12,1,.19.67.86.73,0,.92.38.51,1,.71.16.83.56.31,1.08.66.3.7.73.1,1.15a1.7,1.7,0,0,1-.22,3.38,1.75,1.75,0,0,1-.46,0,5.16,5.16,0,0,1-1.28,2l3.73,6.88s-.75.81-4.75,1.65-4.37.33-4.37.33l-.19-3.16A3.71,3.71,0,0,1,225.81,51c-1.2.1-2.19.08-2.19.08a8.26,8.26,0,0,1-.05-1.48,8.17,8.17,0,0,1-3.89-1.88.69.69,0,0,1-.32,0,3.13,3.13,0,0,0-1.69-.19,1.5,1.5,0,0,1-.57,0,20,20,0,0,0,2.06,5.48c2.1,3.76,5.1,5.63,9,5.63s7-2.09,9.23-6.26a28.23,28.23,0,0,0,3-13.46Q240.33,28.67,236.1,24.37Z"/><path class="cls-1" d="M217.67,47.47a3.13,3.13,0,0,1,1.69.19.69.69,0,0,0,.32,0,8.17,8.17,0,0,0,3.89,1.88,10,10,0,0,1,.17-1.4,7.11,7.11,0,0,1-3.24-1.28l0-.16a2.62,2.62,0,0,0-.42-1.36c-.41-.48-.27-.89-.62-.85s-.2.93,0,1.14a3.8,3.8,0,0,0-2-1c-.41.06-.21.41.31.58a3.64,3.64,0,0,1,1,.59,5.33,5.33,0,0,0-1.7-.63c-.46,0-.35.46.08.54a7.67,7.67,0,0,1,1.45.69,3.86,3.86,0,0,0-1.38-.37c-.29,0-.42.1-.43.21a.43.43,0,0,1,0,.11.43.43,0,0,0,.33.18,7.52,7.52,0,0,1,1.43.47,3.25,3.25,0,0,0-1.49,0l-.13.06c0,.12,0,.25.08.37A1.5,1.5,0,0,0,217.67,47.47Z"/><path class="cls-2" d="M223.62,51.05s1,0,2.19-.08a8.27,8.27,0,0,1-1.28-3.13,2.73,2.73,0,0,1-.74,0c0,.11,0,.2,0,.3a10,10,0,0,0-.17,1.4A8.26,8.26,0,0,0,223.62,51.05Z"/><path class="cls-4" d="M223.63,41.4a5.17,5.17,0,0,1,.34-.88c0-.44.29-.93.29-1.4s-.27-1-.24-1.49c-.52.06-.66.39-.32.93-.72.13-.85.52-.36,1.06-.68.28-.73.7-.14,1.15a.93.93,0,0,0-.42.5h.14A1.7,1.7,0,0,1,223.63,41.4Z"/><path class="cls-1" d="M223.56,43.7a1,1,0,0,1-.58.23,1,1,0,1,1,.51-1.76,5,5,0,0,1,.14-.77,1.7,1.7,0,0,0-.71-.14h-.14a1.7,1.7,0,0,0,.22,3.39,1.56,1.56,0,0,0,.77-.21A4.61,4.61,0,0,1,223.56,43.7Z"/><path class="cls-5" d="M222.94,42a1,1,0,0,0,0,1.94,1,1,0,0,0,.58-.23,4.59,4.59,0,0,1-.11-.84,4,4,0,0,1,0-.69A1,1,0,0,0,222.94,42Z"/><path class="cls-1" d="M224,40.52a5.17,5.17,0,0,0-.34.88,5,5,0,0,0-.14.77,4,4,0,0,0,0,.69,5.7,5.7,0,0,0,.32,1.59,6,6,0,0,0,.41.93C224.07,44.1,224,42.41,224,40.52Z"/></svg>