<svg id="Layer_1" data-name="Layer 1" xmlns="http://www.w3.org/2000/svg" viewBox="0 0 65.26 426.82"><defs><style>.cls-1{fill:#ee2527;stroke:#ee2527;}.cls-1,.cls-2,.cls-3,.cls-4{stroke-width:0.09px;}.cls-2{fill:#ea5c67;stroke:#ea5c67;}.cls-3{fill:#ea5d69;stroke:#ea5d69;}.cls-4{fill:#eb5c69;stroke:#eb5c69;}</style></defs><title>red-crayon</title><path class="cls-1" d="M23.47,1.26c5.23-2,11-1.18,16.34.06,7.66,21.13,11.51,43.35,16.4,65.21,1.87,2.44,5.5,2,8.13,3.27v1c.05,6.12.07,12.25-.1,18.37-21.29.07-42.57.12-63.85,0-.13-6.32.22-12.66-.27-19C2.48,68.68,5.3,69,7.91,68.65c4.36-20.72,8.18-41.56,12.77-62.24C21.16,4.53,21.37,2.07,23.47,1.26Z"/><path class="cls-2" d="M64.35,70.75h.83c.06,9-.21,18-.27,27a68.75,68.75,0,0,0-11.29-.59c-17.77.22-35.55-.3-53.31.27.08-2.77.1-5.55.09-8.33,21.28.16,42.56.11,63.85,0,.17-6.12.15-12.25.1-18.37Z"/><path class="cls-1" d="M.31,97.41c17.76-.57,35.54,0,53.31-.27a68.75,68.75,0,0,1,11.29.59q-.1,5.1,0,10.2c-21.53.4-43.08.17-64.61.11C.21,104.5.21,101,.31,97.41Z"/><path class="cls-3" d="M.29,108c21.53.06,43.08.29,64.61-.11-.08,56.19.26,112.38.32,168.57-.08,36.4.12,72.82-.71,109.21-12-.85-23.94-.21-35.9-.41-9.25.16-18.52-.38-27.75.34A65.62,65.62,0,0,1,.37,396.4c-.78-5.61.13-11.26,0-16.89C.32,289,.56,198.53.29,108Z"/><path class="cls-1" d="M.86,385.64c9.23-.72,18.5-.18,27.75-.34,12,.2,24-.44,35.9.41-.11,3.5-.06,7-.11,10.5-21.34.22-42.69-.17-64,.19A65.62,65.62,0,0,0,.86,385.64Z"/><path class="cls-4" d="M.37,396.4c21.34-.36,42.69,0,64-.19-.33,9.85.2,19.76-.84,29.57-.42-6.81.18-13.64-.08-20.46-13.6-.67-27.23-.12-40.83-.3-7.43.05-14.86-.21-22.27.27C.39,402.32.4,399.36.37,396.4Z"/><path class="cls-1" d="M.38,405.29c7.41-.48,14.84-.22,22.27-.27,13.6.18,27.23-.37,40.83.3.26,6.82-.34,13.65.08,20.46l0,.94q-31.6.12-63.21,0C.36,419.58.41,412.43.38,405.29Z"/></svg>