<svg id="Layer_1" data-name="Layer 1" xmlns="http://www.w3.org/2000/svg" viewBox="0 0 426.82 65.26"><defs><style>.cls-1{fill:#ee2527;stroke:#ee2527;}.cls-1,.cls-2,.cls-3,.cls-4{stroke-width:0.09px;}.cls-2{fill:#ea5c67;stroke:#ea5c67;}.cls-3{fill:#ea5d69;stroke:#ea5d69;}.cls-4{fill:#eb5c69;stroke:#eb5c69;}</style></defs><title>red-crayon</title><path class="cls-1" d="M425.57,23.46c2,5.23,1.18,11-.06,16.34-21.13,7.66-43.35,11.51-65.21,16.4-2.44,1.87-2,5.5-3.27,8.13h-1c-6.12,0-12.25.07-18.37-.1-.07-21.29-.12-42.57,0-63.85,6.32-.13,12.66.22,19-.27,1.49,2.36,1.17,5.18,1.52,7.79,20.72,4.36,41.56,8.18,62.24,12.77C422.3,21.15,424.76,21.36,425.57,23.46Z"/><path class="cls-2" d="M356.08,64.34v.83c-9,.06-18-.21-27-.27a69.81,69.81,0,0,0,.59-11.29c-.22-17.77.3-35.55-.27-53.31,2.77.08,5.55.1,8.33.09-.16,21.28-.11,42.56,0,63.85,6.12.17,12.25.15,18.37.1Z"/><path class="cls-1" d="M329.42.3c.57,17.76,0,35.54.27,53.31a69.81,69.81,0,0,1-.59,11.29q-5.1-.09-10.2,0c-.4-21.53-.17-43.08-.11-64.61C322.33.2,325.83.2,329.42.3Z"/><path class="cls-3" d="M318.83.28c-.06,21.53-.29,43.08.11,64.61-56.19-.08-112.38.26-168.58.32-36.4-.08-72.82.12-109.2-.71.85-12,.2-23.94.41-35.9-.16-9.25.38-18.52-.34-27.75A65,65,0,0,1,30.43.36C36-.42,41.69.49,47.32.36,137.83.31,228.3.55,318.83.28Z"/><path class="cls-1" d="M41.18.85c.73,9.23.18,18.5.34,27.75-.2,12,.44,24-.41,35.9-3.5-.11-7-.06-10.5-.11-.22-21.34.18-42.69-.19-64A64.52,64.52,0,0,0,41.18.85Z"/><path class="cls-4" d="M30.43.36c.36,21.34,0,42.69.19,64-9.85-.33-19.76.2-29.57-.84,6.81-.42,13.64.18,20.46-.08.67-13.6.12-27.23.29-40.83,0-7.43.21-14.86-.26-22.27Q26,.4,30.43.36Z"/><path class="cls-1" d="M21.54.37c.48,7.41.22,14.84.26,22.27-.17,13.6.37,27.23-.29,40.83-6.83.26-13.65-.34-20.46.08H.11Q0,32,.11.34C7.25.35,14.4.4,21.54.37Z"/></svg>