<svg id="Layer_1" data-name="Layer 1" xmlns="http://www.w3.org/2000/svg" viewBox="0 0 426.78 65.08"><defs><style>.cls-1{fill:#8e4e9f;stroke:#8e4e9f;}.cls-1,.cls-2,.cls-3,.cls-4{stroke-width:0.09px;}.cls-2{fill:#b988bd;stroke:#b988bd;}.cls-3{fill:#b989bd;stroke:#b989bd;}.cls-4{fill:#8e4d9e;stroke:#8e4d9e;}</style></defs><title>purple-crayon</title><path class="cls-1" d="M518.23,386.77c1.65,4.15,1.32,8.81.62,13.13-.35,1.32-.42,3.26-2.07,3.65-20.67,7.14-42.25,11.11-63.57,15.73-3.5,1.64-1.24,7.66-5.09,8.79-6,.26-12-.07-17.95,0q.24-32.2,0-64.43c6.62.05,13.24-.1,19.86,0,.47,2.5,0,5.35,1.38,7.59,21.18,4.44,42.49,8.33,63.59,13.12a3.75,3.75,0,0,1,3.22,2.44Z" transform="translate(-92.68 -363.38)"/><path class="cls-2" d="M430.18,363.64q.18,32.22,0,64.43-4,0-8-.08c.05-21.48,0-43,0-64.46C424.88,363.61,427.53,363.64,430.18,363.64Z" transform="translate(-92.68 -363.38)"/><path class="cls-1" d="M422.23,363.53c0,21.49,0,43,0,64.46-3.64,0-7.29-.06-10.93,0,.1-21.47.19-42.95,0-64.43C414.9,363.37,418.57,363.4,422.23,363.53Z" transform="translate(-92.68 -363.38)"/><path class="cls-3" d="M411.23,363.53c.24,21.48.15,43,0,64.43-92.43-.08-184.86,1.2-277.28-.23,0-21.4-.06-42.79.05-64.19,56.65.24,113.31,0,170,.1,35.74-.08,71.48.15,107.21-.11Z" transform="translate(-92.68 -363.38)"/><path class="cls-4" d="M134.05,363.54c-.11,21.4,0,42.79-.05,64.19-3.75,0-7.51,0-11.27-.18a81.8,81.8,0,0,0,.47-8.7c-.13-18.44.1-36.88-.11-55.32,3.65-.14,7.31-.15,11,0Z" transform="translate(-92.68 -363.38)"/><path class="cls-2" d="M123.09,363.53c.21,18.44,0,36.88.11,55.32a81.8,81.8,0,0,1-.47,8.7l-8.37-.18q.11-31.86,0-63.72c2.92,0,5.83,0,8.74-.12Z" transform="translate(-92.68 -363.38)"/><path class="cls-1" d="M114.35,363.65q.09,31.86,0,63.72c-7.19-.13-14.38-.37-21.57-.49-.11-21.08,0-42.16,0-63.24q10.8,0,21.6,0Z" transform="translate(-92.68 -363.38)"/></svg>