<?xml version="1.0" encoding="utf-8"?>
<!-- Generator: Adobe Illustrator 22.1.0, SVG Export Plug-In . SVG Version: 6.00 Build 0)  -->
<svg version="1.1" id="Layer_1" xmlns="http://www.w3.org/2000/svg" xmlns:xlink="http://www.w3.org/1999/xlink" x="0px" y="0px"
	 viewBox="0 0 40.3 32.5" style="enable-background:new 0 0 40.3 32.5;" xml:space="preserve">
<style type="text/css">
	.st0{fill:#FDDDC5;}
	.st1{fill:#CA268F;}
	.st2{fill:#E5A3C8;}
	.st3{fill:#E28B59;}
	.st4{fill:#C55530;}
	.st5{fill:#912F22;}
</style>
<title>boy-red-shirt</title>
<path class="st0" d="M12.9,17.1l-1,1.8c-0.7,0.2-4.6,0-7.4-5.7c-0.8,1-2.5,0.2-3.6-0.5c-1.2-0.7-0.7-1.1-0.2-0.9
	c0.4,0.2,1.7,0.3,1.7,0.3S1.8,12,0.7,11.4c-1.1-0.5-0.8-1.3-0.2-1c0.6,0.3,0.9,0.3,1.3,0.6c0.4,0.2,1,0.4,1,0.4s-1.6-0.9-2.3-1.7
	C-0.3,9,0.4,8.5,1,9.1c0.6,0.6,2.3,1.7,2.3,1.4c0-0.2-1.6-1.3-2.1-1.8c-0.5-0.6,0-1,0.5-0.4c0.5,0.6,2.2,1.8,2.6,1.8
	c0.3,0-0.2-0.8-0.1-1.1c0.1-0.3,0.3-1,0.8-0.5c0.5,0.5,0,0.6,0.5,1.5c0.2,0.5,0.1,1.2-0.1,1.7C9,17.2,12.9,17.1,12.9,17.1z"/>
<path class="st1" d="M15.9,17.7c0,0-2.9-0.5-4.5-1.5c-1.1,1.1-2,4.8-2,4.8s5.4,1.6,7.1,1.7C18.3,22.8,15.9,17.7,15.9,17.7z"/>
<path class="st0" d="M27.4,17l1,1.8c0.7,0.2,4.6,0,7.4-5.7c0.8,1,2.5,0.2,3.6-0.5c1.2-0.7,0.7-1.1,0.2-0.9c-0.4,0.2-1.7,0.3-1.7,0.3
	s0.5-0.3,1.6-0.8c1.1-0.5,0.8-1.3,0.2-1c-0.6,0.3-0.9,0.3-1.3,0.6c-0.4,0.2-1,0.4-1,0.4s1.6-0.9,2.3-1.7c0.7-0.7,0.1-1.2-0.5-0.6
	c-0.6,0.6-2.3,1.7-2.3,1.4c0-0.2,1.6-1.3,2.1-1.8c0.5-0.6,0-1-0.5-0.4C38,8.7,36.3,9.9,36,9.9c-0.3,0,0.2-0.8,0.1-1.1
	c-0.1-0.3-0.3-1-0.8-0.5c-0.5,0.5,0,0.6-0.5,1.5c-0.2,0.5-0.1,1.2,0.1,1.7C31.3,17.1,27.4,17,27.4,17z"/>
<path class="st1" d="M24.4,17.5c0,0,2.9-0.5,4.5-1.5c1.1,1.1,2,4.8,2,4.8s-5.4,1.6-7.1,1.7C22,22.6,24.4,17.5,24.4,17.5z"/>
<path class="st2" d="M19.5,18.8c1.8,0.1,3.5-0.4,4.9-1.3l0.1,0L26,29c-0.9,0.8-2.4,1.9-4.5,2.6c-1.2,0.4-5.5,1.8-7.4-0.1
	c-1.3-1.3-1.2-3.6-0.1-8c0.5-2,1-4,1.5-5.9C16.7,18.3,18.1,18.7,19.5,18.8z"/>
<path class="st1" d="M16.7,18.5c-0.1,1.6,1.2,3,2.9,3.1c1.7,0.1,3.1-1.2,3.2-2.8c0.1-1.6-1.2-3-2.9-3.1
	C18.2,15.6,16.8,16.9,16.7,18.5z"/>
<path class="st0" d="M17.3,18c-0.1,1.3,1,2.5,2.4,2.5c1.4,0.1,2.5-0.9,2.6-2.3c0.1-1.3-1-2.5-2.4-2.5C18.5,15.7,17.3,16.7,17.3,18z"
	/>
<g>
	<path class="st0" d="M26.6,10.3c0.2,1.4,1.5,2.4,2.9,2.2c1.4-0.2,2.4-1.5,2.2-2.9c-0.2-1.4-1.5-2.4-2.9-2.2
		C27.4,7.6,26.4,8.9,26.6,10.3z"/>
	<path class="st0" d="M9.6,12.9c0.2,1.4,1.5,2.4,2.9,2.2c1.4-0.2,2.4-1.5,2.2-2.9c-0.2-1.4-1.5-2.4-2.9-2.2
		C10.4,10.2,9.4,11.5,9.6,12.9z"/>
	<path class="st3" d="M29.4,11.4c0.8-0.1,1.3-0.9,1.2-1.7c-0.1-0.8-0.9-1.3-1.7-1.2c-0.8,0.1-1.3,0.9-1.2,1.7
		C27.9,10.9,28.6,11.5,29.4,11.4L29.4,11.4z"/>
	<path class="st3" d="M12.4,13.9c0.8-0.1,1.3-0.8,1.2-1.6c-0.1-0.8-0.8-1.3-1.6-1.2c-0.8,0.1-1.3,0.8-1.2,1.6
		C10.9,13.5,11.6,14,12.4,13.9L12.4,13.9z"/>
	<path class="st0" d="M12.4,12.3c0.7,4.3,4.8,7.2,9.2,6.5c4.4-0.7,7.5-4.7,6.9-9c-0.6-4.3-4.8-7.2-9.2-6.5C14.8,4,11.7,8,12.4,12.3z
		"/>
	<path class="st3" d="M15.5,13.9c0,0,6.2,1.5,9.3-0.8C24.9,17.4,17.3,19.4,15.5,13.9z"/>
	<path class="st4" d="M20.8,15.7c-1.7-0.6-2.6,0.2-3,0.6c0.7,0.4,1.6,0.6,2.5,0.5c1-0.1,2-0.5,2.8-1.1
		C22.4,15.3,21.3,15.3,20.8,15.7z"/>
	<path class="st3" d="M23.8,9.9c0.1,0.6,0.4,1,0.8,0.9c0.4-0.1,0.6-0.6,0.5-1.1c-0.1-0.6-0.4-1-0.8-0.9C23.9,8.8,23.7,9.3,23.8,9.9z
		"/>
	<path class="st3" d="M15.6,11.1c0.1,0.6,0.4,1,0.8,0.9c0.4-0.1,0.6-0.6,0.5-1.1c-0.1-0.6-0.4-1-0.8-0.9
		C15.7,10,15.5,10.5,15.6,11.1z"/>
	<path class="st5" d="M12.2,12.5c0,0,0.1-2.7-1.3-5.1c2.4-4.9,7.2-8.1,16-7.2c-4.5,0.5-5.2,1.3-5.2,1.3s5.5-1.1,8,1.5
		c-3.8-1.4-5.3,0-5.3,0l3.6,2.4l0.5,4.2c0,0-0.7-3.2-3.7-4.2C22.5,7.6,13,9.2,13,9.2C12.6,10.6,12.2,12.5,12.2,12.5z"/>
	<path class="st3" d="M22,12.5c0,0-1.6,0.4-2.1,0.3C20.9,14.1,22,12.5,22,12.5z"/>
</g>
</svg>
