<svg id="Layer_1" data-name="Layer 1" xmlns="http://www.w3.org/2000/svg" xmlns:xlink="http://www.w3.org/1999/xlink" viewBox="0 0 110.13 99.7"><defs><style>.cls-1{fill:none;}.cls-2{fill:#e58f55;}.cls-3{fill:#ea433c;}.cls-4{fill:#fbb957;}.cls-5{fill:#5d3d34;}.cls-6{fill:#a05124;}.cls-7{fill:#934d23;}.cls-8{fill:#ee685f;}.cls-9{clip-path:url(#clip-path);}</style><clipPath id="clip-path"><polygon class="cls-1" points="120.66 24.33 85.1 85.93 65.16 74.42 101.61 13.33 120.66 24.33"/></clipPath></defs><title>boy-yellow-shirt</title><path class="cls-2" d="M62.68,73.58a34.69,34.69,0,0,0,24.16,6.27l.51-.89s2.3-4,5.36-5.18,3.63-3.22,5-2.45c1.77,1-1.42,4.5-2.82,4.87,3.94-.68,9.91-.78,11.43.69s-.14,2.28-2.87,1.89a24.19,24.19,0,0,0-6,.1s7.11,0,9.07,1.69c2.22,1.28.5,3.24-1.72,2-2-.58-8.44-.74-8.44-.74s4.57.28,7.23,1.81.94,3.5-.84,2.48-7.48-1.37-7.48-1.37,4.5,1.42,6.65,3.84S101.7,92,98.67,89c-3.29-2.49-5.76-3.33-8-3.46l-1.33-.77C73,88.42,58.22,79.28,58.22,79.28s-2.53-3.82,4.46-5.7"/><path class="cls-3" d="M69.66,75.84a50.6,50.6,0,0,1-7.3,14.69S51.46,84.83,44.77,78l11-14.93c-.44-.26,8.78,10.38,13.91,12.76"/><path class="cls-4" d="M0,67.53s1.06,5.33,16.48,19.56c15.68,13.78,18.73,12.59,18.73,12.59L57.9,65.5,48.56,53,35.45,46Z"/><path class="cls-3" d="M34.48,50.8a10,10,0,0,0,1.2,14.28c4.37,3.71,10.78,3.86,14.48-.5A10,10,0,0,0,49,50.29c-3.92-3.44-10.58-3.16-14.47.51"/><path class="cls-2" d="M37.2,51.19c-3.18,3.48-2.57,8.56.9,11.75s9,2.83,11.5-.46c3.18-3.48,2.57-8.56-.9-11.75a7.87,7.87,0,0,0-11.5.46"/><path class="cls-5" d="M38.75,17.81c-3.68.24-4.52,2.71-2.37,5.13-3.5.94-4.08,3-1,5.9C32,30.48,31.89,32.76,35,34.55c-3.12,2.34-2.56,4.43,1.06,5.34-2.24,2.84-1.67,4.94,2.2,5.4-1.79,3.1-.53,5,3.15,4.78-.91,3.61.61,5.08,4.11,4.14-.47,3.87,1.31,4.89,5.06,3.51.24,3.69,2.71,4.52,5.13,2.38.94,3.49,3,4.07,5.9,1,1.63,3.31,3.92,3.44,5.71.34,2.33,3.12,4.43,2.56,5.33-1.06,2.85,2.24,5,1.68,5.41-2.19,3.1,1.79,5,.53,4.77-3.15,3.62.9,5.09-.62,4.15-4.11,3.87.46,4.89-1.31,3.51-5.06,3.68-.24,4.52-2.71,2.37-5.14,3.5-.93,4.08-3,1.05-5.89,3.3-1.64,3.44-3.92.34-5.71,3.12-2.34,2.56-4.44-1.06-5.34C95.42,21,94.86,18.89,91,18.42c1.79-3.1.53-5-3.16-4.77.91-3.61-.61-5.08-4.1-4.14.46-3.87-1.32-4.9-5.07-3.52C78.43,2.31,76,1.47,73.53,3.62c-.93-3.49-3-4.08-5.9-1C66-.73,63.71-.87,61.92,2.24c-2.33-3.12-4.43-2.56-5.33,1-2.85-2.23-5-1.67-5.41,2.2-3.1-1.79-5-.53-4.77,3.15-3.62-.9-5.08.61-4.15,4.11-3.42-.21-5.33,1.05-3.51,5.06"/><path class="cls-2" d="M78.21,51.82a8.7,8.7,0,1,0,11.88-3.19,8.61,8.61,0,0,0-11.88,3.19"/><path class="cls-2" d="M28,21.06a8.7,8.7,0,1,0,11.88-3.18A9,9,0,0,0,28,21.06"/><path class="cls-6" d="M83.18,60.6c2.22,1.28,5.46.78,6.74-1.43s.78-5.46-1.43-6.74-5.46-.78-6.74,1.43c-1.72,2-1.42,4.5,1.43,6.74"/><path class="cls-6" d="M33.43,30.1a5.44,5.44,0,0,0,6.73-1.43,5.43,5.43,0,0,0-1.43-6.73A5.44,5.44,0,0,0,32,23.37c-1.73,2-.79,5.45,1.43,6.73"/><path class="cls-2" d="M36.24,25.23c-7.86,12.59-3.37,29.37,9.93,37a27,27,0,0,0,37.42-8.52c7.87-12.6,3.37-29.38-9.93-37-12.4-7.17-29.37-3.37-37.42,8.53"/><path class="cls-6" d="M72,44.11c-1,1.77-.91,3.61,0,4.13s2.54-.31,4-1.83.9-3.61,0-4.12a3.28,3.28,0,0,0-4,1.82"/><path class="cls-6" d="M47.9,29.59c-1,1.78-.9,3.62,0,4.13s3,0,4-1.82.9-3.62,0-4.13c-1.33-.77-3,.05-4,1.82"/><path class="cls-6" d="M61.28,47.36s-5.13-2.37-6-4c-.34,5.71,6,4,6,4"/><path class="cls-7" d="M69.42,56.79S46.6,51.3,39.8,38.51c-7.49,14,14.7,33.89,29.62,18.28"/><path class="cls-8" d="M49.19,54c6.6.86,8.42,4.86,8.72,7.4A17.56,17.56,0,0,1,48.66,59a20.84,20.84,0,0,1-7.52-8.48c3.69-.24,7.23,1.81,8,3.46"/><path class="cls-5" d="M54.33,10.26c-1.28,2.22,5,8.78,15,14,9.3,5.37,18.11,7.51,19.65,4.85,1.28-2.22-5-8.78-15-14C64.24,9.48,55.87,7.6,54.33,10.26"/><path class="cls-2" d="M65.28,76.26a34.64,34.64,0,0,0,24.15,6.26l.51-.88s2.3-4,5.36-5.18,3.63-3.22,5-2.46c1.77,1-1.42,4.5-2.82,4.88,3.94-.68,9.91-.78,11.43.68s-.14,2.29-2.87,1.9a23.65,23.65,0,0,0-6,.1s7.11,0,9.07,1.69c2.22,1.28.5,3.24-1.72,2-2-.58-8.44-.74-8.44-.74s4.57.28,7.23,1.81.94,3.5-.84,2.47-7.48-1.36-7.48-1.36,4.5,1.41,6.65,3.83-.21,3.43-3.24.5c-3.29-2.49-5.76-3.33-8.05-3.47l-1.33-.76C75.62,91.1,60.81,82,60.81,82s-2.08-3.56,4.47-5.69"/><path class="cls-3" d="M71.8,78.26A50.31,50.31,0,0,1,64.5,93s-10.89-5.7-17.59-12.52L60.23,68.62c-.44-.25,6.89,7.52,11.57,9.64"/><g class="cls-9"><path class="cls-5" d="M54.59,9.82c-1.28,2.22,5,8.78,15,14,9.31,5.37,18.12,7.5,19.66,4.85,1.28-2.22-5-8.79-15-14S55.87,7.6,54.59,9.82"/></g></svg>