<?xml version="1.0" encoding="utf-8"?>
<!-- Generator: Adobe Illustrator 22.1.0, SVG Export Plug-In . SVG Version: 6.00 Build 0)  -->
<svg version="1.1" id="Layer_1" xmlns="http://www.w3.org/2000/svg" xmlns:xlink="http://www.w3.org/1999/xlink" x="0px" y="0px"
	 viewBox="0 0 26.5 20.6" style="enable-background:new 0 0 26.5 20.6;" xml:space="preserve">
<style type="text/css">
	.st0{fill:#E28B59;}
	.st1{fill:#EF4B45;}
	.st2{fill:#FBB75C;}
	.st3{fill:#593B31;}
	.st4{fill:#A15325;}
	.st5{fill:#924E26;}
	.st6{fill:#ED6861;}
</style>
<path class="st0" d="M18.1,12.8c2.1,0.2,3.8-0.6,4.7-1.3l0-0.2c0,0,0-0.9,0.4-1.4c0.4-0.5,0.3-0.9,0.6-0.9c0.4,0,0.2,0.9,0,1.1
	c0.6-0.5,1.6-1.1,2-1c0.4,0.1,0.2,0.4-0.3,0.6c-0.5,0.2-1,0.6-1,0.6s1.2-0.7,1.7-0.6c0.5,0,0.4,0.5-0.1,0.5
	c-0.4,0.1-1.5,0.7-1.5,0.7s0.8-0.4,1.4-0.4c0.6,0,0.5,0.5,0.1,0.5c-0.4,0-1.4,0.5-1.4,0.5s0.9-0.2,1.5,0c0.6,0.2,0.3,0.6-0.5,0.4
	c-0.8-0.1-1.3,0-1.7,0.2c-0.1,0-0.2,0-0.3,0c-2.4,2.2-5.8,2.1-5.8,2.1S17.2,13.8,18.1,12.8z"/>
<g>
	<path class="st1" d="M19.5,12.5c0.4,1.8,0.2,3.2,0.2,3.2s-2.4,0.1-4.2-0.4l0.4-3.6C15.9,11.7,18.5,12.6,19.5,12.5z"/>
</g>
<title>boy-yellow-shirt</title>
<path class="st0" d="M8.4,13.4c-2.1,0.2-3.8-0.6-4.7-1.3l0-0.2c0,0,0-0.9-0.4-1.4C2.9,10.1,3,9.7,2.7,9.8c-0.4,0-0.2,0.9,0,1.1
	c-0.6-0.5-1.6-1.1-2-1C0.3,9.9,0.5,10.3,1,10.5c0.5,0.2,1,0.6,1,0.6s-1.2-0.7-1.7-0.6c-0.5,0-0.4,0.5,0.1,0.5
	c0.4,0.1,1.5,0.7,1.5,0.7s-0.8-0.4-1.4-0.4c-0.6,0-0.5,0.5-0.1,0.5c0.4,0,1.4,0.5,1.4,0.5s-0.9-0.2-1.5,0c-0.6,0.2-0.3,0.6,0.5,0.4
	c0.8-0.1,1.3,0,1.7,0.2c0.1,0,0.2,0,0.3,0C5.3,15.1,8.7,15,8.7,15S9.3,14.5,8.4,13.4z"/>
<g>
	<path class="st1" d="M7,13.1c-0.4,1.8-0.2,3.2-0.2,3.2s2.4,0.1,4.2-0.4l-0.4-3.6C10.6,12.3,8,13.2,7,13.1z"/>
</g>
<path class="st2" d="M19.6,18.5c0,0-0.7,0.8-4.7,1.7c-4,0.8-4.4,0.3-4.4,0.3l-0.5-8l2.8-1.2l2.9,0.1L19.6,18.5z"/>
<path class="st1" d="M15.2,12.4c0.2,1.1-0.5,2.1-1.6,2.3c-1.1,0.2-2.2-0.4-2.4-1.5c-0.2-1.1,0.5-2.1,1.6-2.3
	C13.9,10.6,15,11.3,15.2,12.4z"/>
<path class="st0" d="M14.8,12.1c0.2,0.9-0.4,1.7-1.3,1.9c-0.9,0.2-1.8-0.4-1.9-1.2c-0.2-0.9,0.4-1.7,1.3-1.9
	C13.7,10.7,14.6,11.2,14.8,12.1z"/>
<g>
	<g>
		<path class="st3" d="M17.8,6.3c0.6,0.4,0.5,0.9-0.1,1.1C18.1,8,18,8.4,17.3,8.5c0.4,0.6,0.2,1-0.5,1c0.3,0.7,0,1-0.7,0.8
			c0.1,0.7-0.2,1-0.9,0.7c0,0.7-0.4,0.9-1,0.5c-0.2,0.7-0.6,0.8-1.1,0.3c-0.3,0.7-0.7,0.7-1.2,0.1c-0.4,0.6-0.9,0.5-1.1-0.1
			c-0.5,0.5-0.9,0.4-1.1-0.4c-0.6,0.4-1,0.2-1-0.5c-0.7,0.3-1,0-0.8-0.7c-0.7,0.1-1-0.2-0.7-0.9c-0.7,0-0.9-0.4-0.5-1
			C6,8.1,5.9,7.7,6.4,7.2C5.8,6.9,5.7,6.4,6.4,6C5.8,5.6,5.8,5.1,6.5,4.9C6,4.3,6.1,3.9,6.9,3.8c-0.4-0.6-0.2-1,0.5-1
			c-0.3-0.7,0-1,0.7-0.8C8,1.3,8.3,1.1,9,1.3c0-0.7,0.4-0.9,1-0.5C10.1,0.1,10.5,0,11,0.5c0.3-0.7,0.7-0.7,1.2-0.1
			c0.4-0.6,0.9-0.5,1.1,0.1c0.5-0.5,0.9-0.4,1.1,0.4c0.6-0.4,1-0.2,1,0.5c0.7-0.3,1,0,0.8,0.7c0.7-0.1,1,0.2,0.7,0.9
			c0.7,0,0.9,0.4,0.5,1c0.7,0.2,0.8,0.6,0.3,1.1C18.4,5.4,18.4,5.8,17.8,6.3z"/>
	</g>
	<g>
		<path class="st0" d="M7.8,8.2c0,0.9-0.7,1.7-1.7,1.7c-0.9,0-1.7-0.7-1.7-1.7c0-0.9,0.7-1.7,1.7-1.7C7,6.5,7.8,7.2,7.8,8.2z"/>
		<path class="st0" d="M19.2,7.9c0,0.9-0.7,1.7-1.7,1.7c-0.9,0-1.7-0.7-1.7-1.7c0-0.9,0.7-1.7,1.7-1.7C18.4,6.2,19.2,7,19.2,7.9z"/>
		<path class="st4" d="M6.1,9.2c-0.5,0-1-0.4-1-0.9c0-0.5,0.4-1,0.9-1c0.5,0,1,0.4,1,0.9C7.1,8.7,6.7,9.2,6.1,9.2L6.1,9.2z"/>
		<path class="st4" d="M17.5,8.9c-0.5,0-0.9-0.4-1-0.9c0-0.5,0.4-0.9,0.9-1c0.5,0,0.9,0.4,1,0.9C18.5,8.4,18.1,8.9,17.5,8.9
			L17.5,8.9z"/>
		<path class="st0" d="M17.4,7.9c0.1,2.9-2.3,5.3-5.3,5.3c-3,0.1-5.4-2.2-5.5-5.1c-0.1-2.9,2.3-5.3,5.3-5.3
			C14.9,2.7,17.3,5,17.4,7.9z"/>
		<path class="st4" d="M9.6,7.6c0,0.4-0.2,0.7-0.4,0.7C9,8.3,8.8,8,8.8,7.6c0-0.4,0.2-0.7,0.4-0.7C9.4,6.9,9.6,7.2,9.6,7.6z"/>
		<path class="st4" d="M15.2,7.4c0,0.4-0.2,0.7-0.4,0.7c-0.2,0-0.5-0.3-0.5-0.7c0-0.4,0.2-0.7,0.4-0.7C14.9,6.8,15.1,7.1,15.2,7.4z"
			/>
		<path class="st4" d="M11.1,9.1c0,0,1.1,0.1,1.4-0.1C12,10,11.1,9.1,11.1,9.1z"/>
		<path class="st5" d="M8.7,9.9c0,0,4.4,1.3,6.8-0.2C15.4,12.8,9.8,14,8.7,9.9z"/>
		<g>
			<path class="st6" d="M12.4,11.4c-1.2-0.5-1.9,0-2.2,0.4c0.5,0.3,1.1,0.5,1.8,0.5c0.7,0,1.5-0.3,2.1-0.7
				C13.6,11.2,12.8,11.2,12.4,11.4z"/>
		</g>
	</g>
	<path class="st3" d="M15.9,3.5c0,0.5-1.7,1-3.9,0.9c-2.1,0-3.8-0.5-3.8-1.1c0-0.5,1.7-1,3.9-0.9C14.2,2.5,15.9,2.9,15.9,3.5z"/>
</g>
</svg>
