<?xml version="1.0" encoding="utf-8"?>
<!-- Generator: Adobe Illustrator 22.1.0, SVG Export Plug-In . SVG Version: 6.00 Build 0)  -->
<svg version="1.1" id="Layer_1" xmlns="http://www.w3.org/2000/svg" xmlns:xlink="http://www.w3.org/1999/xlink" x="0px" y="0px"
	 viewBox="0 0 26.6 25.5" style="enable-background:new 0 0 26.6 25.5;" xml:space="preserve">
<style type="text/css">
	.st0{fill:#4E598C;}
	.st1{fill:#E28B59;}
	.st2{fill:#EF4B45;}
	.st3{fill:#FBB75C;}
	.st4{fill:#593B31;}
	.st5{fill:#A15325;}
	.st6{fill:#924E26;}
	.st7{fill:#ED6861;}
</style>
<rect x="7.1" y="18.8" transform="matrix(0.9745 0.2245 -0.2245 0.9745 5.1581 -1.9457)" class="st0" width="8.1" height="5.9"/>
<path class="st1" d="M8.4,12.8c-2.1,0.2-3.8-0.6-4.7-1.3v-0.2c0,0,0-0.9-0.4-1.4S3,9,2.7,9c-0.4,0-0.2,0.9,0,1.1
	c-0.6-0.5-1.6-1.1-2-1S0.5,9.5,1,9.7s1,0.6,1,0.6S0.8,9.6,0.3,9.7c-0.5,0-0.4,0.5,0.1,0.5c0.4,0.1,1.5,0.7,1.5,0.7s-0.8-0.4-1.4-0.4
	S0,11,0.4,11s1.4,0.5,1.4,0.5s-0.9-0.2-1.5,0S0,12.1,0.8,11.9c0.8-0.1,1.3,0,1.7,0.2c0.1,0,0.2,0,0.3,0c2.4,2.2,5.8,2.1,5.8,2.1
	S9.3,13.8,8.4,12.8z"/>
<g>
	<path class="st2" d="M7,12.5c-0.4,1.8-0.2,3.2-0.2,3.2s2.4,0.1,4.2-0.4l-0.4-3.6C10.6,11.7,8,12.6,7,12.5z"/>
</g>
<title>boy-yellow-shirt</title>
<path class="st1" d="M18.1,13.4c2.1,0.2,3.8-0.6,4.7-1.3v-0.2c0,0,0-0.9,0.4-1.4c0.4-0.4,0.3-0.8,0.6-0.7c0.4,0,0.2,0.9,0,1.1
	c0.6-0.5,1.6-1.1,2-1c0.4,0,0.2,0.4-0.3,0.6s-1,0.6-1,0.6s1.2-0.7,1.7-0.6c0.5,0,0.4,0.5-0.1,0.5c-0.4,0.1-1.5,0.7-1.5,0.7
	s0.8-0.4,1.4-0.4s0.5,0.5,0.1,0.5s-1.4,0.5-1.4,0.5s0.9-0.2,1.5,0s0.3,0.6-0.5,0.4c-0.8-0.1-1.3,0-1.7,0.2c-0.1,0-0.2,0-0.3,0
	c-2.5,2.2-5.9,2.1-5.9,2.1S17.2,14.5,18.1,13.4z"/>
<g>
	<path class="st2" d="M19.5,13.1c0.4,1.8,0.2,3.2,0.2,3.2s-2.4,0.1-4.2-0.4l0.4-3.6C15.9,12.3,18.5,13.2,19.5,13.1z"/>
</g>
<path class="st3" d="M6.9,18.5c0,0,0.7,0.8,4.7,1.7c4,0.8,4.4,0.3,4.4,0.3l0.5-8l-2.8-1.2l-2.9,0.1L6.9,18.5z"/>
<path class="st2" d="M11.3,12.4c-0.2,1.1,0.5,2.1,1.6,2.3s2.2-0.4,2.4-1.5c0.2-1.1-0.5-2.1-1.6-2.3C12.6,10.6,11.5,11.3,11.3,12.4z"
	/>
<path class="st1" d="M11.7,12.1C11.5,13,12.1,13.8,13,14s1.8-0.4,1.9-1.2c0.2-0.9-0.4-1.7-1.3-1.9C12.8,10.7,11.9,11.2,11.7,12.1z"
	/>
<g>
	<g>
		<path class="st4" d="M8.7,6.3C8.1,6.7,8.2,7.2,8.8,7.4C8.4,8,8.5,8.4,9.2,8.5c-0.4,0.6-0.2,1,0.5,1c-0.3,0.7,0,1,0.7,0.8
			c-0.1,0.7,0.2,1,0.9,0.7c0,0.7,0.4,0.9,1,0.5c0.2,0.7,0.6,0.8,1.1,0.3c0.3,0.7,0.7,0.7,1.2,0.1c0.4,0.6,0.9,0.5,1.1-0.1
			c0.5,0.5,0.9,0.4,1.1-0.4c0.6,0.4,1,0.2,1-0.5c0.7,0.3,1,0,0.8-0.7c0.7,0.1,1-0.2,0.7-0.9c0.7,0,0.9-0.4,0.5-1
			c0.7-0.2,0.8-0.6,0.3-1.1c0.6-0.3,0.7-0.8,0-1.2c0.6-0.4,0.6-0.9-0.1-1.1c0.5-0.6,0.4-1-0.4-1.1c0.4-0.6,0.2-1-0.5-1
			c0.3-0.7,0-1-0.7-0.8c0.1-0.7-0.2-0.9-0.9-0.7c0-0.7-0.4-0.9-1-0.5c-0.1-0.7-0.5-0.8-1-0.3c-0.3-0.7-0.7-0.7-1.2-0.1
			c-0.4-0.6-0.9-0.5-1.1,0.1c-0.5-0.5-0.9-0.4-1.1,0.4c-0.6-0.4-1-0.2-1,0.5c-0.7-0.3-1,0-0.8,0.7C9.6,2,9.3,2.3,9.6,3
			C8.9,3,8.7,3.4,9.1,4C8.4,4.2,8.3,4.6,8.8,5.1C8.1,5.4,8.1,5.8,8.7,6.3z"/>
	</g>
	<g>
		<path class="st1" d="M18.7,8.2c0,0.9,0.7,1.7,1.7,1.7c0.9,0,1.7-0.7,1.7-1.7c0-0.9-0.7-1.7-1.7-1.7C19.5,6.5,18.7,7.2,18.7,8.2z"
			/>
		<path class="st1" d="M7.3,7.9C7.3,8.8,8,9.6,9,9.6c0.9,0,1.7-0.7,1.7-1.7C10.7,7,10,6.2,9,6.2C8.1,6.2,7.3,7,7.3,7.9z"/>
		<path class="st5" d="M20.4,9.2c0.5,0,1-0.4,1-0.9s-0.4-1-0.9-1s-1,0.4-1,0.9C19.4,8.7,19.8,9.2,20.4,9.2L20.4,9.2z"/>
		<path class="st5" d="M9,8.9c0.5,0,0.9-0.4,1-0.9c0-0.5-0.4-0.9-0.9-1c-0.5,0-0.9,0.4-1,0.9S8.4,8.9,9,8.9L9,8.9z"/>
		<path class="st1" d="M9.1,7.9c-0.1,2.9,2.3,5.3,5.3,5.3c3,0.1,5.4-2.2,5.5-5.1s-2.3-5.3-5.3-5.3C11.6,2.7,9.2,5,9.1,7.9z"/>
		<path class="st5" d="M16.9,7.6c0,0.4,0.2,0.7,0.4,0.7c0.2,0,0.4-0.3,0.4-0.7c0-0.4-0.2-0.7-0.4-0.7C17.1,6.9,16.9,7.2,16.9,7.6z"
			/>
		<path class="st5" d="M11.3,7.4c0,0.4,0.2,0.7,0.4,0.7s0.5-0.3,0.5-0.7c0-0.4-0.2-0.7-0.4-0.7C11.6,6.8,11.4,7.1,11.3,7.4z"/>
		<path class="st5" d="M15.4,9.1c0,0-1.1,0.1-1.4-0.1C14.5,10,15.4,9.1,15.4,9.1z"/>
		<path class="st6" d="M17.8,9.9c0,0-4.4,1.3-6.8-0.2C11.1,12.8,16.7,14,17.8,9.9z"/>
		<g>
			<path class="st7" d="M14.1,11.4c1.2-0.5,1.9,0,2.2,0.4c-0.5,0.3-1.1,0.5-1.8,0.5S13,12,12.4,11.6C12.9,11.2,13.7,11.2,14.1,11.4z
				"/>
		</g>
	</g>
	<path class="st4" d="M10.6,3.5c0,0.5,1.7,1,3.9,0.9c2.1,0,3.8-0.5,3.8-1.1c0-0.5-1.7-1-3.9-0.9C12.3,2.5,10.6,2.9,10.6,3.5z"/>
</g>
</svg>
