<svg id="Layer_1" data-name="Layer 1" xmlns="http://www.w3.org/2000/svg" viewBox="0 0 34.33 30.22"><defs><style>.cls-1{fill:#fee1c8;}.cls-2{fill:#cb2284;}.cls-3{fill:#e9a8ca;}.cls-4{fill:#e58f55;}.cls-5{fill:#c55429;}.cls-6{fill:#913421;}</style></defs><title>boy-red-shirt</title><path class="cls-1" d="M17.3,17.93,17.46,20c.55.47,4.18,1.92,9.1-2.09.31,1.24,2.19,1.23,3.48,1.05s1.09-.71.56-.73a7.74,7.74,0,0,1-1.67-.44,15.64,15.64,0,0,1,1.78-.06c1.21,0,1.27-.85.6-.83a8.33,8.33,0,0,0-1.43,0,10,10,0,0,1-1.07-.06,11.3,11.3,0,0,0,2.8-.58c.92-.35.59-1.05-.21-.76s-2.8.59-2.67.32a21.84,21.84,0,0,1,2.66-.76c.7-.34.42-.91-.29-.57A7.86,7.86,0,0,1,28,15c-.28-.13.51-.65.55-1s.14-1-.52-.79-.25.54-1.08,1.15A2.52,2.52,0,0,0,26.32,16c-5.61,3.58-9,1.91-9,1.91" transform="translate(2.17 0.73)"/><path class="cls-2" d="M14.18,17.05a15.76,15.76,0,0,0,4.72.51c.54,1.46-.19,5.2-.19,5.2a57.72,57.72,0,0,1-7.16-1.42c-1.59-.62,2.63-4.29,2.63-4.29" transform="translate(2.17 0.73)"/><path class="cls-3" d="M9.28,16.22a8.15,8.15,0,0,0,5,.87l.09,0L10.92,28.2A10,10,0,0,1,4.5,29.37,8.74,8.74,0,0,1,.59,27.7c-.86-.66-2.68-2.08-2.76-4,0,0-.05-1.37,4.37-6.23h0q2-2,4-4A8.56,8.56,0,0,0,9.28,16.22Z" transform="translate(2.17 0.73)"/><path class="cls-2" d="M6.86,14.78a3.06,3.06,0,1,0,4.08-1.21,3,3,0,0,0-4.08,1.21" transform="translate(2.17 0.73)"/><path class="cls-1" d="M7.52,14.54a2.4,2.4,0,0,0,1.14,3.27,2.4,2.4,0,1,0,2.18-4.28,2.61,2.61,0,0,0-3.32,1" transform="translate(2.17 0.73)"/><path class="cls-1" d="M19.37,11.51a2.58,2.58,0,1,0,3.21-1.72,2.59,2.59,0,0,0-3.21,1.72" transform="translate(2.17 0.73)"/><path class="cls-1" d="M2.84,6.77A2.57,2.57,0,1,0,6.05,5.05,2.58,2.58,0,0,0,2.84,6.77" transform="translate(2.17 0.73)"/><path class="cls-4" d="M21.45,13.67a1.47,1.47,0,1,0,.76-2.84,1.49,1.49,0,0,0-1.8,1,1.5,1.5,0,0,0,1,1.8" transform="translate(2.17 0.73)"/><path class="cls-4" d="M4.78,8.76a1.41,1.41,0,1,0,.81-2.71A1.39,1.39,0,0,0,3.83,7a1.62,1.62,0,0,0,1,1.75" transform="translate(2.17 0.73)"/><path class="cls-1" d="M5.45,7.31a7.91,7.91,0,0,0,5.64,9.75,8.11,8.11,0,0,0,10-5.3A7.91,7.91,0,0,0,15.48,2a8.18,8.18,0,0,0-10,5.3" transform="translate(2.17 0.73)"/><path class="cls-4" d="M7.69,10.1s5,4,8.78,3.16c-1.61,4-9.44,2.59-8.78-3.16" transform="translate(2.17 0.73)"/><path class="cls-5" d="M11.75,14a2.59,2.59,0,0,0-3-.71,4.19,4.19,0,0,0,2.06,1.5,5.67,5.67,0,0,0,3,.17,2.31,2.31,0,0,0-2.09-1" transform="translate(2.17 0.73)"/><path class="cls-4" d="M16.81,9.89c-.16.59,0,1.07.35,1.15s.8-.29.91-.79.06-1.08-.35-1.15c-.18-.09-.66.24-.91.79" transform="translate(2.17 0.73)"/><path class="cls-4" d="M8.86,7.56c-.16.58-.06,1.07.35,1.15s.8-.3.91-.79.06-1.08-.35-1.16-.7.34-.91.8" transform="translate(2.17 0.73)"/><path class="cls-6" d="M5.18,7.41A10,10,0,0,0,6,2.19c4.23-3.45,9.93-4.35,17.55.14-4.3-1.43-5.27-1-5.27-1S23.78,2.63,25,6c-2.87-2.86-4.81-2.21-4.81-2.21l2.36,3.72-1.3,4A6.07,6.07,0,0,0,19.6,6.22C16.68,7.3,7.38,4.79,7.38,4.79c-.86,1.14-2.2,2.62-2.2,2.62" transform="translate(2.17 0.73)"/><path class="cls-4" d="M14.18,11.54a8.49,8.49,0,0,1-2-.6c.27,1.55,2,.6,2,.6" transform="translate(2.17 0.73)"/></svg>