<?xml version="1.0" encoding="utf-8"?>
<!-- Generator: Adobe Illustrator 22.1.0, SVG Export Plug-In . SVG Version: 6.00 Build 0)  -->
<svg version="1.1" id="Layer_1" xmlns="http://www.w3.org/2000/svg" xmlns:xlink="http://www.w3.org/1999/xlink" x="0px" y="0px"
	 viewBox="0 0 110.1 99.7" style="enable-background:new 0 0 110.1 99.7;" xml:space="preserve">
<style type="text/css">
	.st0{fill:#EA433C;}
	.st1{fill:#FBB957;}
	.st2{fill:#E58F55;}
	.st3{fill:#5D3D34;}
	.st4{fill:#A05124;}
	.st5{fill:#934D23;}
	.st6{fill:#EE685F;}
	.st7{clip-path:url(#SVGID_2_);}
</style>
<title>boy-yellow-shirt</title>
<path class="st0" d="M69.7,75.8c-1.6,5.3-4.1,10.2-7.3,14.7c0,0-10.9-5.7-17.6-12.5l11-14.9c0,0,0,0,0,0c-0.1,0.1,4.5,4.7,13.6,13.8
	"/>
<path class="st1" d="M0,67.5c0,0,1.1,5.3,16.5,19.6c15.7,13.8,18.7,12.6,18.7,12.6l22.7-34.2L48.6,53l-13.1-7L0,67.5z"/>
<path class="st0" d="M34.5,50.8c-3.6,4.2-3.2,10.5,1,14.1c0.1,0.1,0.1,0.1,0.2,0.2c4.4,3.7,10.8,3.9,14.5-0.5
	c3.6-4.2,3.2-10.5-0.9-14.1c-0.1-0.1-0.1-0.1-0.2-0.2C45.1,46.9,38.4,47.1,34.5,50.8"/>
<path class="st2" d="M37.2,51.2c-3.2,3.5-2.6,8.6,0.9,11.8s9,2.8,11.5-0.5c3.2-3.5,2.6-8.6-0.9-11.8c-3.1-3.1-8.1-3-11.1,0.1
	C37.4,50.9,37.3,51.1,37.2,51.2"/>
<path class="st3" d="M38.8,17.8c-3.7,0.2-4.5,2.7-2.4,5.1c-3.5,0.9-4.1,3-1,5.9c-3.4,1.6-3.5,3.9-0.4,5.7c-3.1,2.3-2.6,4.4,1.1,5.3
	c-2.2,2.8-1.7,4.9,2.2,5.4c-1.8,3.1-0.5,5,3.2,4.8c-0.9,3.6,0.6,5.1,4.1,4.1c-0.5,3.9,1.3,4.9,5.1,3.5c0.2,3.7,2.7,4.5,5.1,2.4
	c0.9,3.5,3,4.1,5.9,1c1.6,3.3,3.9,3.4,5.7,0.3c2.3,3.1,4.4,2.6,5.3-1.1c2.8,2.2,5,1.7,5.4-2.2c3.1,1.8,5,0.5,4.8-3.2
	c3.6,0.9,5.1-0.6,4.2-4.1c3.9,0.5,4.9-1.3,3.5-5.1c3.7-0.2,4.5-2.7,2.4-5.1c3.5-0.9,4.1-3,1.1-5.9c3.3-1.6,3.4-3.9,0.3-5.7
	c3.1-2.3,2.6-4.4-1.1-5.3c2.2-2.8,1.7-4.9-2.2-5.4c1.8-3.1,0.5-5-3.2-4.8c0.9-3.6-0.6-5.1-4.1-4.1c0.5-3.9-1.3-4.9-5.1-3.5
	c-0.2-3.7-2.7-4.5-5.1-2.4c-0.9-3.5-3-4.1-5.9-1c-1.6-3.3-3.9-3.5-5.7-0.4c-2.3-3.1-4.4-2.6-5.3,1c-2.8-2.2-5-1.7-5.4,2.2
	c-3.1-1.8-5-0.5-4.8,3.2c-3.6-0.9-5.1,0.6-4.2,4.1C38.8,12.5,36.9,13.8,38.8,17.8"/>
<path class="st2" d="M78.2,51.8c-2.4,4.2-1,9.5,3.2,11.9c4.2,2.4,9.5,1,11.9-3.2s1-9.5-3.2-11.9c0,0,0,0,0,0
	c-4.1-2.4-9.4-1.1-11.8,3C78.3,51.7,78.2,51.8,78.2,51.8"/>
<path class="st2" d="M28,21.1c-2.4,4.2-1,9.5,3.2,11.9c4.2,2.4,9.5,1,11.9-3.2c2.4-4.2,1-9.5-3.2-11.9c0,0,0,0,0,0
	C35.7,15.6,30.5,17,28,21.1"/>
<path class="st4" d="M83.2,60.6c2.2,1.3,5.5,0.8,6.7-1.4s0.8-5.5-1.4-6.7s-5.5-0.8-6.7,1.4C80,55.9,80.3,58.4,83.2,60.6"/>
<path class="st4" d="M33.4,30.1c2.3,1.2,5.1,0.6,6.7-1.4c1.2-2.3,0.6-5.1-1.4-6.7c-2.3-1.2-5.1-0.6-6.7,1.4
	C30.3,25.4,31.2,28.8,33.4,30.1"/>
<path class="st2" d="M36.2,25.2c-7.9,12.6-3.4,29.4,9.9,37c12.6,8,29.3,4.3,37.3-8.3c0-0.1,0.1-0.2,0.1-0.2
	c7.9-12.6,3.4-29.4-9.9-37C61.3,9.5,44.3,13.3,36.2,25.2"/>
<path class="st4" d="M72,44.1c-1,1.8-0.9,3.6,0,4.1s2.5-0.3,4-1.8s0.9-3.6,0-4.1C74.4,41.8,72.7,42.6,72,44.1"/>
<path class="st4" d="M47.9,29.6c-1,1.8-0.9,3.6,0,4.1s3,0,4-1.8s0.9-3.6,0-4.1C50.6,27,48.9,27.8,47.9,29.6"/>
<path class="st4" d="M61.3,47.4c0,0-5.1-2.4-6-4C54.9,49.1,61.3,47.4,61.3,47.4"/>
<path class="st5" d="M69.4,56.8c0,0-22.8-5.5-29.6-18.3C32.3,52.5,54.5,72.4,69.4,56.8"/>
<path class="st6" d="M49.2,54c6.6,0.9,8.4,4.9,8.7,7.4c-3.2,0.1-6.4-0.8-9.2-2.4c-3.2-2.1-5.8-5-7.5-8.5
	C44.8,50.3,48.4,52.3,49.2,54"/>
<path class="st3" d="M54.3,10.3c-1.3,2.2,5,8.8,15,14c9.3,5.4,18.1,7.5,19.7,4.9c1.3-2.2-5-8.8-15-14C64.2,9.5,55.9,7.6,54.3,10.3"
	/>
<path class="st2" d="M65.3,76.3c7,5,15.6,7.2,24.2,6.3l0.5-0.9c0,0,2.3-4,5.4-5.2s3.6-3.2,5-2.5c1.8,1-1.4,4.5-2.8,4.9
	c3.9-0.7,9.9-0.8,11.4,0.7s-0.1,2.3-2.9,1.9c-2-0.2-4-0.2-6,0.1c0,0,7.1,0,9.1,1.7c2.2,1.3,0.5,3.2-1.7,2c-2-0.6-8.4-0.7-8.4-0.7
	s4.6,0.3,7.2,1.8s0.9,3.5-0.8,2.5s-7.5-1.4-7.5-1.4s4.5,1.4,6.7,3.8s-0.2,3.4-3.2,0.5c-3.3-2.5-5.8-3.3-8.1-3.5l-1.3-0.8
	C75.6,91.1,60.8,82,60.8,82S58.7,78.4,65.3,76.3"/>
<path class="st0" d="M71.8,78.3c-1.6,5.3-4.1,10.3-7.3,14.7c0,0-10.9-5.7-17.6-12.5l13.3-11.9C59.8,68.4,67.1,76.1,71.8,78.3"/>
<g>
	<defs>
		<polygon id="SVGID_1_" points="120.7,24.3 85.1,85.9 65.2,74.4 101.6,13.3 		"/>
	</defs>
	<clipPath id="SVGID_2_">
		<use xlink:href="#SVGID_1_"  style="overflow:visible;"/>
	</clipPath>
	<g class="st7">
		<path class="st3" d="M54.6,9.8c-1.3,2.2,5,8.8,15,14c9.3,5.4,18.1,7.5,19.7,4.9c1.3-2.2-5-8.8-15-14S55.9,7.6,54.6,9.8"/>
	</g>
</g>
</svg>
