<svg id="Layer_1" data-name="Layer 1" xmlns="http://www.w3.org/2000/svg" viewBox="0 0 24.91 23.73"><defs><style>.cls-1{fill:#fad69e;}.cls-2{fill:#4d1f1d;}.cls-3{fill:#09703b;}.cls-4{fill:#78bd43;}.cls-5{fill:#ea433c;}.cls-6{fill:#de1f2c;}.cls-7{fill:#e58e24;}.cls-8{fill:#c55429;}</style></defs><title>girl-apple</title><path class="cls-1" d="M8.16,12.43a7.9,7.9,0,0,1-4.1-4.3l.1-.2a3.31,3.31,0,0,0,.4-1.7c-.1-.8.3-1.1-.1-1.3s-.8.9-.7,1.2a5.34,5.34,0,0,0-1.4-2.3c-.5-.2-.5.3,0,.8a6.09,6.09,0,0,1,.7,1.2s-.9-1.5-1.4-1.7-.7.3-.3.6a7.64,7.64,0,0,1,1.1,1.6A5.65,5.65,0,0,0,1.26,5c-.6-.4-.8.2-.4.5a10.06,10.06,0,0,1,1.2,1.4A4.12,4.12,0,0,0,.46,6c-.7-.1-.6.4.3.8A5,5,0,0,1,2.46,8c.1.1.2.2.3.2A11.24,11.24,0,0,0,7.66,14s.8.1.5-1.6" transform="translate(0 0)"/><path class="cls-2" d="M9.76,8.53a1.32,1.32,0,0,1-1.7.6,1.28,1.28,0,0,1-.5-1.7,1.32,1.32,0,0,1,1.7-.6,1.52,1.52,0,0,1,.5,1.7" transform="translate(0 0)"/><path class="cls-2" d="M7.76,8.63a1.32,1.32,0,0,1-1.7.6,1.28,1.28,0,0,1-.5-1.7,1.32,1.32,0,0,1,1.7-.6,1.28,1.28,0,0,1,.5,1.7" transform="translate(0 0)"/><path class="cls-2" d="M5.86,7.93c0,.7-1.3,1.3-2,1.3s-.7-2.5-.1-2.5,2.1.5,2.1,1.2" transform="translate(0 0)"/><path class="cls-3" d="M6.86,11.23a11.44,11.44,0,0,0-2.2,3.2,23.29,23.29,0,0,0,4.7,2.2l1.9-4a12.42,12.42,0,0,1-4.4-1.4" transform="translate(0 0)"/><path class="cls-4" d="M18.46,23.53s-1,.6-5.9-.3-4.5-2-4.5-2l2.4-8.6,3.7-.1,3.4,1.3Z" transform="translate(0 0)"/><path class="cls-5" d="M15.26,20a2.08,2.08,0,1,1-4.1-.7c.2-1.1,1.1-2.2,2.3-1.2,1.7.3,2,.8,1.8,1.9" transform="translate(0 0)"/><path class="cls-6" d="M11.86,19.53a1.77,1.77,0,0,1,.9-1.4c-.7,0-1.2.7-1.4,1.3a1.8,1.8,0,0,0,1.3,1.9,1.84,1.84,0,0,1-.8-1.8" transform="translate(0 0)"/><path class="cls-3" d="M13.46,18.13s-.4-1.2-1.4-1.4c-.5,1.1,1.4,1.4,1.4,1.4" transform="translate(0 0)"/><path class="cls-3" d="M13.36,18.13a1.85,1.85,0,0,0,2.2-.3c-.7-.9-2.2.3-2.2.3" transform="translate(0 0)"/><path class="cls-3" d="M16.46,14.73c-.2,1.3-1.5,2.6-2.7.9-1.7,1.2-2.4-.4-2.2-1.7a2.33,2.33,0,0,1,2.8-1.9,2.25,2.25,0,0,1,2.1,2.7" transform="translate(0 0)"/><path class="cls-1" d="M16.16,14.23c-.2,1.1-2.3,1.3-2.3,1.3s-1.9-1-1.7-2a2,2,0,0,1,2.3-1.6,2.08,2.08,0,0,1,1.7,2.3" transform="translate(0 0)"/><path class="cls-2" d="M23.56,11.53c-2,3.2-6.7,3.9-10.5,1.5S8,6.13,10,2.93s6.7-3.9,10.5-1.5,5.3,6.9,3.1,10.1" transform="translate(0 0)"/><path class="cls-2" d="M21.46,15.23a1.32,1.32,0,0,1-1.7.6,1.28,1.28,0,0,1-.5-1.7,1.32,1.32,0,0,1,1.7-.6,1.28,1.28,0,0,1,.5,1.7" transform="translate(0 0)"/><path class="cls-2" d="M22.76,17a1.32,1.32,0,0,1-1.7.6,1.28,1.28,0,0,1-.5-1.7,1.32,1.32,0,0,1,1.7-.6,1.39,1.39,0,0,1,.5,1.7" transform="translate(0 0)"/><path class="cls-2" d="M23.86,18.63c-.6-.2-2-1.2-1.8-1.9s2-.7,2.6-.5-.2,2.6-.8,2.4" transform="translate(0 0)"/><path class="cls-1" d="M11.76,6a2,2,0,1,1-3.4-2.2A2,2,0,1,1,11.76,6" transform="translate(0 0)"/><path class="cls-1" d="M23.16,13.23a2,2,0,1,1-.6-2.8,2.07,2.07,0,0,1,.6,2.8" transform="translate(0 0)"/><path class="cls-7" d="M9.46,5.83a1.23,1.23,0,0,1-.4-1.6,1.25,1.25,0,0,1,1.6-.4,1.25,1.25,0,0,1,.4,1.6,1.08,1.08,0,0,1-1.6.4" transform="translate(0 0)"/><path class="cls-7" d="M20.86,13.13a1.08,1.08,0,1,1,1.5-.3,1.21,1.21,0,0,1-1.5.3" transform="translate(0 0)"/><path class="cls-1" d="M21.36,11.93a6.25,6.25,0,0,1-8.7,1.8,6.27,6.27,0,0,1-2.1-8.6,6.25,6.25,0,0,1,8.7-1.8,6.27,6.27,0,0,1,2.1,8.6" transform="translate(0 0)"/><path class="cls-7" d="M14.46,9s1,.8,1.4.8c-1.1.7-1.4-.8-1.4-.8" transform="translate(0 0)"/><path class="cls-7" d="M11.46,8.33s3.5,4.3,6.8,4.2c-2.1,3-8.4.5-6.8-4.2" transform="translate(0 0)"/><path class="cls-8" d="M14.16,12.23a2.19,2.19,0,0,0-2.4-1.1,4,4,0,0,0,1.5,1.7,4.3,4.3,0,0,0,2.5.7,1.89,1.89,0,0,0-1.6-1.3" transform="translate(0 0)"/><path class="cls-7" d="M13.56,6.83c-.1.1-.3.1-.6-.1s-.4-.4-.3-.5.3-.1.6.1.5.4.3.5" transform="translate(0 0)"/><path class="cls-7" d="M19.06,10.33c-.1.1-.3,0-.5-.1s-.4-.4-.3-.4.3,0,.5.1.4.3.3.4" transform="translate(0 0)"/><path class="cls-2" d="M19.46,3a6.3,6.3,0,0,0-7.3.3,33.08,33.08,0,0,0,3.5,3.2l2.5-3L16,6.83c.5.3,1,.7,1.5,1l1.8-3.5-1.2,3.8a20,20,0,0,0,4.2,1.9,6.24,6.24,0,0,0-2.8-7" transform="translate(0 0)"/></svg>