<svg id="Layer_1" data-name="Layer 1" xmlns="http://www.w3.org/2000/svg" viewBox="0 0 200.71 202.27"><defs><style>.cls-1{fill:#fee1c8;}.cls-2{fill:#009fe4;}.cls-3{fill:#1e61ab;}.cls-4{fill:#fac39c;}.cls-5{fill:#e58f55;}.cls-6{fill:#c55429;}.cls-7{fill:#eb3a76;}</style></defs><title>girl-pink-hair</title><path class="cls-1" d="M4,120.53c7-1,17.14,3.69,17.14,3.69s-10.43-7.58-15.23-9.15S1,107.81,8.08,109.43s14.83,7.88,14.83,7.88S12.69,107.65,8,105.65s-4.92-7.27.49-6.5,18,11.65,18,11.65a43,43,0,0,0-10.07-9.37C10.83,98,9.53,93.5,14.34,93.89s14.54,9.21,20.07,16.85c-1.88-3-1.36-13.78,2.74-13.3s1.49,4.84,4.93,11.51,1.36,16.83,1.36,16.83l-.69,1.79A88.39,88.39,0,0,0,64.36,145c2.85-2.74,17.73-14,19.06-13.34-1.31,2.72,1,12.51-1.29,18.19-2-1.11-17.7,13.38-19.68,12.06-8.62-5.65-24.09-17.19-31-27.17a8.61,8.61,0,0,1-3.7-1.21,36.56,36.56,0,0,0-18.89-6.43C-.37,126.38-3,121.52,4,120.53"/><path class="cls-2" d="M74.87,134.36a15.25,15.25,0,0,1-6.66,3.2s9,21.26,11.37,21.23c2.71-2.87,4.44-4.39,4.44-4.39s17.37,5.34,26.75-11.93l-8.45-29.78s-29.46,1.2-27.45,21.67"/><path class="cls-2" d="M164.71,156.37,188.2,184s-8.63,14.33-39.8,13.79c-29.76-.49-39.87,4.44-39.87,4.44l2.55-39.42-10.53-53.06L127.65,99l26.55-4.87Z"/><path class="cls-3" d="M164.32,127.92l.4-.1c-3.81-7.8-7.5-19.28-7.76-34.78a13.31,13.31,0,0,0-1.69-1c-.91.75-1.79,1.55-2.6,2.36l-3.49.64c3.38,9.52,11.31,28.57,8,41.57-5.24-1.41-21.92.53-40.56,7.21-5.18-13.5-8.81-34.1-8.81-34.1l-6.94,4s14.56,25,9.76,46.8l.46,2.31-15.79,34.9s15.69-6.41,55.53-4.83c31.16,1.23,46.1-21.55,46.1-21.55L172,153.51Z"/><path class="cls-3" d="M150.79,109.69c1.8,10.18-5.94,17.26-17.69,14-9.3,7.94-18.76,3-20.52-7.23s5.29-20,15.83-21.85,20.58,4.88,22.38,15.1"/><path class="cls-1" d="M145.62,104.43c1.47,8.34-12.76,18.81-12.76,18.81s-17-5-18.46-13.3a15.86,15.86,0,0,1,31.22-5.51"/><path class="cls-1" d="M75.72,79.47a15.83,15.83,0,1,1-19.5-11,15.82,15.82,0,0,1,19.5,11"/><path class="cls-1" d="M178,51a15.84,15.84,0,1,1-19.53-11A15.83,15.83,0,0,1,178,51"/><path class="cls-4" d="M62.89,92.38a9,9,0,1,1,6.26-11.07,9,9,0,0,1-6.26,11.07"/><path class="cls-4" d="M165,63.64a8.72,8.72,0,1,1,6.06-10.72A8.69,8.69,0,0,1,165,63.64"/><path class="cls-1" d="M161.2,54.77c7.18,25.75-8.62,52.64-35.27,60s-54.08-7.41-61.26-33.17S73.33,29,100,21.6,154,29,161.2,54.77"/><path class="cls-5" d="M107.53,80s10-2,12.31-3.82c-2.1,9.89-12.31,3.82-12.31,3.82"/><path class="cls-5" d="M87.73,93.26s43.16,2,60.5-17.75c6.38,28.34-41.52,52-60.5,17.75"/><path class="cls-6" d="M124.84,98.21c-12.31-1.8-17.1,4.7-18.77,8.24a29.21,29.21,0,0,0,17.47.22,34.49,34.49,0,0,0,17.1-10.91c-5.82-2.34-13.11-.64-15.8,2.45"/><path class="cls-7" d="M66.76,85.94s.57-24.14,19.45-46.7c22.57,24.06,43.37-3.15,76.51,16-4.56-7.88-8.11-14.46-8.11-14.46s14.93-6.24,22.35,8.49-14.61,21.8-14.61,21.8-4.91,20.1-8.52,24.74c3.22,4.63,38.76-16.85,46.88-32.3C187,29.07,118.62-22.21,83.52,10.44c-26.34.64-66,74.93-25.68,112.71,16,11.19,29.75-12.43,29.75-12.43s-12.23-7.85-15.86-14.84c-11.24,4.39-23.51,3-26.06-11.44S58.45,68.18,62.53,68.65c.27,8.38,4.23,17.29,4.23,17.29"/><path class="cls-5" d="M90.74,69.79c1,3.37-.07,6.59-2.27,7.2s-4.72-1.63-5.67-5,.09-6.58,2.26-7.19,4.74,1.63,5.68,5"/><path class="cls-5" d="M140.19,56c.92,3.36-.1,6.59-2.27,7.21s-4.73-1.64-5.68-5,.07-6.59,2.25-7.21,4.74,1.64,5.7,5"/><path class="cls-7" d="M100.37,33.38S75.64,34,84.93,51.76,108,70.05,101.05,80.3c9.38-12.33,6-23.66-8.66-31.32s8-15.6,8-15.6"/><path class="cls-3" d="M68.21,137.56s9,21.26,11.37,21.23c2.71-2.87,4.43-4.39,4.43-4.39l.44.13c-2.64-6.94-8.17-17.4-9.61-20.12a15.2,15.2,0,0,1-6.63,3.15"/></svg>