<?xml version="1.0" standalone="no"?>
<!DOCTYPE svg PUBLIC "-//W3C//DTD SVG 20010904//EN"
 "http://www.w3.org/TR/2001/REC-SVG-20010904/DTD/svg10.dtd">
<svg version="1.0" xmlns="http://www.w3.org/2000/svg"
 width="166.000000pt" height="166.000000pt" viewBox="0 0 166.000000 166.000000"
 preserveAspectRatio="xMidYMid meet">
<metadata>
Created by potrace 1.11, written by Peter Selinger 2001-2013
</metadata>
<g transform="translate(0.000000,166.000000) scale(0.100000,-0.100000)"
fill="#000000" stroke="none">
<path d="M755 1640 c-38 -9 -101 -23 -140 -29 -95 -17 -204 -55 -278 -99 -83
-50 -179 -149 -226 -235 l-40 -71 23 -45 c40 -80 40 -85 1 -104 -62 -30 -92
-111 -66 -180 21 -54 113 -96 167 -76 16 6 24 2 36 -19 8 -15 18 -42 21 -60 9
-47 64 -169 100 -222 52 -76 128 -151 206 -201 225 -148 534 -139 750 23 183
137 298 371 293 594 -1 42 3 55 23 74 36 34 33 53 -7 45 l-33 -6 34 29 c24 20
32 34 28 46 -5 13 -11 15 -26 6 -38 -20 -43 -10 -12 22 17 17 31 37 31 44 0
23 -17 24 -43 4 -36 -29 -42 -25 -17 14 22 37 14 54 -18 37 -16 -8 -22 -1 -49
53 -80 162 -239 294 -423 351 -81 25 -247 28 -335 5z"/>
</g>
</svg>
