<?xml version="1.0" encoding="utf-8"?>
<!-- Generator: Adobe Illustrator 22.1.0, SVG Export Plug-In . SVG Version: 6.00 Build 0)  -->
<svg version="1.1" id="Layer_1" xmlns="http://www.w3.org/2000/svg" xmlns:xlink="http://www.w3.org/1999/xlink" x="0px" y="0px"
	 viewBox="0 0 26.6 25.5" style="enable-background:new 0 0 26.6 25.5;" xml:space="preserve">
<style type="text/css">
	.st0{fill:#4E598C;}
	.st1{fill:#E28B59;}
	.st2{fill:#EF4B45;}
	.st3{fill:#FBB75C;}
	.st4{fill:#593B31;}
	.st5{fill:#A15325;}
	.st6{fill:#924E26;}
	.st7{fill:#ED6861;}
</style>
<rect x="11.3" y="18.8" transform="matrix(0.9745 -0.2245 0.2245 0.9745 -4.4914 4.0033)" class="st0" width="8.1" height="5.9"/>
<path class="st1" d="M17.9,14.2c0,0,3.4,0.1,5.8-2.1c0.1,0,0.2,0,0.3,0c0.4-0.2,0.9-0.3,1.7-0.2c0.8,0.2,1.1-0.2,0.5-0.4
	s-1.5,0-1.5,0s1-0.5,1.4-0.5s0.5-0.5-0.1-0.5c-0.6,0-1.4,0.4-1.4,0.4s1.1-0.6,1.5-0.7c0.5,0,0.6-0.5,0.1-0.5
	c-0.5-0.1-1.7,0.6-1.7,0.6s0.5-0.4,1-0.6s0.7-0.5,0.3-0.6s-1.4,0.5-2,1C24,9.9,24.2,9,23.8,9c-0.3,0-0.2,0.4-0.6,0.9
	s-0.4,1.4-0.4,1.4v0.2c-0.9,0.7-2.6,1.5-4.7,1.3C17.2,13.8,17.9,14.2,17.9,14.2z"/>
<g>
	<path class="st2" d="M15.9,11.7l-0.4,3.6c1.8,0.5,4.2,0.4,4.2,0.4s0.2-1.4-0.2-3.2C18.5,12.6,15.9,11.7,15.9,11.7z"/>
</g>
<title>boy-yellow-shirt</title>
<path class="st1" d="M8.7,15c0,0-3.4,0.1-5.9-2.1c-0.1,0-0.2,0-0.3,0c-0.4-0.2-0.9-0.3-1.7-0.2c-0.8,0.2-1.1-0.2-0.5-0.4
	s1.5,0,1.5,0s-1-0.5-1.4-0.5s-0.5-0.5,0.1-0.5s1.4,0.4,1.4,0.4S0.8,11.1,0.4,11c-0.5,0-0.6-0.5-0.1-0.5C0.8,10.4,2,11.1,2,11.1
	s-0.5-0.4-1-0.6S0.3,9.9,0.7,9.9c0.4-0.1,1.4,0.5,2,1c-0.2-0.2-0.4-1.1,0-1.1c0.3-0.1,0.2,0.3,0.6,0.7c0.4,0.5,0.4,1.4,0.4,1.4v0.2
	c0.9,0.7,2.6,1.5,4.7,1.3C9.3,14.5,8.7,15,8.7,15z"/>
<g>
	<path class="st2" d="M10.6,12.3l0.4,3.6c-1.8,0.5-4.2,0.4-4.2,0.4S6.6,14.9,7,13.1C8,13.2,10.6,12.3,10.6,12.3z"/>
</g>
<path class="st3" d="M15.7,11.4l-2.9-0.1L10,12.5l0.5,8c0,0,0.4,0.5,4.4-0.3c4-0.9,4.7-1.7,4.7-1.7L15.7,11.4z"/>
<path class="st2" d="M12.8,10.9c-1.1,0.2-1.8,1.2-1.6,2.3c0.2,1.1,1.3,1.7,2.4,1.5s1.8-1.2,1.6-2.3S13.9,10.6,12.8,10.9z"/>
<path class="st1" d="M12.9,10.9c-0.9,0.2-1.5,1-1.3,1.9c0.1,0.8,1,1.4,1.9,1.2s1.5-1,1.3-1.9C14.6,11.2,13.7,10.7,12.9,10.9z"/>
<g>
	<g>
		<path class="st4" d="M17.7,5.1c0.5-0.5,0.4-0.9-0.3-1.1c0.4-0.6,0.2-1-0.5-1c0.3-0.7,0-1-0.7-0.9c0.2-0.7-0.1-1-0.8-0.7
			c0-0.7-0.4-0.9-1-0.5c-0.2-0.8-0.6-0.9-1.1-0.4c-0.2-0.6-0.7-0.7-1.1-0.1c-0.5-0.6-0.9-0.6-1.2,0.1c-0.5-0.5-0.9-0.4-1,0.3
			C9.4,0.4,9,0.6,9,1.3C8.3,1.1,8,1.3,8.1,2c-0.7-0.2-1,0.1-0.7,0.8c-0.7,0-0.9,0.4-0.5,1C6.1,3.9,6,4.3,6.5,4.9
			C5.8,5.1,5.8,5.6,6.4,6c-0.7,0.4-0.6,0.9,0,1.2C5.9,7.7,6,8.1,6.7,8.3c-0.4,0.6-0.2,1,0.5,1c-0.3,0.7,0,1,0.7,0.9
			c-0.2,0.7,0.1,1,0.8,0.7c0,0.7,0.4,0.9,1,0.5c0.2,0.8,0.6,0.9,1.1,0.4c0.2,0.6,0.7,0.7,1.1,0.1c0.5,0.6,0.9,0.6,1.2-0.1
			c0.5,0.5,0.9,0.4,1.1-0.3c0.6,0.4,1,0.2,1-0.5c0.7,0.3,1,0,0.9-0.7c0.7,0.2,1-0.1,0.7-0.8c0.7,0,0.9-0.4,0.5-1
			C18,8.4,18.1,8,17.7,7.4c0.6-0.2,0.7-0.7,0.1-1.1C18.4,5.8,18.4,5.4,17.7,5.1z"/>
	</g>
	<g>
		<path class="st1" d="M6.1,6.5c-1,0-1.7,0.8-1.7,1.7c0,1,0.8,1.7,1.7,1.7c1,0,1.7-0.8,1.7-1.7C7.8,7.2,7,6.5,6.1,6.5z"/>
		<path class="st1" d="M17.5,6.2c-1,0-1.7,0.8-1.7,1.7c0,1,0.8,1.7,1.7,1.7c1,0,1.7-0.8,1.7-1.7S18.4,6.2,17.5,6.2z"/>
		<path class="st5" d="M6.1,9.2c0.6,0,1-0.5,0.9-1c0-0.5-0.5-0.9-1-0.9s-0.9,0.5-0.9,1S5.6,9.2,6.1,9.2L6.1,9.2z"/>
		<path class="st5" d="M17.5,8.9c0.6,0,1-0.5,0.9-1S17.9,7,17.4,7c-0.5,0.1-0.9,0.5-0.9,1C16.6,8.5,17,8.9,17.5,8.9L17.5,8.9z"/>
		<path class="st1" d="M11.9,2.8c-3,0-5.4,2.4-5.3,5.3s2.5,5.2,5.5,5.1c3,0,5.4-2.4,5.3-5.3C17.3,5,14.9,2.7,11.9,2.8z"/>
		<path class="st5" d="M9.2,6.9C9,6.9,8.8,7.2,8.8,7.6C8.8,8,9,8.3,9.2,8.3c0.2,0,0.4-0.3,0.4-0.7S9.4,6.9,9.2,6.9z"/>
		<path class="st5" d="M14.7,6.7c-0.2,0-0.4,0.3-0.4,0.7c0,0.4,0.3,0.7,0.5,0.7s0.4-0.3,0.4-0.7C15.1,7.1,14.9,6.8,14.7,6.7z"/>
		<path class="st5" d="M12.5,9c-0.3,0.2-1.4,0.1-1.4,0.1S12,10,12.5,9z"/>
		<path class="st6" d="M15.5,9.7c-2.4,1.5-6.8,0.2-6.8,0.2C9.8,14,15.4,12.8,15.5,9.7z"/>
		<g>
			<path class="st7" d="M14.1,11.6c-0.6,0.4-1.4,0.7-2.1,0.7s-1.3-0.2-1.8-0.5c0.3-0.4,1-0.9,2.2-0.4C12.8,11.2,13.6,11.2,14.1,11.6
				z"/>
		</g>
	</g>
	<path class="st4" d="M12.1,2.4C9.9,2.3,8.2,2.8,8.2,3.3c0,0.6,1.7,1.1,3.8,1.1c2.2,0.1,3.9-0.4,3.9-0.9C15.9,2.9,14.2,2.5,12.1,2.4
		z"/>
</g>
</svg>
