<?xml version="1.0" encoding="utf-8"?>
<!-- Generator: Adobe Illustrator 22.1.0, SVG Export Plug-In . SVG Version: 6.00 Build 0)  -->
<svg version="1.1" id="Layer_1" xmlns="http://www.w3.org/2000/svg" xmlns:xlink="http://www.w3.org/1999/xlink" x="0px" y="0px"
	 viewBox="0 0 30.3 23.7" style="enable-background:new 0 0 30.3 23.7;" xml:space="preserve">
<style type="text/css">
	.st0{fill:#F4D19B;}
	.st1{fill:#00783E;}
	.st2{fill:#490C14;}
	.st3{fill:#77BF47;}
	.st4{fill:#EF4B45;}
	.st5{fill:#E12034;}
	.st6{fill:#E68C24;}
	.st7{fill:#C55530;}
</style>
<title>girl-apple</title>
<g>
	<g>
		<path class="st0" d="M9.9,17.2c0,0-4.1-0.5-6.6-3.6c-0.1,0-0.3,0-0.4-0.1c-0.5-0.3-1-0.6-2-0.6c-0.9,0-1.2-0.5-0.5-0.6
			c0.7-0.1,1.8,0.3,1.8,0.3s-1.1-0.8-1.6-0.9S0.1,11,0.8,11.1c0.8,0.1,1.6,0.7,1.6,0.7s-1.1-0.9-1.6-1.1s-0.6-0.8,0-0.7
			c0.5,0.1,1.9,1.1,1.9,1.1s-0.5-0.6-1.1-0.9C1,9.8,0.8,9.4,1.3,9.4s1.6,0.8,2.2,1.6c-0.2-0.3-0.2-1.4,0.2-1.4
			c0.5,0.1,0.2,0.5,0.6,1.2c0.4,0.6,0.2,1.7,0.2,1.7l-0.1,0.2c1,1,2.8,2.3,5.4,2.5C10.6,16.6,9.9,17.2,9.9,17.2z"/>
		<g>
			<path class="st1" d="M12.8,14.4l-0.3,4.4c-2.4,0.1-5.2-0.4-5.2-0.4s0-1.7,0.8-3.8C9.3,14.9,12.7,14.3,12.8,14.4z"/>
		</g>
	</g>
	<path class="st0" d="M22.7,14.2c0,0,3.6-2,4.8-5.8c0.1,0,0.2-0.1,0.3-0.2c0.4-0.4,0.8-0.8,1.7-1.2c0.8-0.4,0.9-0.9,0.2-0.8
		c-0.7,0.1-1.5,0.9-1.5,0.9S29,6,29.4,5.7c0.4-0.3,0.2-0.8-0.4-0.4c-0.7,0.4-1.3,1.2-1.3,1.2s0.7-1.3,1.1-1.6
		c0.4-0.4,0.3-0.9-0.2-0.6C28.1,4.5,27.2,6,27.2,6s0.2-0.7,0.6-1.2c0.5-0.5,0.5-1,0-0.8c-0.4,0.1-1.1,1.3-1.4,2.3
		c0.1-0.4-0.3-1.4-0.7-1.3c-0.4,0.2,0,0.6-0.1,1.3C25.5,7.1,26,8,26,8l0.1,0.2c-0.5,1.3-1.7,3.2-4.1,4.3
		C21.7,14.1,22.7,14.2,22.7,14.2z"/>
	<g>
		<path class="st2" d="M21,6.8c0.6-0.3,1.4,0,1.7,0.6C23,8,22.8,8.8,22.2,9.1c-0.6,0.3-1.4,0-1.7-0.6C20.2,7.9,20.4,7.1,21,6.8z"/>
		<path class="st2" d="M22.9,6.9c0.6-0.3,1.3,0,1.7,0.6c0.3,0.6,0,1.4-0.6,1.7s-1.3,0-1.6-0.6C22,8,22.3,7.2,22.9,6.9z"/>
		<path class="st2" d="M26.4,6.7c0.6,0,0.6,2.5-0.1,2.5s-2-0.6-2-1.3S25.7,6.7,26.4,6.7z"/>
	</g>
	<g>
		<path class="st1" d="M18.9,12.7l1.9,4c2.2-0.7,4.7-2.2,4.7-2.2s-0.6-1.5-2.2-3.2C22.3,12,18.9,12.7,18.9,12.7z"/>
	</g>
	<path class="st3" d="M12.6,13.8l3.4-1.3l3.7,0.1l2.4,8.6c0,0,0.4,1.1-4.5,2s-5.9,0.3-5.9,0.3L12.6,13.8z"/>
	<g>
		<path class="st4" d="M16.7,18.2c1.2-1,2.1,0.1,2.3,1.2c0.2,1.1-0.6,2.2-1.7,2.4c-1.1,0.2-2.2-0.6-2.4-1.7S15,18.4,16.7,18.2z"/>
		<path class="st5" d="M17.5,21.3c0.9-0.3,1.4-1.1,1.3-1.9c-0.2-0.6-0.7-1.3-1.4-1.3c0.5,0.2,0.8,0.8,0.9,1.4
			C18.5,20.2,18.1,20.9,17.5,21.3z"/>
		<path class="st1" d="M18.1,16.7c-1,0.2-1.4,1.4-1.4,1.4S18.6,17.8,18.1,16.7z"/>
		<path class="st1" d="M14.6,17.8c1,1,2.2,0.3,2.2,0.3S15.3,16.9,14.6,17.8z"/>
	</g>
	<path class="st1" d="M15.8,12.1c1.3-0.3,2.6,0.6,2.8,1.9c0.2,1.3-0.5,2.9-2.2,1.7c-1.2,1.7-2.5,0.4-2.7-0.9
		C13.4,13.5,14.3,12.2,15.8,12.1z"/>
	<path class="st0" d="M15.7,11.9c1.1-0.2,2.1,0.5,2.3,1.6c0.2,1-1.7,2-1.7,2s-2.1-0.2-2.3-1.3C13.8,13.2,14.6,12.2,15.7,11.9z"/>
	<g>
		<path class="st2" d="M9.7,1.4c3.8-2.4,8.5-1.7,10.5,1.5s0.6,7.7-3.1,10.1c-3.8,2.4-8.5,1.7-10.5-1.5C4.5,8.3,5.9,3.8,9.7,1.4z"/>
		<g>
			<path class="st2" d="M9.2,13.5c0.6-0.3,1.4,0,1.7,0.6c0.3,0.6,0.1,1.4-0.5,1.7s-1.4,0-1.7-0.6C8.4,14.6,8.6,13.9,9.2,13.5z"/>
			<path class="st2" d="M7.9,15.3c0.6-0.3,1.4,0,1.7,0.6c0.3,0.6,0.1,1.4-0.5,1.7s-1.4,0-1.7-0.6C7.1,16.4,7.4,15.6,7.9,15.3z"/>
			<path class="st2" d="M5.5,16.2C6.1,16,7.9,16,8.1,16.7c0.2,0.7-1.2,1.7-1.8,1.9C5.7,18.8,4.8,16.4,5.5,16.2z"/>
		</g>
		<g>
			<g>
				<path class="st0" d="M19,3.2c1-0.6,2.2-0.3,2.8,0.6c0.6,1,0.3,2.2-0.6,2.8c-1,0.6-2.2,0.3-2.8-0.6C17.8,5,18.1,3.8,19,3.2z"/>
				<path class="st0" d="M7.6,10.4c1-0.6,2.2-0.3,2.8,0.6c0.6,1,0.3,2.2-0.6,2.8c-1,0.6-2.2,0.3-2.8-0.6C6.4,12.3,6.7,11,7.6,10.4z"
					/>
				<path class="st6" d="M20.7,5.9c-0.5,0.3-1.2,0.1-1.6-0.4C18.8,5,19,4.2,19.5,3.9s1.3-0.1,1.6,0.4C21.4,4.8,21.2,5.5,20.7,5.9
					L20.7,5.9z"/>
				<path class="st6" d="M9.3,13.1c-0.5,0.3-1.2,0.2-1.5-0.3c-0.4-0.5-0.2-1.2,0.3-1.5c0.5-0.4,1.2-0.2,1.5,0.3
					C10,12.1,9.8,12.8,9.3,13.1L9.3,13.1z"/>
				<path class="st0" d="M10.9,3.4c3-1.9,6.9-1.1,8.7,1.8c1.8,2.9,0.9,6.7-2.1,8.6s-6.9,1.1-8.7-1.8C6.9,9.1,7.9,5.2,10.9,3.4z"/>
				<path class="st6" d="M14.3,9.8c0.4,0,1.4-0.8,1.4-0.8S15.4,10.5,14.3,9.8z"/>
				<path class="st6" d="M11.9,12.5c3.3,0.1,6.8-4.2,6.8-4.2C20.3,13,14,15.5,11.9,12.5z"/>
				<path class="st7" d="M14.4,13.5c0.9,0,1.8-0.2,2.5-0.7c0.7-0.5,1.2-1,1.5-1.7c-0.5-0.1-1.5-0.2-2.4,1.1
					C15.5,12.2,14.7,12.8,14.4,13.5z"/>
			</g>
			<path class="st6" d="M16.9,6.4c0.3-0.2,0.5-0.2,0.6-0.1c0.1,0.1-0.1,0.3-0.3,0.5c-0.3,0.1-0.5,0.2-0.6,0
				C16.5,6.7,16.7,6.5,16.9,6.4z"/>
			<path class="st6" d="M11.4,10c0.2-0.1,0.4-0.2,0.5-0.1c0.1,0-0.1,0.2-0.3,0.4c-0.2,0.1-0.4,0.2-0.5,0.1
				C11,10.3,11.2,10.1,11.4,10z"/>
		</g>
		<path class="st2" d="M7.9,10c1.5-0.5,2.9-1.1,4.2-1.9l-1.2-3.8l1.8,3.5c0.5-0.3,1-0.7,1.5-1L12,3.5l2.5,3c1.8-1.4,3-2.7,3.5-3.2
			c-2-1.6-5-1.8-7.3-0.3C8.2,4.5,7.2,7.4,7.9,10z"/>
	</g>
</g>
</svg>
