<svg id="Layer_1" data-name="Layer 1" xmlns="http://www.w3.org/2000/svg" viewBox="0 0 38.14 27.55"><defs><style>.cls-1{fill:#b82d7c;}.cls-2{fill:#201b1c;}.cls-3{fill:#f7b182;}.cls-4{fill:#da4391;}.cls-5{fill:#f499b8;}.cls-6{fill:#fcdee7;}.cls-7{fill:#a05124;}.cls-8{fill:#ee685f;}</style></defs><title>girl-black-hair</title><path class="cls-1" d="M23.19,26.47s.55,1.86-2.41,0-.46-4.58-.46-4.58,2.32,1.42,2.33,1.52.54,3.07.54,3.07" transform="translate(-0.24 0.26)"/><path class="cls-2" d="M27.61,12.48s4.94,1.62,4.15,6.8c-.61-4-2.56-4.51-2.56-4.51s3.19,2.36,1.48,7.4C30.41,17.48,24.5,15,24.5,15Z" transform="translate(-0.24 0.26)"/><path class="cls-3" d="M.31,17.33a5.6,5.6,0,0,1,3-1.24c-.4,0-1.56-.68-1.29-1.1s.61.15,1.52.18a3.93,3.93,0,0,1,1.66.67,13.45,13.45,0,0,1,8.36-2.06s.78,1-.62,2.26A10.22,10.22,0,0,0,6,17.28a1.34,1.34,0,0,1-.63.85,4.82,4.82,0,0,0-1.78,1.65c-.63.95-1.33,1-1,.18A5,5,0,0,1,4,18.34,12,12,0,0,0,2.08,19.5c-.46.43-1.09.08-.44-.57a5.49,5.49,0,0,1,1.71-1.14,8.58,8.58,0,0,0-2.13,1c-.46.44-1.09.09-.63-.45A7.86,7.86,0,0,1,2.89,17a6.66,6.66,0,0,0-1.56.52c-.77.46-1.28.3-1-.22" transform="translate(-0.24 0.26)"/><path class="cls-4" d="M18.1,12.63l1,3.93c-3.06-1.87-11.29.58-11.29.58S6.12,16,6.59,14.33c3.3-1.46,11.51-1.7,11.51-1.7" transform="translate(-0.24 0.26)"/><path class="cls-1" d="M9.18,20.45S8.5,22,11.62,22.16s.33-2.23.33-2.23Z" transform="translate(-0.24 0.26)"/><path class="cls-5" d="M10,22.49s2.24-2.19,6.68-.53,3.65,4.33,3.65,4.33l2.88-10.66-2.58-2.2-4.38-.76Z" transform="translate(-0.24 0.26)"/><path class="cls-6" d="M16.24,20.9c-.63-.26-1.39-1-.64-1.66,1-.77.86.74.9,1.24.26-.53,1.81-1.25,2-.26.15.59-.91,1.17-1.42,1.11.6,0,1.13.32,1,.93-.12,1.11-1.1.09-1.42-.19-.26.52-.59,1.45-1.42,1.11s.31-1.12.7-1.35c-.21-.09-1-.13-1.24-.41-.45-.67.85-.67,1.16-.59Z" transform="translate(-0.24 0.26)"/><path class="cls-5" d="M16,21a.45.45,0,0,0,.35.58.44.44,0,0,0,.57-.35.43.43,0,0,0-.34-.57c-.11-.1-.39.13-.58.34" transform="translate(-0.24 0.26)"/><path class="cls-6" d="M19.72,20.52c-.31-.07-.65-.55-.27-.88s.43.37.44.57c.19-.22.95-.68,1-.18,0,.3-.45.64-.76.56a.47.47,0,0,1,.54.46c-.05.61-.6.05-.71-.14-.09.2-.35.73-.66.55s.16-.51.34-.73a1.4,1.4,0,0,1-.61-.15c-.32-.18.49-.14.7-.06Z" transform="translate(-0.24 0.26)"/><path class="cls-5" d="M19.72,20.62c0,.1,0,.3.13.3s.3,0,.29-.13,0-.3-.12-.29-.31-.08-.3.12" transform="translate(-0.24 0.26)"/><path class="cls-4" d="M17.58,12.47S13.8,18,13.22,22.14a5.89,5.89,0,0,0-3.94-1.7s6.73-7.55,7.59-8.12.71.15.71.15" transform="translate(-0.24 0.26)"/><path class="cls-4" d="M23.83,15.39a6.73,6.73,0,0,1,1,1.42C24,19.28,23,22.38,23.43,24.45s-.29,2.63-.29,2.63a3.42,3.42,0,0,0-3.61-2.53c2.13-3.58,3.63-10,3.63-10Z" transform="translate(-0.24 0.26)"/><path class="cls-3" d="M30.81,18.75A15.89,15.89,0,0,0,33.06,18c.23-.92.56-1.75,1-2s.54-.75.94-.78-.11,1.11-.48,1.54c-.06.51.52.27.8,0s1.8-1.34,2.12-1.17-.8,1.37-1.76,2c1.55-.73,2.4-1.49,2.62-1.21s-1.87,1.75-1.87,1.75,1.63-.93,1.86-.55S36.45,19,36.45,19s1.36-.61,1.59-.23-2.13,1-2.83,1a2.69,2.69,0,0,1-1.43-.29l-2.44.9Z" transform="translate(-0.24 0.26)"/><path class="cls-4" d="M24.72,16.52s1.34,3,6.34,1.51a4.76,4.76,0,0,1,.9,2.54S26.47,22.2,23.89,20c-.61-2.66.83-3.48.83-3.48" transform="translate(-0.24 0.26)"/><path class="cls-4" d="M16.93,14.42c-.59,1.45-.12,3.62,2.21,2.54,1,2.23,2.69,1.09,3.27-.46a2.94,2.94,0,0,0-1.7-3.78,3,3,0,0,0-3.78,1.7" transform="translate(-0.24 0.26)"/><path class="cls-3" d="M17.51,14.08C17,15.32,19,16.87,19,16.87s2.52.2,2.93-1a2.38,2.38,0,0,0-1.35-3.11,2.6,2.6,0,0,0-3.1,1.35" transform="translate(-0.24 0.26)"/><path class="cls-3" d="M26.61,10a2.41,2.41,0,1,0,4.62,1.35,2.43,2.43,0,0,0-1.64-3,2.41,2.41,0,0,0-3,1.63" transform="translate(-0.24 0.26)"/><path class="cls-3" d="M12.34,5.75a2.41,2.41,0,1,0,3-1.63,2.26,2.26,0,0,0-3,1.63" transform="translate(-0.24 0.26)"/><path class="cls-7" d="M28.57,11.91A1.41,1.41,0,0,0,30.3,11a1.39,1.39,0,1,0-2.67-.79,1.28,1.28,0,0,0,.94,1.73" transform="translate(-0.24 0.26)"/><path class="cls-7" d="M14.2,7.72a1.26,1.26,0,0,0,1.63-.93,1.3,1.3,0,0,0-.93-1.64,1.27,1.27,0,0,0-1.63.93,1.44,1.44,0,0,0,.93,1.64" transform="translate(-0.24 0.26)"/><path class="cls-3" d="M14.8,6.37A7.56,7.56,0,0,0,20,15.58a7.45,7.45,0,0,0,9.35-4.94,7.58,7.58,0,0,0-5.24-9.22,7.49,7.49,0,0,0-9.34,5" transform="translate(-0.24 0.26)"/><path class="cls-7" d="M17.06,9.6s4.91,3.83,8.55,2.94c-1.5,3.83-9.12,2.62-8.55-2.94" transform="translate(-0.24 0.26)"/><path class="cls-8" d="M21.15,13.19a2.35,2.35,0,0,0-2.85-.58,4.32,4.32,0,0,0,2,1.45,5.7,5.7,0,0,0,2.93.17,2.44,2.44,0,0,0-2.09-1" transform="translate(-0.24 0.26)"/><path class="cls-7" d="M22.92,10.24a7.23,7.23,0,0,1-1.84-.55c.21,1.48,1.84.55,1.84.55" transform="translate(-0.24 0.26)"/><path class="cls-7" d="M25.05,9.17a.78.78,0,0,0,.37,1,.83.83,0,0,0,.86-.57.77.77,0,0,0-.37-1c-.32-.18-.6,0-.86.56" transform="translate(-0.24 0.26)"/><path class="cls-7" d="M19,7.14c-.07.41.06.8.37.88a.83.83,0,0,0,.86-.57c.07-.41-.06-.8-.37-.88a.76.76,0,0,0-.86.57" transform="translate(-0.24 0.26)"/><path class="cls-2" d="M25.66.3c3.18,1,7.84,6.71,2.15,13.37,1.42-3.62-1.54-9.41-1.54-9.41s-.62,1.06-10.45,1A26.07,26.07,0,0,0,14.62,8s.46-10.77,11-7.68" transform="translate(-0.24 0.26)"/></svg>