<svg id="Layer_1" data-name="Layer 1" xmlns="http://www.w3.org/2000/svg" viewBox="0 0 426.96 65.61"><defs><style>.cls-1{fill:#32b3e7;stroke:#32b3e7;}.cls-1,.cls-2,.cls-3,.cls-4{stroke-width:0.09px;}.cls-2{fill:#89d1f0;stroke:#89d1f0;}.cls-3{fill:#34b1e6;stroke:#34b1e6;}.cls-4{fill:#33b2e7;stroke:#33b2e7;}</style></defs><title>blue-crayon</title><path class="cls-1" d="M517.72,385.16c2.85,5,2.53,11.1,1.19,16.49-.36,2.09-2.67,2.43-4.31,3.06-19.33,6.27-39.3,10.23-59.15,14.41a30.76,30.76,0,0,0-3.29,1.18,43.88,43.88,0,0,1-2.26,7.84c-6.32.48-12.65,0-19,.19-.42-21.46,0-42.93-.19-64.4,6.66.14,13.33-.33,20,.19.46,2.45-.69,5.92,1.66,7.51C474.15,376.12,496.07,380,517.72,385.16Z" transform="translate(-92.99 -363.16)"/><path class="cls-2" d="M430.74,363.93c.16,21.47-.23,42.94.19,64.4a106,106,0,0,0-11.55.35c-21.95-.86-43.94-.32-65.91-.39-55,.19-110,.64-165,.34-17-.41-34-.33-51-.53-7.58.53-15.14-.36-22.72-.3.31-21.08.24-42.17,0-63.25-7.23-.58-14.49,0-21.73-.49,10.17-1.06,20.45,0,30.65-.24,0,21.21-.15,42.42,0,63.63a55.6,55.6,0,0,0,10.56-.09c.73-7.95.24-15.93.38-23.89-.12-13.21.26-26.43-.23-39.64,86,.2,172,0,258,.09,7-.14,14,.42,20.95-.52,5.8-.72,11.55.86,17.35.53m-9.25.35c-3.06.06-6.89-.91-9.51.6-.45,20.82,0,41.7-.19,62.55,3.44.26,7,.62,10.37-.1.83-1.84.56-3.93.65-5.87-.14-18.67.1-37.34-.12-56l-1.2-1.18Z" transform="translate(-92.99 -363.16)"/><path class="cls-3" d="M421.49,364.28l1.2,1.18c.22,18.66,0,37.33.12,56-.09,1.94.18,4-.65,5.87-3.41.72-6.93.36-10.37.1.16-20.85-.26-41.73.19-62.55,2.62-1.51,6.45-.54,9.51-.6Z" transform="translate(-92.99 -363.16)"/><path class="cls-4" d="M134.42,363.83c.49,13.21.11,26.43.23,39.64-.14,8,.35,15.94-.38,23.89a55.6,55.6,0,0,1-10.56.09c-.17-21.21-.06-42.42,0-63.63,3.57-.06,7.15,0,10.73,0Z" transform="translate(-92.99 -363.16)"/><path class="cls-1" d="M114.77,364.55c.19,21.08.26,42.17,0,63.25-7-.45-14.06-.51-21.09-.8l-.36-.44c-.34-20.82.12-41.67-.23-62.5,7.24.47,14.5-.09,21.73.49Z" transform="translate(-92.99 -363.16)"/></svg>