<svg id="Layer_1" data-name="Layer 1" xmlns="http://www.w3.org/2000/svg" viewBox="0 0 426.85 66.99"><defs><style>.cls-1{fill:#e3d243;stroke:#e3d243;}.cls-1,.cls-2,.cls-3,.cls-4,.cls-5,.cls-6,.cls-7{stroke-width:0.09px;}.cls-2{fill:#fefbdd;stroke:#fefbdd;}.cls-3{fill:#f1d90f;stroke:#f1d90f;}.cls-4{fill:#fce876;stroke:#fce876;}.cls-5{fill:#f0d811;stroke:#f0d811;}.cls-6{fill:#f3d80e;stroke:#f3d80e;}.cls-7{fill:#f2d90e;stroke:#f2d90e;}</style></defs><title>yellow-crayon</title><path class="cls-1" d="M440.32,363.68c3.37-.15,7-.81,10.07.95a172,172,0,0,1-19.53.21l.08-1.57A65.38,65.38,0,0,0,440.32,363.68Z" transform="translate(-92.89 -362.5)"/><path class="cls-2" d="M123.47,427.32l.64,0c-1,.82-2.06,2-3.51,1.69-4.44-.37-8.86.45-13.31.41-4.74.08-9.42-.8-14.13-1.28l.74-1.11c7-.39,14,.18,20.95.08C117.73,427.13,120.6,427.22,123.47,427.32Z" transform="translate(-92.89 -362.5)"/><path class="cls-3" d="M518.7,386.52a32.58,32.58,0,0,1-.1,16.35c-5,2-10.13,3.39-15.23,5-14.21,3.84-28.64,6.84-43,10-2.67.58-5.47.72-8,1.79a32.51,32.51,0,0,0-1.87,7.43l-1.41.07c-6.12.29-12.25.14-18.37.08,0-20.81-.2-41.63.12-62.43a172,172,0,0,0,19.53-.21c-3.08-1.76-6.7-1.1-10.07-.95a65.38,65.38,0,0,1-9.38-.41,116.84,116.84,0,0,0,18.89-.72c1.37,2.51.85,5.46,1.34,8.18a23.25,23.25,0,0,0,4.57,1.33c8.94,1.59,17.77,3.7,26.7,5.32,3.87,1.25,8.06,1.1,11.87,2.53,1.34.23,2.68.41,4,.61,6.12,1.27,12.18,2.82,18.33,4l2,2Z" transform="translate(-92.89 -362.5)"/><path class="cls-4" d="M449.11,427.19c0,.46-.13,1.39-.18,1.85-7.2-.31-14.45.4-21.58-.9-11.34.52-22.68-.24-34,0-85.67,0-171.35.56-257-.12l-2.16-.6c1-4.56-.37-9.18.2-13.77a100.2,100.2,0,0,0-.11-18c-.46-4.66.65-9.32,0-14-.61-5.84,1.71-11.84-.46-17.52-3.3,0-6.6,0-9.9,0-.73,21,0,42.11-.39,63.16-2.87-.1-5.74-.19-8.62-.19-.25-21.27.42-42.56-.34-63.81,4.95.22,9.87-.36,14.8-.42,13.65.82,27.33.24,41,.42q119.51,0,239,0l2.54.55c-.31,21.07-.36,42.16,0,63.23,3.59.14,7.19.12,10.78-.08,0-21.24.32-42.5-.16-63.73q4.23,0,8.44,0l-.08,1.57c-.32,20.8-.08,41.62-.12,62.43,6.12.06,12.25.21,18.37-.08Z" transform="translate(-92.89 -362.5)"/><path class="cls-5" d="M422.5,363.3c.48,21.23.17,42.49.16,63.73-3.59.2-7.19.22-10.78.08-.38-21.07-.33-42.16,0-63.23l0-.67c3.54.06,7.08.06,10.62.09Z" transform="translate(-92.89 -362.5)"/><path class="cls-6" d="M133.76,364.15c2.17,5.68-.15,11.68.46,17.52.64,4.65-.47,9.31,0,14a100.2,100.2,0,0,1,.11,18c-.57,4.59.84,9.21-.2,13.77l-2.8.48a28.56,28.56,0,0,0-7.21-.55l-.64,0c.43-21.05-.34-42.12.39-63.16,3.3,0,6.6,0,9.9,0Z" transform="translate(-92.89 -362.5)"/><path class="cls-7" d="M114.51,363.32c.76,21.25.09,42.54.34,63.81-7,.1-14-.47-20.95-.08-1.31-2.62-.86-5.59-.92-8.4q0-23.47,0-46.95c0-2.83-.35-5.79.93-8.42,6.87.18,13.74.06,20.6,0Z" transform="translate(-92.89 -362.5)"/></svg>