<svg id="Layer_1" data-name="Layer 1" xmlns="http://www.w3.org/2000/svg" viewBox="0 0 5.1 8.27"><defs><style>.cls-1{fill:#1f305e;}</style></defs><title>logo</title><path class="cls-1" d="M2,7.4H2a4.79,4.79,0,0,1-1-.05V4.27H2V3.48H1V.88A3.72,3.72,0,0,1,2,.8V0H2A10.32,10.32,0,0,0,0,.17v8a12.58,12.58,0,0,0,1.62.1L2,8.2Z" transform="translate(0 0)"/><path class="cls-1" d="M3.43,3.81h0A1.93,1.93,0,0,0,4.8,2,1.69,1.69,0,0,0,4.13.59,2.51,2.51,0,0,0,3,.09V1a1.14,1.14,0,0,1,.79,1.16A1.28,1.28,0,0,1,3,3.29V4.44A1.39,1.39,0,0,1,4,5.83,1.4,1.4,0,0,1,3,7.24v.85a2.82,2.82,0,0,0,1.46-.63A2.18,2.18,0,0,0,5.1,5.84,2.09,2.09,0,0,0,3.43,3.81Z" transform="translate(0 0)"/></svg>