<svg id="Layer_1" data-name="Layer 1" xmlns="http://www.w3.org/2000/svg" viewBox="0 0 426.84 65.26"><defs><style>.cls-1{fill:#84c341;stroke:#84c341;}.cls-1,.cls-2,.cls-3,.cls-4,.cls-5{stroke-width:0.09px;}.cls-2{fill:#b3d45b;stroke:#b3d45b;}.cls-3{fill:#b4d55c;stroke:#b4d55c;}.cls-4{fill:#85c241;stroke:#85c241;}.cls-5{fill:#b4d45b;stroke:#b4d45b;}</style></defs><title>green-crayon</title><path class="cls-1" d="M517,384.88c2.78,4.15,2.57,9.44,1.88,14.18-.34,1.64-.4,4-2.36,4.54-21.06,7.41-43.14,11.15-64.82,16.2-1.07,2.76-.48,7.2-3.82,8.34-12.27.72-24.51-.95-36.79-.24.23-21.45,0-42.91.12-64.36q5.44-.15,10.89,0c0,21.19.07,42.39,0,63.59q4,.21,7.92.12c.21-21.2.05-42.42.07-63.63,6.43-.11,12.87.23,19.29-.28,1.28,2.42,1,5.24,1.34,7.88,4.81.54,9.46,1.93,14.19,2.85,17.4,3.48,34.85,6.72,52.12,10.8Z" transform="translate(-92.48 -363.3)"/><path class="cls-2" d="M430,363.63c0,21.21.14,42.43-.07,63.63q-4,.09-7.92-.12c.1-21.2.05-42.4,0-63.59,2.66.05,5.31.07,8,.08Z" transform="translate(-92.48 -363.3)"/><path class="cls-3" d="M411.16,363.54c-.07,21.45.11,42.91-.12,64.36-4.37.68-8.81.25-13.21.35-81.34-.08-162.67.65-244,0-8.3-.72-16.63-.39-25-.5a16.46,16.46,0,0,0-5.06.71l-.95-1.47a45.14,45.14,0,0,0,10.83.32c.48-9.74.1-19.5.23-29.24-.05-11.51.2-23-.23-34.52q138.72.23,277.46,0Z" transform="translate(-92.48 -363.3)"/><path class="cls-4" d="M133.7,363.52c.43,11.5.18,23,.23,34.52-.13,9.74.25,19.5-.23,29.24a45.14,45.14,0,0,1-10.83-.32c.27-21.14-.06-42.28.16-63.42,3.56-.1,7.12-.1,10.67,0Z" transform="translate(-92.48 -363.3)"/><path class="cls-5" d="M123,363.54c-.22,21.14.11,42.28-.16,63.42a40.07,40.07,0,0,1-8.76.51c.27-14.49,0-29,.12-43.47-.13-6.58.36-13.17-.35-19.72-7.1-.26-14.25.46-21.33-.54,10.15-.63,20.33,0,30.48-.2Z" transform="translate(-92.48 -363.3)"/><path class="cls-1" d="M113.88,364.28c.71,6.55.22,13.14.35,19.72-.09,14.49.15,29-.12,43.47-7.2-.27-14.41-.07-21.58-.69,0-21,0-42,0-63,7.08,1,14.23.28,21.33.54Z" transform="translate(-92.48 -363.3)"/></svg>