<svg id="Layer_1" data-name="Layer 1" xmlns="http://www.w3.org/2000/svg" viewBox="0 0 426.98 65.19"><defs><style>.cls-1{fill:#f6a41c;stroke:#f6a41c;}.cls-1,.cls-2,.cls-3,.cls-4{stroke-width:0.09px;}.cls-2{fill:#ecba5a;stroke:#ecba5a;}.cls-3{fill:#fdba37;stroke:#fdba37;}.cls-4{fill:#f5a51d;stroke:#f5a51d;}</style></defs><title>yellow-crayon</title><path class="cls-1" d="M515.28,383.57c3.46.42,3.85,4.6,4.27,7.34.2,4.08.23,8.54-2.17,12.06-21.12,6.52-42.75,11.36-64.45,15.5a14.52,14.52,0,0,0-2.4,7l-2,2c-6.06-.05-12.12,0-18.18-.09,0-21.06.14-42.13-.1-63.2,6.87-.08,13.75-.43,20.59.36-.1,1.88-.08,3.76,0,5.64C472.21,375,493.89,378.63,515.28,383.57Z" transform="translate(-92.7 -362.41)"/><path class="cls-2" d="M448.28,362.46a2.4,2.4,0,0,1,2.56,2.05c-6.84-.79-13.72-.44-20.59-.36-2.61,0-5.23,0-7.85,0-3.69-.1-7.38-.12-11.07.07-29.71.59-59.44.09-89.17.24q-87.46.07-175,0c-4.24,0-8.48.13-12.72-.13a99.83,99.83,0,0,0-11.21-.23c-3,.08-5.92.1-8.89,0-6.79-.16-13.58-.05-20.37-.11-.63,7.6-.16,15.22-.3,22.83.11,12.77-.27,25.55.21,38.32,6.78.44,13.57.14,20.35.21,3,0,6,.1,8.91.3a59.55,59.55,0,0,0,11.09,0c8.08-.16,16.27-.64,24.29.58-11.78.95-23.65.22-35.46.8-9.63.26-19.2-.78-28.82-.78-2,.18-1.25-2.32-1.51-3.53.11-20.06-.23-40.13.18-60.18,118.44-.15,236.89.13,355.32-.14Z" transform="translate(-92.7 -362.41)"/><path class="cls-3" d="M430.25,364.15c.24,21.07.1,42.14.1,63.2-102.41-.2-204.83.74-307.24-.26,11.81-.58,23.68.15,35.46-.8-8-1.22-16.21-.74-24.29-.58.09-20.47-.28-40.94.21-61.4,4.24.26,8.48.15,12.72.13q87.48,0,175,0c29.73-.15,59.46.35,89.17-.24.29,20.53-.23,41.08.22,61.61a42.71,42.71,0,0,0,10.47.65c.79-5.54.34-11.13.35-16.69.09-15.22,0-30.43,0-45.64,2.62.06,5.24.08,7.85,0Z" transform="translate(-92.7 -362.41)"/><path class="cls-4" d="M422.4,364.11c0,15.21.06,30.42,0,45.64,0,5.56.44,11.15-.35,16.69a42.71,42.71,0,0,1-10.47-.65c-.45-20.53.07-41.08-.22-61.61,3.69-.19,7.38-.17,11.07-.07Z" transform="translate(-92.7 -362.41)"/><path class="cls-1" d="M123.28,364.08a99.83,99.83,0,0,1,11.21.23c-.49,20.46-.12,40.93-.21,61.4a59.55,59.55,0,0,1-11.09,0C123.39,405.14,123.22,384.61,123.28,364.08Z" transform="translate(-92.7 -362.41)"/><path class="cls-3" d="M123.28,364.08c-.06,20.53.11,41.06-.09,61.59-3-.2-5.93-.26-8.91-.3.57-20.4.35-40.84.11-61.25C117.36,364.18,120.32,364.16,123.28,364.08Z" transform="translate(-92.7 -362.41)"/><path class="cls-1" d="M114.39,364.12c.24,20.41.46,40.85-.11,61.25-6.78-.07-13.57.23-20.35-.21-.48-12.77-.1-25.55-.21-38.32.14-7.61-.33-15.23.3-22.83,6.79.06,13.58-.05,20.37.11Z" transform="translate(-92.7 -362.41)"/></svg>