<?xml version="1.0" encoding="utf-8"?>
<!-- Generator: Adobe Illustrator 22.1.0, SVG Export Plug-In . SVG Version: 6.00 Build 0)  -->
<svg version="1.1" id="Layer_1" xmlns="http://www.w3.org/2000/svg" xmlns:xlink="http://www.w3.org/1999/xlink" x="0px" y="0px"
	 viewBox="0 0 38.1 27.5" style="enable-background:new 0 0 38.1 27.5;" xml:space="preserve">
<style type="text/css">
	.st0{fill:#B82D7C;}
	.st1{fill:#201B1C;}
	.st2{fill:#F7B182;}
	.st3{fill:#DA4391;}
	.st4{fill:#F499B8;}
	.st5{fill:#FCDEE7;}
	.st6{fill:#A05124;}
	.st7{fill:#EE685F;}
</style>
<title>girl-black-hair</title>
<path class="st0" d="M23,26.7c0,0,0.5,1.9-2.4,0s-0.5-4.6-0.5-4.6s2.3,1.4,2.3,1.5S23,26.7,23,26.7"/>
<path class="st1" d="M27.4,12.7c0,0,4.9,1.6,4.1,6.8C30.9,15.5,29,15,29,15s3.2,2.4,1.5,7.4c-0.3-4.7-6.2-7.2-6.2-7.2L27.4,12.7z"/>
<path class="st2" d="M0.1,17.6c0.9-0.7,1.9-1.1,3-1.2c-0.4,0-1.6-0.7-1.3-1.1s0.6,0.1,1.5,0.2c0.6,0.1,1.2,0.3,1.7,0.7
	c2.5-1.6,5.4-2.3,8.4-2.1c0,0,0.8,1-0.6,2.3c-2.4-0.4-4.8,0-6.9,1.2c-0.1,0.4-0.3,0.7-0.6,0.9c-0.7,0.4-1.3,1-1.8,1.6
	c-0.6,1-1.3,1-1,0.2c0.3-0.6,0.8-1.2,1.4-1.6c-0.7,0.3-1.3,0.7-1.9,1.2c-0.5,0.4-1.1,0.1-0.4-0.6c0.5-0.5,1.1-0.9,1.7-1.1
	c-0.8,0.2-1.5,0.6-2.1,1c-0.5,0.4-1.1,0.1-0.6-0.5c0.7-0.6,1.5-1,2.3-1.3c-0.5,0.1-1.1,0.3-1.6,0.5C0.3,18.2-0.2,18.1,0.1,17.6"/>
<path class="st3" d="M17.9,12.9l1,3.9c-3.1-1.9-11.3,0.6-11.3,0.6s-1.7-1.1-1.2-2.8C9.7,13.1,17.9,12.9,17.9,12.9"/>
<path class="st0" d="M8.9,20.7c0,0-0.7,1.5,2.4,1.7s0.3-2.2,0.3-2.2L8.9,20.7z"/>
<path class="st4" d="M9.1,23.7c0.5,0.8,1.8,2.7,4.4,3.8c2.8,1.2,5.3,0.8,6.2,0.6c1.1-4.1,2.2-8.2,3.3-12.3l-2.6-2.2L16,12.9
	C13.7,16.5,11.4,20.1,9.1,23.7z"/>
<path class="st5" d="M16,21.2c-0.6-0.3-1.4-1-0.6-1.7c1-0.8,0.9,0.7,0.9,1.2c0.3-0.5,1.8-1.2,2-0.3c0.1,0.6-0.9,1.2-1.4,1.1
	c0.6,0,1.1,0.3,1,0.9c-0.1,1.1-1.1,0.1-1.4-0.2c-0.3,0.5-0.6,1.5-1.4,1.1s0.3-1.1,0.7-1.4c-0.2-0.1-1-0.1-1.2-0.4
	C14,21,15.3,21,15.6,21.1L16,21.2z"/>
<path class="st4" d="M15.8,21.3c-0.1,0.2,0.1,0.5,0.3,0.6c0,0,0,0,0.1,0c0.2,0.1,0.5-0.1,0.6-0.3c0,0,0,0,0-0.1
	c0.1-0.2,0-0.5-0.3-0.5c0,0-0.1,0-0.1,0C16.2,20.8,16,21,15.8,21.3"/>
<path class="st5" d="M19.5,20.8c-0.3-0.1-0.6-0.5-0.3-0.9s0.4,0.4,0.4,0.6c0.2-0.2,1-0.7,1-0.2c0,0.3-0.5,0.6-0.8,0.6
	c0.3,0,0.5,0.1,0.5,0.4c0,0,0,0,0,0.1c0,0.6-0.6,0-0.7-0.1c-0.1,0.2-0.4,0.7-0.7,0.5s0.2-0.5,0.3-0.7c-0.2,0-0.4-0.1-0.6-0.1
	C18.5,20.7,19.3,20.7,19.5,20.8L19.5,20.8z"/>
<path class="st4" d="M19.5,20.9c0,0.1,0,0.3,0.1,0.3s0.3,0,0.3-0.1s0-0.3-0.1-0.3S19.5,20.7,19.5,20.9"/>
<path class="st3" d="M17.3,12.7c0,0-3.8,5.5-4.4,9.7c-1.1-1-2.5-1.6-3.9-1.7c0,0,6.7-7.6,7.6-8.1S17.3,12.7,17.3,12.7"/>
<path class="st3" d="M23.6,15.7c0.4,0.4,0.7,0.9,1,1.4c-0.8,2.5-1.8,5.6-1.4,7.6s-0.3,2.6-0.3,2.6c-0.4-1.6-2-2.7-3.6-2.5
	c2.1-3.6,3.6-10,3.6-10L23.6,15.7z"/>
<path class="st2" d="M30.6,19c0.8-0.2,1.5-0.4,2.2-0.8c0.2-0.9,0.6-1.8,1-2s0.5-0.8,0.9-0.8s-0.1,1.1-0.5,1.5
	c-0.1,0.5,0.5,0.3,0.8,0s1.8-1.3,2.1-1.2s-0.8,1.4-1.8,2c1.5-0.7,2.4-1.5,2.6-1.2s-1.9,1.8-1.9,1.8s1.6-0.9,1.9-0.5
	s-1.8,1.4-1.8,1.4s1.4-0.6,1.6-0.2s-2.1,1-2.8,1c-0.5,0-1-0.1-1.4-0.3l-2.4,0.9L30.6,19z"/>
<path class="st3" d="M24.5,16.8c0,0,1.3,3,6.3,1.5c0.5,0.7,0.9,1.6,0.9,2.5c0,0-5.5,1.6-8.1-0.6C23,17.6,24.5,16.8,24.5,16.8"/>
<path class="st3" d="M16.7,14.7c-0.6,1.4-0.1,3.6,2.2,2.5c1,2.2,2.7,1.1,3.3-0.5c0.6-1.5-0.2-3.2-1.7-3.8
	C19,12.4,17.3,13.2,16.7,14.7"/>
<path class="st2" d="M17.3,14.3c-0.5,1.2,1.5,2.8,1.5,2.8s2.5,0.2,2.9-1c0.5-1.2-0.1-2.6-1.3-3.1c0,0,0,0,0,0
	C19.1,12.6,17.8,13.2,17.3,14.3"/>
<path class="st2" d="M26.4,10.3c-0.4,1.3,0.2,2.6,1.5,3.1c1.3,0.4,2.6-0.2,3.1-1.5c0-0.1,0.1-0.2,0.1-0.2c0.4-1.3-0.4-2.6-1.6-3
	C28.1,8.2,26.7,9,26.4,10.3C26.4,10.2,26.4,10.2,26.4,10.3"/>
<path class="st2" d="M12.1,6c-0.4,1.3,0.4,2.6,1.6,3s2.6-0.4,3-1.6c0.4-1.3-0.4-2.6-1.6-3c-1.2-0.4-2.5,0.2-2.9,1.3
	C12.2,5.8,12.1,5.9,12.1,6"/>
<path class="st6" d="M28.3,12.2c0.7,0.2,1.5-0.2,1.7-0.9c0.2-0.7-0.2-1.5-0.9-1.7c-0.7-0.2-1.5,0.2-1.7,0.9l0,0
	c-0.3,0.7,0.1,1.4,0.7,1.7C28.2,12.2,28.3,12.2,28.3,12.2"/>
<path class="st6" d="M14,8c0.7,0.2,1.4-0.1,1.6-0.8c0,0,0-0.1,0-0.1c0.2-0.7-0.2-1.4-0.9-1.6c0,0,0,0-0.1,0
	c-0.7-0.2-1.4,0.2-1.6,0.8c0,0,0,0.1,0,0.1C12.9,7,13.3,7.7,14,8"/>
<path class="st2" d="M14.6,6.6c-1.1,4,1.3,8.1,5.2,9.2c3.9,1.2,8.1-1,9.3-4.9c0,0,0,0,0-0.1c1.1-4-1.3-8.1-5.2-9.2
	C19.9,0.5,15.7,2.7,14.6,6.6C14.5,6.7,14.5,6.7,14.6,6.6"/>
<path class="st6" d="M16.8,9.9c0,0,4.9,3.8,8.6,2.9C23.9,16.6,16.3,15.4,16.8,9.9"/>
<path class="st7" d="M20.9,13.4c-0.7-0.8-1.9-1.1-2.9-0.6c0.5,0.7,1.2,1.2,2,1.4c0.9,0.3,2,0.4,2.9,0.2
	C22.5,13.8,21.7,13.5,20.9,13.4"/>
<path class="st6" d="M22.7,10.5c-0.6-0.1-1.3-0.3-1.8-0.6C21,11.4,22.7,10.5,22.7,10.5"/>
<path class="st6" d="M24.8,9.4c-0.2,0.4,0,0.8,0.4,1c0.4,0,0.7-0.2,0.9-0.6c0.2-0.4,0-0.8-0.4-1C25.4,8.7,25.1,8.9,24.8,9.4"/>
<path class="st6" d="M18.8,7.4c-0.1,0.4,0.1,0.8,0.4,0.9c0.4,0,0.7-0.2,0.9-0.6c0.1-0.4-0.1-0.8-0.4-0.9C19.2,6.8,18.9,7,18.8,7.4"
	/>
<path class="st1" d="M25.4,0.6c3.2,1,7.8,6.7,2.1,13.4C29,10.3,26,4.5,26,4.5s-0.6,1.1-10.4,1c-0.5,0.9-0.9,1.8-1.2,2.7
	C14.4,8.3,14.8-2.5,25.4,0.6"/>
<path class="st4" d="M22.6,30.5"/>
</svg>
