<?xml version="1.0" encoding="utf-8"?>
<!-- Generator: Adobe Illustrator 23.0.2, SVG Export Plug-In . SVG Version: 6.00 Build 0)  -->
<svg version="1.1" id="Layer_1" xmlns="http://www.w3.org/2000/svg" xmlns:xlink="http://www.w3.org/1999/xlink" x="0px" y="0px"
	 viewBox="0 0 35.2 31.7" style="enable-background:new 0 0 35.2 31.7;" xml:space="preserve">
<style type="text/css">
	.st0{fill:#ED427F;}
	.st1{fill:#FDDDC5;}
	.st2{fill:#00AEEF;}
	.st3{fill:#1367B1;}
	.st4{fill:#F6BE9A;}
	.st5{fill:#E28B59;}
	.st6{fill:#C55530;}
</style>
<rect x="16.5" y="23.4" transform="matrix(0.9862 -0.1658 0.1658 0.9862 -3.9905 3.8055)" class="st0" width="8.6" height="4.8"/>
<title>girl-pink-hair</title>
<g>
	<g>
		<path class="st1" d="M34.6,9c-0.9,0.3-1.9,1.5-1.9,1.5s0.9-1.6,1.4-2c0.5-0.5,0.2-1.2-0.6-0.6C32.6,8.4,32,9.7,32,9.7
			s0.7-1.8,1.2-2.3s0.2-1.2-0.4-0.8C32.1,6.9,31.2,9,31.2,9s0.2-1,0.7-1.8c0.5-0.7,0.4-1.4-0.2-1.1s-1.3,2-1.6,3.3
			c0.1-0.4-0.6-1.7-1-1.4c-0.5,0.3,0.1,0.7,0,1.7c0,1,0.8,2.2,0.8,2.2l0.2,0.2c-0.3,1-0.8,2.2-1.7,3.4c-0.5-0.2-3-0.7-3.2-0.6
			c0.3,0.3,0.6,1.6,1.2,2.2c0.2-0.3,3,0.7,3.2,0.4c0.8-1.2,2-3.6,2.3-5.2c0.2-0.1,0.3-0.2,0.4-0.4c0.4-0.6,0.9-1.3,2-1.9
			C35.5,9.5,35.5,8.7,34.6,9z"/>
	</g>
	<path class="st2" d="M26.4,14.8c0.5,0.2,1,0,1,0s0.1,3.2-0.2,3.3c-0.5-0.2-0.8-0.3-0.8-0.3s-1.9,1.7-4.1,0l-0.7-4.2
		C21.7,13.7,25.5,12.1,26.4,14.8z"/>
	<path class="st3" d="M27.5,14.8c0,0,0.1,3.2-0.2,3.3c-0.5-0.2-0.8-0.3-0.8-0.3l0,0c-0.1-1,0-2.7,0.1-3.1
		C26.9,15,27.5,14.8,27.5,14.8z"/>
	<g>
		<path class="st1" d="M0.6,16.7c1-0.1,2.4,0.5,2.4,0.5s-1.5-1-2.2-1.2s-0.7-1,0.3-0.8s2.1,1.1,2.1,1.1S1.8,15,1.1,14.7
			s-0.7-1,0.1-0.9s2.5,1.6,2.5,1.6S3,14.5,2.3,14.1c-0.8-0.5-1-1.1-0.3-1s2,1.3,2.8,2.3c-0.3-0.4-0.2-1.9,0.4-1.8
			c0.6,0.1,0.2,0.7,0.7,1.6C6.3,16,6,17.4,6,17.4l-0.1,0.2c0.7,0.7,1.7,1.7,3,2.4c0.4-0.4,2.5-1.9,2.6-1.9c-0.2,0.4,0.1,1.7-0.2,2.5
			c-0.3-0.2-2.5,1.9-2.7,1.7c-1.2-0.8-3.3-2.4-4.3-3.8c-0.2,0-0.4-0.1-0.5-0.2c-0.6-0.4-1.3-0.8-2.6-0.9
			C-0.1,17.5-0.4,16.9,0.6,16.7z"/>
	</g>
	<path class="st2" d="M10.4,18.6C10,19,9.5,19.1,9.5,19.1S10.7,22,11,22c0.4-0.4,0.6-0.6,0.6-0.6s2.4,0.7,3.7-1.7l-1.2-4.1
		C14.2,15.6,10.1,15.8,10.4,18.6z"/>
	<path class="st2" d="M22.9,21.7l3.3,3.8c0,0-1.2,2-5.5,1.9c-4.1-0.1-5.5,0.6-5.5,0.6l0.4-5.5l-1.5-7.4l3.8-1.5l3.7-0.7L22.9,21.7z"
		/>
	<path class="st3" d="M22.8,17.7L22.8,17.7c-0.5-1.1-1-2.7-1-4.8c-0.1-0.1-0.2-0.1-0.2-0.1c-0.1,0.1-0.2,0.2-0.4,0.3l-0.5,0.1
		c0.5,1.3,1.6,4,1.1,5.8c-0.7-0.2-3,0.1-5.6,1c-0.7-1.9-1.2-4.7-1.2-4.7l-1,0.6c0,0,2,3.5,1.4,6.5l0.1,0.3l-2.2,4.8
		c0,0,2.2-0.9,7.7-0.7c4.3,0.2,6.4-3,6.4-3l-3.5-2.5L22.8,17.7z"/>
	<path class="st3" d="M20.9,15.2c0.2,1.4-0.8,2.4-2.5,1.9c-1.3,1.1-2.6,0.4-2.8-1s0.7-2.8,2.2-3C19.3,12.9,20.7,13.8,20.9,15.2z"/>
	<path class="st1" d="M20.2,14.5c0.2,1.2-1.8,2.6-1.8,2.6s-2.4-0.7-2.6-1.8c-0.2-1.2,0.6-2.3,1.8-2.5C18.9,12.6,20,13.3,20.2,14.5z"
		/>
	<g>
		<g>
			<path class="st1" d="M10.5,11c0.3,1.2-0.4,2.4-1.5,2.7c-1.2,0.3-2.4-0.4-2.7-1.5C5.9,11,6.6,9.8,7.8,9.5S10.2,9.9,10.5,11z"/>
			<path class="st1" d="M24.7,7.1c0.3,1.2-0.4,2.4-1.5,2.7c-1.2,0.3-2.4-0.4-2.7-1.5c-0.3-1.2,0.4-2.4,1.5-2.7
				C23.2,5.2,24.4,5.9,24.7,7.1z"/>
			<path class="st4" d="M8.7,12.8C8,13,7.3,12.6,7.2,11.9c-0.2-0.7,0.2-1.4,0.9-1.5c0.7-0.2,1.4,0.2,1.5,0.9
				C9.8,11.9,9.4,12.6,8.7,12.8L8.7,12.8z"/>
			<path class="st4" d="M22.9,8.8C22.3,9,21.6,8.6,21.4,8s0.2-1.3,0.8-1.5c0.6-0.2,1.3,0.2,1.5,0.8C23.9,8,23.5,8.7,22.9,8.8
				L22.9,8.8z"/>
			<path class="st1" d="M22.4,7.6c1,3.6-1.2,7.3-4.9,8.3s-7.5-1-8.5-4.6C8,7.8,10.2,4,13.9,3S21.4,4,22.4,7.6z"/>
			<path class="st5" d="M14.9,11.1c0,0,1.4-0.3,1.7-0.5C16.3,11.9,14.9,11.1,14.9,11.1z"/>
			<path class="st5" d="M12.2,12.9c0,0,6,0.3,8.4-2.5C21.4,14.4,14.8,17.7,12.2,12.9z"/>
			<path class="st6" d="M17.3,13.6c-1.7-0.2-2.4,0.7-2.6,1.1c0.7,0.3,1.6,0.3,2.4,0c0.9-0.3,1.8-0.8,2.4-1.5
				C18.7,13,17.7,13.2,17.3,13.6z"/>
		</g>
		<g>
			<path class="st0" d="M9.3,11.9c0,0,0.1-3.3,2.7-6.5c3.1,3.3,6-0.4,10.6,2.2c-0.6-1.1-1.1-2-1.1-2s2.1-0.9,3.1,1.2c1,2-2,3-2,3
				s-0.7,2.8-1.2,3.4c0.4,0.6,5.4-2.3,6.5-4.5C25.9,4,16.5-3.1,11.6,1.4C7.9,1.5,2.4,11.8,8,17.1c2.2,1.6,4.1-1.7,4.1-1.7
				s-1.7-1.1-2.2-2.1c-1.6,0.6-3.3,0.4-3.6-1.6C6,9.7,8.1,9.5,8.7,9.5C8.7,10.7,9.3,11.9,9.3,11.9z"/>
		</g>
		<path class="st5" d="M12.6,9.7c0.1,0.5,0,0.9-0.3,1s-0.7-0.2-0.8-0.7s0-0.9,0.3-1S12.5,9.2,12.6,9.7z"/>
		<path class="st5" d="M19.4,7.8c0.1,0.5,0,0.9-0.3,1s-0.7-0.2-0.8-0.7c-0.1-0.5,0-0.9,0.3-1C19,7,19.3,7.3,19.4,7.8z"/>
		<g>
			<path class="st0" d="M13.9,4.6c0,0-3.4,0.1-2.1,2.5c1.3,2.5,3.2,2.5,2.2,4c1.3-1.7,0.8-3.3-1.2-4.3C10.8,5.7,13.9,4.6,13.9,4.6z"
				/>
		</g>
	</g>
	<path class="st3" d="M9.5,19.1c0,0,1.2,2.9,1.6,2.9c0.4-0.4,0.6-0.6,0.6-0.6s0,0,0.1,0c-0.4-1-1.1-2.4-1.3-2.8
		C10,19,9.5,19.1,9.5,19.1z"/>
</g>
</svg>
